<?xml version="1.0" encoding="UTF-8" standalone="no"?>
<!DOCTYPE svg PUBLIC "-//W3C//DTD SVG 1.1//EN"
 "http://www.w3.org/Graphics/SVG/1.1/DTD/svg11.dtd">
<!-- Generated by graphviz version 9.0.0 (0)
 -->
<!-- Pages: 1 -->
<svg width="958pt" height="1543pt"
 viewBox="0.00 0.00 957.88 1543.00" xmlns="http://www.w3.org/2000/svg" xmlns:xlink="http://www.w3.org/1999/xlink">
<g id="graph0" class="graph" transform="scale(1 1) rotate(0) translate(4 1539)">
<polygon fill="white" stroke="none" points="-4,4 -4,-1539 953.88,-1539 953.88,4 -4,4"/>
<!-- BB0 -->
<g id="node1" class="node">
<title>BB0</title>
<polygon fill="#efefef" stroke="black" points="460.38,-1535 291.38,-1535 291.38,-1351.5 460.38,-1351.5 460.38,-1535"/>
<text text-anchor="middle" x="375.88" y="-1523.4" font-family="Cascadia Code" font-size="8.00">BB0:</text>
<text text-anchor="start" x="299.38" y="-1513.65" font-family="Cascadia Code" font-size="8.00">L_350A088_print₁ = nil</text>
<text text-anchor="start" x="299.38" y="-1503.9" font-family="Cascadia Code" font-size="8.00">L_350A088_print₂ = $print</text>
<text text-anchor="start" x="299.38" y="-1494.15" font-family="Cascadia Code" font-size="8.00"># samples/branching2.lua 1,14:1,15</text>
<text text-anchor="start" x="299.38" y="-1484.4" font-family="Cascadia Code" font-size="8.00">t₁ = 1</text>
<text text-anchor="start" x="299.38" y="-1474.65" font-family="Cascadia Code" font-size="8.00"># samples/branching2.lua 1,1:1,15</text>
<text text-anchor="start" x="299.38" y="-1464.9" font-family="Cascadia Code" font-size="8.00">L_EF476D_a₁ = t₁</text>
<text text-anchor="start" x="299.38" y="-1455.15" font-family="Cascadia Code" font-size="8.00">L_EF476D_b₁ = nil</text>
<text text-anchor="start" x="299.38" y="-1445.4" font-family="Cascadia Code" font-size="8.00"># samples/branching2.lua 2,8:2,9</text>
<text text-anchor="start" x="299.38" y="-1435.65" font-family="Cascadia Code" font-size="8.00">t₂ = 2</text>
<text text-anchor="start" x="299.38" y="-1425.9" font-family="Cascadia Code" font-size="8.00"># samples/branching2.lua 2,4:2,9</text>
<text text-anchor="start" x="299.38" y="-1416.15" font-family="Cascadia Code" font-size="8.00">t₃ = mod L_EF476D_a₁, t₂</text>
<text text-anchor="start" x="299.38" y="-1406.4" font-family="Cascadia Code" font-size="8.00"># samples/branching2.lua 2,13:2,14</text>
<text text-anchor="start" x="299.38" y="-1396.65" font-family="Cascadia Code" font-size="8.00">t₄ = 0</text>
<text text-anchor="start" x="299.38" y="-1386.9" font-family="Cascadia Code" font-size="8.00"># samples/branching2.lua 2,4:2,14</text>
<text text-anchor="start" x="299.38" y="-1377.15" font-family="Cascadia Code" font-size="8.00">t₅ = eq t₃, t₄</text>
<text text-anchor="start" x="299.38" y="-1367.4" font-family="Cascadia Code" font-size="8.00"># samples/branching2.lua 2,4:2,14</text>
<text text-anchor="start" x="299.38" y="-1357.65" font-family="Cascadia Code" font-size="8.00">br BB1 if t₅ else BB2</text>
</g>
<!-- BB1 -->
<g id="node2" class="node">
<title>BB1</title>
<polygon fill="#efefef" stroke="black" points="367.38,-1315.5 198.38,-1315.5 198.38,-1190.5 367.38,-1190.5 367.38,-1315.5"/>
<text text-anchor="middle" x="282.88" y="-1303.9" font-family="Cascadia Code" font-size="8.00">BB1:</text>
<text text-anchor="start" x="206.38" y="-1294.15" font-family="Cascadia Code" font-size="8.00"># samples/branching2.lua 3,13:3,14</text>
<text text-anchor="start" x="206.38" y="-1284.4" font-family="Cascadia Code" font-size="8.00">t₆ = 2</text>
<text text-anchor="start" x="206.38" y="-1274.65" font-family="Cascadia Code" font-size="8.00"># samples/branching2.lua 3,9:3,14</text>
<text text-anchor="start" x="206.38" y="-1264.9" font-family="Cascadia Code" font-size="8.00">t₇ = add L_EF476D_a₁, t₆</text>
<text text-anchor="start" x="206.38" y="-1255.15" font-family="Cascadia Code" font-size="8.00"># samples/branching2.lua 3,5:3,14</text>
<text text-anchor="start" x="206.38" y="-1245.4" font-family="Cascadia Code" font-size="8.00">L_EF476D_a₃ = t₇</text>
<text text-anchor="start" x="206.38" y="-1235.65" font-family="Cascadia Code" font-size="8.00"># samples/branching2.lua 4,9:4,10</text>
<text text-anchor="start" x="206.38" y="-1225.9" font-family="Cascadia Code" font-size="8.00">t₈ = 2</text>
<text text-anchor="start" x="206.38" y="-1216.15" font-family="Cascadia Code" font-size="8.00"># samples/branching2.lua 4,5:4,10</text>
<text text-anchor="start" x="206.38" y="-1206.4" font-family="Cascadia Code" font-size="8.00">L_EF476D_b₂ = t₈</text>
<text text-anchor="start" x="206.38" y="-1196.65" font-family="Cascadia Code" font-size="8.00">br BB17</text>
</g>
<!-- BB0&#45;&gt;BB1 -->
<g id="edge1" class="edge">
<title>BB0&#45;&gt;BB1</title>
<path fill="none" stroke="black" d="M330.87,-1351.16C326.73,-1342.78 322.58,-1334.36 318.54,-1326.19"/>
<polygon fill="black" stroke="black" points="321.73,-1324.74 314.16,-1317.33 315.45,-1327.84 321.73,-1324.74"/>
</g>
<!-- BB2 -->
<g id="node3" class="node">
<title>BB2</title>
<polygon fill="#efefef" stroke="black" points="554.38,-1310.62 385.38,-1310.62 385.38,-1195.38 554.38,-1195.38 554.38,-1310.62"/>
<text text-anchor="middle" x="469.88" y="-1299.03" font-family="Cascadia Code" font-size="8.00">BB2:</text>
<text text-anchor="start" x="393.38" y="-1289.28" font-family="Cascadia Code" font-size="8.00"># samples/branching2.lua 5,12:5,13</text>
<text text-anchor="start" x="393.38" y="-1279.53" font-family="Cascadia Code" font-size="8.00">t₉ = 3</text>
<text text-anchor="start" x="393.38" y="-1269.78" font-family="Cascadia Code" font-size="8.00"># samples/branching2.lua 5,8:5,13</text>
<text text-anchor="start" x="393.38" y="-1260.03" font-family="Cascadia Code" font-size="8.00">t₁₀ = mod L_EF476D_a₁, t₉</text>
<text text-anchor="start" x="393.38" y="-1250.28" font-family="Cascadia Code" font-size="8.00"># samples/branching2.lua 5,17:5,18</text>
<text text-anchor="start" x="393.38" y="-1240.53" font-family="Cascadia Code" font-size="8.00">t₁₁ = 0</text>
<text text-anchor="start" x="393.38" y="-1230.78" font-family="Cascadia Code" font-size="8.00"># samples/branching2.lua 5,8:5,18</text>
<text text-anchor="start" x="393.38" y="-1221.03" font-family="Cascadia Code" font-size="8.00">t₁₂ = eq t₁₀, t₁₁</text>
<text text-anchor="start" x="393.38" y="-1211.28" font-family="Cascadia Code" font-size="8.00"># samples/branching2.lua 5,8:5,18</text>
<text text-anchor="start" x="393.38" y="-1201.53" font-family="Cascadia Code" font-size="8.00">br BB3 if t₁₂ else BB4</text>
</g>
<!-- BB0&#45;&gt;BB2 -->
<g id="edge2" class="edge">
<title>BB0&#45;&gt;BB2</title>
<path fill="none" stroke="black" d="M421.36,-1351.16C426.44,-1340.99 431.54,-1330.77 436.43,-1320.98"/>
<polygon fill="black" stroke="black" points="439.42,-1322.82 440.76,-1312.31 433.16,-1319.69 439.42,-1322.82"/>
</g>
<!-- BB17 -->
<g id="node18" class="node">
<title>BB17</title>
<polygon fill="#efefef" stroke="black" points="943.75,-56.75 0,-56.75 0,0 943.75,0 943.75,-56.75"/>
<text text-anchor="middle" x="471.88" y="-45.15" font-family="Cascadia Code" font-size="8.00">BB17:</text>
<text text-anchor="start" x="8" y="-35.4" font-family="Cascadia Code" font-size="8.00">L_EF476D_a₂₇ = ϕ([BB1: L_EF476D_a₃], [BB3: L_EF476D_a₆], [BB5: L_EF476D_a₉], [BB7: L_EF476D_a₁₂], [BB9: L_EF476D_a₁₅], [BB11: L_EF476D_a₁₈], [BB13: L_EF476D_a₂₁], [BB15: L_EF476D_a₂₄], [BB16: L_EF476D_a₂₆])</text>
<text text-anchor="start" x="8" y="-25.65" font-family="Cascadia Code" font-size="8.00">L_EF476D_b₁₈ = ϕ([BB1: L_EF476D_b₂], [BB3: L_EF476D_b₁], [BB5: L_EF476D_b₆], [BB7: L_EF476D_b₁], [BB9: L_EF476D_b₁₀], [BB11: L_EF476D_b₁], [BB13: L_EF476D_b₁₄], [BB15: L_EF476D_b₁], [BB16: L_EF476D_b₁₇])</text>
<text text-anchor="start" x="8" y="-15.9" font-family="Cascadia Code" font-size="8.00"># samples/branching2.lua 26,1:26,12</text>
<text text-anchor="start" x="8" y="-6.15" font-family="Cascadia Code" font-size="8.00">t₅₇ = L_350A088_print₂(L_EF476D_a₂₇, L_EF476D_b₁₈)</text>
</g>
<!-- BB1&#45;&gt;BB17 -->
<g id="edge17" class="edge">
<title>BB1&#45;&gt;BB17</title>
<path fill="none" stroke="black" d="M282.88,-1190.19C282.88,-1127.58 282.88,-1027.93 282.88,-941.75 282.88,-941.75 282.88,-941.75 282.88,-315.25 282.88,-211.58 286.64,-172.5 352.88,-92.75 362.68,-80.94 375.28,-71.02 388.58,-62.8"/>
<polygon fill="black" stroke="black" points="390.17,-65.93 397.06,-57.88 386.66,-59.88 390.17,-65.93"/>
</g>
<!-- BB3 -->
<g id="node4" class="node">
<title>BB3</title>
<polygon fill="#efefef" stroke="black" points="480.38,-1139.88 311.38,-1139.88 311.38,-1053.88 480.38,-1053.88 480.38,-1139.88"/>
<text text-anchor="middle" x="395.88" y="-1128.28" font-family="Cascadia Code" font-size="8.00">BB3:</text>
<text text-anchor="start" x="319.38" y="-1118.53" font-family="Cascadia Code" font-size="8.00"># samples/branching2.lua 6,13:6,14</text>
<text text-anchor="start" x="319.38" y="-1108.78" font-family="Cascadia Code" font-size="8.00">t₁₃ = 3</text>
<text text-anchor="start" x="319.38" y="-1099.03" font-family="Cascadia Code" font-size="8.00"># samples/branching2.lua 6,9:6,14</text>
<text text-anchor="start" x="319.38" y="-1089.28" font-family="Cascadia Code" font-size="8.00">t₁₄ = add L_EF476D_a₁, t₁₃</text>
<text text-anchor="start" x="319.38" y="-1079.53" font-family="Cascadia Code" font-size="8.00"># samples/branching2.lua 6,5:6,14</text>
<text text-anchor="start" x="319.38" y="-1069.78" font-family="Cascadia Code" font-size="8.00">L_EF476D_a₆ = t₁₄</text>
<text text-anchor="start" x="319.38" y="-1060.03" font-family="Cascadia Code" font-size="8.00">br BB17</text>
</g>
<!-- BB2&#45;&gt;BB3 -->
<g id="edge3" class="edge">
<title>BB2&#45;&gt;BB3</title>
<path fill="none" stroke="black" d="M442.53,-1195.05C435.51,-1180.42 427.98,-1164.75 421.07,-1150.36"/>
<polygon fill="black" stroke="black" points="424.31,-1149 416.82,-1141.5 418,-1152.03 424.31,-1149"/>
</g>
<!-- BB4 -->
<g id="node5" class="node">
<title>BB4</title>
<polygon fill="#efefef" stroke="black" points="667.38,-1154.5 498.38,-1154.5 498.38,-1039.25 667.38,-1039.25 667.38,-1154.5"/>
<text text-anchor="middle" x="582.88" y="-1142.9" font-family="Cascadia Code" font-size="8.00">BB4:</text>
<text text-anchor="start" x="506.38" y="-1133.15" font-family="Cascadia Code" font-size="8.00"># samples/branching2.lua 7,12:7,13</text>
<text text-anchor="start" x="506.38" y="-1123.4" font-family="Cascadia Code" font-size="8.00">t₁₅ = 4</text>
<text text-anchor="start" x="506.38" y="-1113.65" font-family="Cascadia Code" font-size="8.00"># samples/branching2.lua 7,8:7,13</text>
<text text-anchor="start" x="506.38" y="-1103.9" font-family="Cascadia Code" font-size="8.00">t₁₆ = mod L_EF476D_a₁, t₁₅</text>
<text text-anchor="start" x="506.38" y="-1094.15" font-family="Cascadia Code" font-size="8.00"># samples/branching2.lua 7,17:7,18</text>
<text text-anchor="start" x="506.38" y="-1084.4" font-family="Cascadia Code" font-size="8.00">t₁₇ = 0</text>
<text text-anchor="start" x="506.38" y="-1074.65" font-family="Cascadia Code" font-size="8.00"># samples/branching2.lua 7,8:7,18</text>
<text text-anchor="start" x="506.38" y="-1064.9" font-family="Cascadia Code" font-size="8.00">t₁₈ = eq t₁₆, t₁₇</text>
<text text-anchor="start" x="506.38" y="-1055.15" font-family="Cascadia Code" font-size="8.00"># samples/branching2.lua 7,8:7,18</text>
<text text-anchor="start" x="506.38" y="-1045.4" font-family="Cascadia Code" font-size="8.00">br BB5 if t₁₈ else BB6</text>
</g>
<!-- BB2&#45;&gt;BB4 -->
<g id="edge4" class="edge">
<title>BB2&#45;&gt;BB4</title>
<path fill="none" stroke="black" d="M511.63,-1195.05C519.07,-1184.9 526.88,-1174.25 534.48,-1163.88"/>
<polygon fill="black" stroke="black" points="537.12,-1166.21 540.21,-1156.07 531.47,-1162.07 537.12,-1166.21"/>
</g>
<!-- BB3&#45;&gt;BB17 -->
<g id="edge18" class="edge">
<title>BB3&#45;&gt;BB17</title>
<path fill="none" stroke="black" d="M386.14,-1053.63C382.8,-1037.89 379.29,-1019.82 376.88,-1003.25 362.87,-907.17 357.88,-882.72 357.88,-785.62 357.88,-785.62 357.88,-785.62 357.88,-315.25 357.88,-215 344.76,-179.57 394.88,-92.75 400.97,-82.19 409.54,-72.64 418.76,-64.35"/>
<polygon fill="black" stroke="black" points="420.82,-67.19 426.21,-58.07 416.31,-61.84 420.82,-67.19"/>
</g>
<!-- BB5 -->
<g id="node6" class="node">
<title>BB5</title>
<polygon fill="#efefef" stroke="black" points="555.38,-1003.25 386.38,-1003.25 386.38,-878.25 555.38,-878.25 555.38,-1003.25"/>
<text text-anchor="middle" x="470.88" y="-991.65" font-family="Cascadia Code" font-size="8.00">BB5:</text>
<text text-anchor="start" x="394.38" y="-981.9" font-family="Cascadia Code" font-size="8.00"># samples/branching2.lua 8,13:8,14</text>
<text text-anchor="start" x="394.38" y="-972.15" font-family="Cascadia Code" font-size="8.00">t₁₉ = 4</text>
<text text-anchor="start" x="394.38" y="-962.4" font-family="Cascadia Code" font-size="8.00"># samples/branching2.lua 8,9:8,14</text>
<text text-anchor="start" x="394.38" y="-952.65" font-family="Cascadia Code" font-size="8.00">t₂₀ = add L_EF476D_a₁, t₁₉</text>
<text text-anchor="start" x="394.38" y="-942.9" font-family="Cascadia Code" font-size="8.00"># samples/branching2.lua 8,5:8,14</text>
<text text-anchor="start" x="394.38" y="-933.15" font-family="Cascadia Code" font-size="8.00">L_EF476D_a₉ = t₂₀</text>
<text text-anchor="start" x="394.38" y="-923.4" font-family="Cascadia Code" font-size="8.00"># samples/branching2.lua 9,9:9,10</text>
<text text-anchor="start" x="394.38" y="-913.65" font-family="Cascadia Code" font-size="8.00">t₂₁ = 4</text>
<text text-anchor="start" x="394.38" y="-903.9" font-family="Cascadia Code" font-size="8.00"># samples/branching2.lua 9,5:9,10</text>
<text text-anchor="start" x="394.38" y="-894.15" font-family="Cascadia Code" font-size="8.00">L_EF476D_b₆ = t₂₁</text>
<text text-anchor="start" x="394.38" y="-884.4" font-family="Cascadia Code" font-size="8.00">br BB17</text>
</g>
<!-- BB4&#45;&gt;BB5 -->
<g id="edge5" class="edge">
<title>BB4&#45;&gt;BB5</title>
<path fill="none" stroke="black" d="M541.49,-1038.92C535.29,-1030.39 528.84,-1021.51 522.46,-1012.74"/>
<polygon fill="black" stroke="black" points="525.46,-1010.91 516.75,-1004.87 519.79,-1015.02 525.46,-1010.91"/>
</g>
<!-- BB6 -->
<g id="node7" class="node">
<title>BB6</title>
<polygon fill="#efefef" stroke="black" points="751.88,-998.38 573.88,-998.38 573.88,-883.12 751.88,-883.12 751.88,-998.38"/>
<text text-anchor="middle" x="662.88" y="-986.77" font-family="Cascadia Code" font-size="8.00">BB6:</text>
<text text-anchor="start" x="581.88" y="-977.02" font-family="Cascadia Code" font-size="8.00"># samples/branching2.lua 10,12:10,13</text>
<text text-anchor="start" x="581.88" y="-967.27" font-family="Cascadia Code" font-size="8.00">t₂₂ = 5</text>
<text text-anchor="start" x="581.88" y="-957.52" font-family="Cascadia Code" font-size="8.00"># samples/branching2.lua 10,8:10,13</text>
<text text-anchor="start" x="581.88" y="-947.77" font-family="Cascadia Code" font-size="8.00">t₂₃ = mod L_EF476D_a₁, t₂₂</text>
<text text-anchor="start" x="581.88" y="-938.02" font-family="Cascadia Code" font-size="8.00"># samples/branching2.lua 10,17:10,18</text>
<text text-anchor="start" x="581.88" y="-928.27" font-family="Cascadia Code" font-size="8.00">t₂₄ = 0</text>
<text text-anchor="start" x="581.88" y="-918.52" font-family="Cascadia Code" font-size="8.00"># samples/branching2.lua 10,8:10,18</text>
<text text-anchor="start" x="581.88" y="-908.77" font-family="Cascadia Code" font-size="8.00">t₂₅ = eq t₂₃, t₂₄</text>
<text text-anchor="start" x="581.88" y="-899.02" font-family="Cascadia Code" font-size="8.00"># samples/branching2.lua 10,8:10,18</text>
<text text-anchor="start" x="581.88" y="-889.27" font-family="Cascadia Code" font-size="8.00">br BB7 if t₂₅ else BB8</text>
</g>
<!-- BB4&#45;&gt;BB6 -->
<g id="edge6" class="edge">
<title>BB4&#45;&gt;BB6</title>
<path fill="none" stroke="black" d="M612.44,-1038.92C617.54,-1029.08 622.9,-1018.77 628.13,-1008.7"/>
<polygon fill="black" stroke="black" points="631.1,-1010.56 632.6,-1000.07 624.89,-1007.33 631.1,-1010.56"/>
</g>
<!-- BB5&#45;&gt;BB17 -->
<g id="edge19" class="edge">
<title>BB5&#45;&gt;BB17</title>
<path fill="none" stroke="black" d="M430.1,-877.86C424.09,-866.41 418.66,-854.26 414.88,-842.25 386.35,-751.71 395.88,-724.43 395.88,-629.5 395.88,-629.5 395.88,-629.5 395.88,-315.25 395.88,-215.08 396.43,-186.44 431.88,-92.75 435.21,-83.93 439.87,-75.02 444.83,-66.78"/>
<polygon fill="black" stroke="black" points="447.75,-68.71 450.15,-58.39 441.84,-64.96 447.75,-68.71"/>
</g>
<!-- BB7 -->
<g id="node8" class="node">
<title>BB7</title>
<polygon fill="#efefef" stroke="black" points="601.88,-827.62 423.88,-827.62 423.88,-741.62 601.88,-741.62 601.88,-827.62"/>
<text text-anchor="middle" x="512.88" y="-816.02" font-family="Cascadia Code" font-size="8.00">BB7:</text>
<text text-anchor="start" x="431.88" y="-806.27" font-family="Cascadia Code" font-size="8.00"># samples/branching2.lua 11,13:11,14</text>
<text text-anchor="start" x="431.88" y="-796.52" font-family="Cascadia Code" font-size="8.00">t₂₆ = 5</text>
<text text-anchor="start" x="431.88" y="-786.77" font-family="Cascadia Code" font-size="8.00"># samples/branching2.lua 11,9:11,14</text>
<text text-anchor="start" x="431.88" y="-777.02" font-family="Cascadia Code" font-size="8.00">t₂₇ = add L_EF476D_a₁, t₂₆</text>
<text text-anchor="start" x="431.88" y="-767.27" font-family="Cascadia Code" font-size="8.00"># samples/branching2.lua 11,5:11,14</text>
<text text-anchor="start" x="431.88" y="-757.52" font-family="Cascadia Code" font-size="8.00">L_EF476D_a₁₂ = t₂₇</text>
<text text-anchor="start" x="431.88" y="-747.77" font-family="Cascadia Code" font-size="8.00">br BB17</text>
</g>
<!-- BB6&#45;&gt;BB7 -->
<g id="edge7" class="edge">
<title>BB6&#45;&gt;BB7</title>
<path fill="none" stroke="black" d="M607.45,-882.8C592.52,-867.46 576.48,-850.98 561.92,-836.02"/>
<polygon fill="black" stroke="black" points="564.55,-833.7 555.06,-828.97 559.53,-838.58 564.55,-833.7"/>
</g>
<!-- BB8 -->
<g id="node9" class="node">
<title>BB8</title>
<polygon fill="#efefef" stroke="black" points="797.88,-842.25 619.88,-842.25 619.88,-727 797.88,-727 797.88,-842.25"/>
<text text-anchor="middle" x="708.88" y="-830.65" font-family="Cascadia Code" font-size="8.00">BB8:</text>
<text text-anchor="start" x="627.88" y="-820.9" font-family="Cascadia Code" font-size="8.00"># samples/branching2.lua 12,12:12,13</text>
<text text-anchor="start" x="627.88" y="-811.15" font-family="Cascadia Code" font-size="8.00">t₂₈ = 6</text>
<text text-anchor="start" x="627.88" y="-801.4" font-family="Cascadia Code" font-size="8.00"># samples/branching2.lua 12,8:12,13</text>
<text text-anchor="start" x="627.88" y="-791.65" font-family="Cascadia Code" font-size="8.00">t₂₉ = mod L_EF476D_a₁, t₂₈</text>
<text text-anchor="start" x="627.88" y="-781.9" font-family="Cascadia Code" font-size="8.00"># samples/branching2.lua 12,17:12,18</text>
<text text-anchor="start" x="627.88" y="-772.15" font-family="Cascadia Code" font-size="8.00">t₃₀ = 0</text>
<text text-anchor="start" x="627.88" y="-762.4" font-family="Cascadia Code" font-size="8.00"># samples/branching2.lua 12,8:12,18</text>
<text text-anchor="start" x="627.88" y="-752.65" font-family="Cascadia Code" font-size="8.00">t₃₁ = eq t₂₉, t₃₀</text>
<text text-anchor="start" x="627.88" y="-742.9" font-family="Cascadia Code" font-size="8.00"># samples/branching2.lua 12,8:12,18</text>
<text text-anchor="start" x="627.88" y="-733.15" font-family="Cascadia Code" font-size="8.00">br BB9 if t₃₁ else BB10</text>
</g>
<!-- BB6&#45;&gt;BB8 -->
<g id="edge8" class="edge">
<title>BB6&#45;&gt;BB8</title>
<path fill="none" stroke="black" d="M679.87,-882.8C682.72,-873.27 685.69,-863.29 688.61,-853.52"/>
<polygon fill="black" stroke="black" points="691.93,-854.63 691.44,-844.05 685.22,-852.63 691.93,-854.63"/>
</g>
<!-- BB7&#45;&gt;BB17 -->
<g id="edge20" class="edge">
<title>BB7&#45;&gt;BB17</title>
<path fill="none" stroke="black" d="M479.18,-741.16C468.99,-726.13 458.91,-708.58 452.88,-691 421.33,-599.18 433.88,-570.47 433.88,-473.38 433.88,-473.38 433.88,-473.38 433.88,-315.25 433.88,-216 434.3,-190.25 452.88,-92.75 454.41,-84.7 456.56,-76.21 458.88,-68.15"/>
<polygon fill="black" stroke="black" points="462.22,-69.18 461.76,-58.59 455.52,-67.16 462.22,-69.18"/>
</g>
<!-- BB9 -->
<g id="node10" class="node">
<title>BB9</title>
<polygon fill="#efefef" stroke="black" points="639.88,-691 461.88,-691 461.88,-566 639.88,-566 639.88,-691"/>
<text text-anchor="middle" x="550.88" y="-679.4" font-family="Cascadia Code" font-size="8.00">BB9:</text>
<text text-anchor="start" x="469.88" y="-669.65" font-family="Cascadia Code" font-size="8.00"># samples/branching2.lua 13,13:13,14</text>
<text text-anchor="start" x="469.88" y="-659.9" font-family="Cascadia Code" font-size="8.00">t₃₂ = 6</text>
<text text-anchor="start" x="469.88" y="-650.15" font-family="Cascadia Code" font-size="8.00"># samples/branching2.lua 13,9:13,14</text>
<text text-anchor="start" x="469.88" y="-640.4" font-family="Cascadia Code" font-size="8.00">t₃₃ = add L_EF476D_a₁, t₃₂</text>
<text text-anchor="start" x="469.88" y="-630.65" font-family="Cascadia Code" font-size="8.00"># samples/branching2.lua 13,5:13,14</text>
<text text-anchor="start" x="469.88" y="-620.9" font-family="Cascadia Code" font-size="8.00">L_EF476D_a₁₅ = t₃₃</text>
<text text-anchor="start" x="469.88" y="-611.15" font-family="Cascadia Code" font-size="8.00"># samples/branching2.lua 14,9:14,10</text>
<text text-anchor="start" x="469.88" y="-601.4" font-family="Cascadia Code" font-size="8.00">t₃₄ = 6</text>
<text text-anchor="start" x="469.88" y="-591.65" font-family="Cascadia Code" font-size="8.00"># samples/branching2.lua 14,5:14,10</text>
<text text-anchor="start" x="469.88" y="-581.9" font-family="Cascadia Code" font-size="8.00">L_EF476D_b₁₀ = t₃₄</text>
<text text-anchor="start" x="469.88" y="-572.15" font-family="Cascadia Code" font-size="8.00">br BB17</text>
</g>
<!-- BB8&#45;&gt;BB9 -->
<g id="edge9" class="edge">
<title>BB8&#45;&gt;BB9</title>
<path fill="none" stroke="black" d="M650.49,-726.67C641.38,-717.79 631.88,-708.51 622.51,-699.38"/>
<polygon fill="black" stroke="black" points="625.02,-696.93 615.41,-692.46 620.13,-701.94 625.02,-696.93"/>
</g>
<!-- BB10 -->
<g id="node11" class="node">
<title>BB10</title>
<polygon fill="#efefef" stroke="black" points="835.88,-686.12 657.88,-686.12 657.88,-570.88 835.88,-570.88 835.88,-686.12"/>
<text text-anchor="middle" x="746.88" y="-674.52" font-family="Cascadia Code" font-size="8.00">BB10:</text>
<text text-anchor="start" x="665.88" y="-664.77" font-family="Cascadia Code" font-size="8.00"># samples/branching2.lua 15,12:15,13</text>
<text text-anchor="start" x="665.88" y="-655.02" font-family="Cascadia Code" font-size="8.00">t₃₅ = 7</text>
<text text-anchor="start" x="665.88" y="-645.27" font-family="Cascadia Code" font-size="8.00"># samples/branching2.lua 15,8:15,13</text>
<text text-anchor="start" x="665.88" y="-635.52" font-family="Cascadia Code" font-size="8.00">t₃₆ = mod L_EF476D_a₁, t₃₅</text>
<text text-anchor="start" x="665.88" y="-625.77" font-family="Cascadia Code" font-size="8.00"># samples/branching2.lua 15,17:15,18</text>
<text text-anchor="start" x="665.88" y="-616.02" font-family="Cascadia Code" font-size="8.00">t₃₇ = 0</text>
<text text-anchor="start" x="665.88" y="-606.27" font-family="Cascadia Code" font-size="8.00"># samples/branching2.lua 15,8:15,18</text>
<text text-anchor="start" x="665.88" y="-596.52" font-family="Cascadia Code" font-size="8.00">t₃₈ = eq t₃₆, t₃₇</text>
<text text-anchor="start" x="665.88" y="-586.77" font-family="Cascadia Code" font-size="8.00"># samples/branching2.lua 15,8:15,18</text>
<text text-anchor="start" x="665.88" y="-577.02" font-family="Cascadia Code" font-size="8.00">br BB11 if t₃₈ else BB12</text>
</g>
<!-- BB8&#45;&gt;BB10 -->
<g id="edge10" class="edge">
<title>BB8&#45;&gt;BB10</title>
<path fill="none" stroke="black" d="M722.92,-726.67C725.27,-717.14 727.73,-707.17 730.14,-697.39"/>
<polygon fill="black" stroke="black" points="733.47,-698.49 732.47,-687.95 726.67,-696.82 733.47,-698.49"/>
</g>
<!-- BB9&#45;&gt;BB17 -->
<g id="edge21" class="edge">
<title>BB9&#45;&gt;BB17</title>
<path fill="none" stroke="black" d="M506.34,-565.51C500.08,-554.16 494.54,-542.08 490.88,-530 440.61,-364.47 456.98,-153.96 466.79,-68.28"/>
<polygon fill="black" stroke="black" points="470.24,-68.89 467.94,-58.54 463.29,-68.06 470.24,-68.89"/>
</g>
<!-- BB11 -->
<g id="node12" class="node">
<title>BB11</title>
<polygon fill="#efefef" stroke="black" points="677.88,-515.38 499.88,-515.38 499.88,-429.38 677.88,-429.38 677.88,-515.38"/>
<text text-anchor="middle" x="588.88" y="-503.77" font-family="Cascadia Code" font-size="8.00">BB11:</text>
<text text-anchor="start" x="507.88" y="-494.02" font-family="Cascadia Code" font-size="8.00"># samples/branching2.lua 16,13:16,14</text>
<text text-anchor="start" x="507.88" y="-484.27" font-family="Cascadia Code" font-size="8.00">t₃₉ = 7</text>
<text text-anchor="start" x="507.88" y="-474.52" font-family="Cascadia Code" font-size="8.00"># samples/branching2.lua 16,9:16,14</text>
<text text-anchor="start" x="507.88" y="-464.77" font-family="Cascadia Code" font-size="8.00">t₄₀ = add L_EF476D_a₁, t₃₉</text>
<text text-anchor="start" x="507.88" y="-455.02" font-family="Cascadia Code" font-size="8.00"># samples/branching2.lua 16,5:16,14</text>
<text text-anchor="start" x="507.88" y="-445.27" font-family="Cascadia Code" font-size="8.00">L_EF476D_a₁₈ = t₄₀</text>
<text text-anchor="start" x="507.88" y="-435.52" font-family="Cascadia Code" font-size="8.00">br BB17</text>
</g>
<!-- BB10&#45;&gt;BB11 -->
<g id="edge11" class="edge">
<title>BB10&#45;&gt;BB11</title>
<path fill="none" stroke="black" d="M688.49,-570.55C672.62,-555.07 655.56,-538.42 640.12,-523.36"/>
<polygon fill="black" stroke="black" points="642.89,-521.17 633.29,-516.7 638,-526.19 642.89,-521.17"/>
</g>
<!-- BB12 -->
<g id="node13" class="node">
<title>BB12</title>
<polygon fill="#efefef" stroke="black" points="873.88,-530 695.88,-530 695.88,-414.75 873.88,-414.75 873.88,-530"/>
<text text-anchor="middle" x="784.88" y="-518.4" font-family="Cascadia Code" font-size="8.00">BB12:</text>
<text text-anchor="start" x="703.88" y="-508.65" font-family="Cascadia Code" font-size="8.00"># samples/branching2.lua 17,12:17,13</text>
<text text-anchor="start" x="703.88" y="-498.9" font-family="Cascadia Code" font-size="8.00">t₄₁ = 8</text>
<text text-anchor="start" x="703.88" y="-489.15" font-family="Cascadia Code" font-size="8.00"># samples/branching2.lua 17,8:17,13</text>
<text text-anchor="start" x="703.88" y="-479.4" font-family="Cascadia Code" font-size="8.00">t₄₂ = mod L_EF476D_a₁, t₄₁</text>
<text text-anchor="start" x="703.88" y="-469.65" font-family="Cascadia Code" font-size="8.00"># samples/branching2.lua 17,17:17,18</text>
<text text-anchor="start" x="703.88" y="-459.9" font-family="Cascadia Code" font-size="8.00">t₄₃ = 0</text>
<text text-anchor="start" x="703.88" y="-450.15" font-family="Cascadia Code" font-size="8.00"># samples/branching2.lua 17,8:17,18</text>
<text text-anchor="start" x="703.88" y="-440.4" font-family="Cascadia Code" font-size="8.00">t₄₄ = eq t₄₂, t₄₃</text>
<text text-anchor="start" x="703.88" y="-430.65" font-family="Cascadia Code" font-size="8.00"># samples/branching2.lua 17,8:17,18</text>
<text text-anchor="start" x="703.88" y="-420.9" font-family="Cascadia Code" font-size="8.00">br BB13 if t₄₄ else BB14</text>
</g>
<!-- BB10&#45;&gt;BB12 -->
<g id="edge12" class="edge">
<title>BB10&#45;&gt;BB12</title>
<path fill="none" stroke="black" d="M760.92,-570.55C763.27,-561.02 765.73,-551.04 768.14,-541.27"/>
<polygon fill="black" stroke="black" points="771.47,-542.37 770.47,-531.82 764.67,-540.69 771.47,-542.37"/>
</g>
<!-- BB11&#45;&gt;BB17 -->
<g id="edge22" class="edge">
<title>BB11&#45;&gt;BB17</title>
<path fill="none" stroke="black" d="M556.12,-429.15C545.88,-414 535.52,-396.31 528.88,-378.75 483.35,-258.54 509.31,-219.14 485.88,-92.75 484.4,-84.77 482.64,-76.26 480.88,-68.15"/>
<polygon fill="black" stroke="black" points="484.33,-67.54 478.75,-58.53 477.5,-69.05 484.33,-67.54"/>
</g>
<!-- BB13 -->
<g id="node14" class="node">
<title>BB13</title>
<polygon fill="#efefef" stroke="black" points="715.88,-378.75 537.88,-378.75 537.88,-253.75 715.88,-253.75 715.88,-378.75"/>
<text text-anchor="middle" x="626.88" y="-367.15" font-family="Cascadia Code" font-size="8.00">BB13:</text>
<text text-anchor="start" x="545.88" y="-357.4" font-family="Cascadia Code" font-size="8.00"># samples/branching2.lua 18,13:18,14</text>
<text text-anchor="start" x="545.88" y="-347.65" font-family="Cascadia Code" font-size="8.00">t₄₅ = 8</text>
<text text-anchor="start" x="545.88" y="-337.9" font-family="Cascadia Code" font-size="8.00"># samples/branching2.lua 18,9:18,14</text>
<text text-anchor="start" x="545.88" y="-328.15" font-family="Cascadia Code" font-size="8.00">t₄₆ = add L_EF476D_a₁, t₄₅</text>
<text text-anchor="start" x="545.88" y="-318.4" font-family="Cascadia Code" font-size="8.00"># samples/branching2.lua 18,5:18,14</text>
<text text-anchor="start" x="545.88" y="-308.65" font-family="Cascadia Code" font-size="8.00">L_EF476D_a₂₁ = t₄₆</text>
<text text-anchor="start" x="545.88" y="-298.9" font-family="Cascadia Code" font-size="8.00"># samples/branching2.lua 19,9:19,10</text>
<text text-anchor="start" x="545.88" y="-289.15" font-family="Cascadia Code" font-size="8.00">t₄₇ = 8</text>
<text text-anchor="start" x="545.88" y="-279.4" font-family="Cascadia Code" font-size="8.00"># samples/branching2.lua 19,5:19,10</text>
<text text-anchor="start" x="545.88" y="-269.65" font-family="Cascadia Code" font-size="8.00">L_EF476D_b₁₄ = t₄₇</text>
<text text-anchor="start" x="545.88" y="-259.9" font-family="Cascadia Code" font-size="8.00">br BB17</text>
</g>
<!-- BB12&#45;&gt;BB13 -->
<g id="edge13" class="edge">
<title>BB12&#45;&gt;BB13</title>
<path fill="none" stroke="black" d="M726.49,-414.42C717.38,-405.54 707.88,-396.26 698.51,-387.13"/>
<polygon fill="black" stroke="black" points="701.02,-384.68 691.41,-380.21 696.13,-389.69 701.02,-384.68"/>
</g>
<!-- BB14 -->
<g id="node15" class="node">
<title>BB14</title>
<polygon fill="#efefef" stroke="black" points="911.88,-373.88 733.88,-373.88 733.88,-258.62 911.88,-258.62 911.88,-373.88"/>
<text text-anchor="middle" x="822.88" y="-362.27" font-family="Cascadia Code" font-size="8.00">BB14:</text>
<text text-anchor="start" x="741.88" y="-352.52" font-family="Cascadia Code" font-size="8.00"># samples/branching2.lua 20,12:20,13</text>
<text text-anchor="start" x="741.88" y="-342.77" font-family="Cascadia Code" font-size="8.00">t₄₈ = 9</text>
<text text-anchor="start" x="741.88" y="-333.02" font-family="Cascadia Code" font-size="8.00"># samples/branching2.lua 20,8:20,13</text>
<text text-anchor="start" x="741.88" y="-323.27" font-family="Cascadia Code" font-size="8.00">t₄₉ = mod L_EF476D_a₁, t₄₈</text>
<text text-anchor="start" x="741.88" y="-313.52" font-family="Cascadia Code" font-size="8.00"># samples/branching2.lua 20,17:20,18</text>
<text text-anchor="start" x="741.88" y="-303.77" font-family="Cascadia Code" font-size="8.00">t₅₀ = 0</text>
<text text-anchor="start" x="741.88" y="-294.02" font-family="Cascadia Code" font-size="8.00"># samples/branching2.lua 20,8:20,18</text>
<text text-anchor="start" x="741.88" y="-284.27" font-family="Cascadia Code" font-size="8.00">t₅₁ = eq t₄₉, t₅₀</text>
<text text-anchor="start" x="741.88" y="-274.52" font-family="Cascadia Code" font-size="8.00"># samples/branching2.lua 20,8:20,18</text>
<text text-anchor="start" x="741.88" y="-264.77" font-family="Cascadia Code" font-size="8.00">br BB15 if t₅₁ else BB16</text>
</g>
<!-- BB12&#45;&gt;BB14 -->
<g id="edge14" class="edge">
<title>BB12&#45;&gt;BB14</title>
<path fill="none" stroke="black" d="M798.92,-414.42C801.27,-404.89 803.73,-394.92 806.14,-385.14"/>
<polygon fill="black" stroke="black" points="809.47,-386.24 808.47,-375.7 802.67,-384.57 809.47,-386.24"/>
</g>
<!-- BB13&#45;&gt;BB17 -->
<g id="edge23" class="edge">
<title>BB13&#45;&gt;BB17</title>
<path fill="none" stroke="black" d="M586.05,-253.45C579.18,-241.84 572.48,-229.61 566.88,-217.75 541.77,-164.63 552.52,-144.05 523.88,-92.75 518.73,-83.53 512.2,-74.34 505.52,-65.92"/>
<polygon fill="black" stroke="black" points="508.3,-63.79 499.24,-58.3 502.9,-68.25 508.3,-63.79"/>
</g>
<!-- BB15 -->
<g id="node16" class="node">
<title>BB15</title>
<polygon fill="#efefef" stroke="black" points="753.88,-198.25 575.88,-198.25 575.88,-112.25 753.88,-112.25 753.88,-198.25"/>
<text text-anchor="middle" x="664.88" y="-186.65" font-family="Cascadia Code" font-size="8.00">BB15:</text>
<text text-anchor="start" x="583.88" y="-176.9" font-family="Cascadia Code" font-size="8.00"># samples/branching2.lua 21,13:21,14</text>
<text text-anchor="start" x="583.88" y="-167.15" font-family="Cascadia Code" font-size="8.00">t₅₂ = 9</text>
<text text-anchor="start" x="583.88" y="-157.4" font-family="Cascadia Code" font-size="8.00"># samples/branching2.lua 21,9:21,14</text>
<text text-anchor="start" x="583.88" y="-147.65" font-family="Cascadia Code" font-size="8.00">t₅₃ = add L_EF476D_a₁, t₅₂</text>
<text text-anchor="start" x="583.88" y="-137.9" font-family="Cascadia Code" font-size="8.00"># samples/branching2.lua 21,5:21,14</text>
<text text-anchor="start" x="583.88" y="-128.15" font-family="Cascadia Code" font-size="8.00">L_EF476D_a₂₄ = t₅₃</text>
<text text-anchor="start" x="583.88" y="-118.4" font-family="Cascadia Code" font-size="8.00">br BB17</text>
</g>
<!-- BB14&#45;&gt;BB15 -->
<g id="edge15" class="edge">
<title>BB14&#45;&gt;BB15</title>
<path fill="none" stroke="black" d="M766.28,-258.3C749.39,-241.3 731,-222.8 714.59,-206.28"/>
<polygon fill="black" stroke="black" points="717.3,-204.04 707.77,-199.41 712.33,-208.97 717.3,-204.04"/>
</g>
<!-- BB16 -->
<g id="node17" class="node">
<title>BB16</title>
<polygon fill="#efefef" stroke="black" points="949.88,-217.75 771.88,-217.75 771.88,-92.75 949.88,-92.75 949.88,-217.75"/>
<text text-anchor="middle" x="860.88" y="-206.15" font-family="Cascadia Code" font-size="8.00">BB16:</text>
<text text-anchor="start" x="779.88" y="-196.4" font-family="Cascadia Code" font-size="8.00"># samples/branching2.lua 23,13:23,15</text>
<text text-anchor="start" x="779.88" y="-186.65" font-family="Cascadia Code" font-size="8.00">t₅₄ = 10</text>
<text text-anchor="start" x="779.88" y="-176.9" font-family="Cascadia Code" font-size="8.00"># samples/branching2.lua 23,9:23,15</text>
<text text-anchor="start" x="779.88" y="-167.15" font-family="Cascadia Code" font-size="8.00">t₅₅ = add L_EF476D_a₁, t₅₄</text>
<text text-anchor="start" x="779.88" y="-157.4" font-family="Cascadia Code" font-size="8.00"># samples/branching2.lua 23,5:23,15</text>
<text text-anchor="start" x="779.88" y="-147.65" font-family="Cascadia Code" font-size="8.00">L_EF476D_a₂₆ = t₅₅</text>
<text text-anchor="start" x="779.88" y="-137.9" font-family="Cascadia Code" font-size="8.00"># samples/branching2.lua 24,9:24,11</text>
<text text-anchor="start" x="779.88" y="-128.15" font-family="Cascadia Code" font-size="8.00">t₅₆ = 10</text>
<text text-anchor="start" x="779.88" y="-118.4" font-family="Cascadia Code" font-size="8.00"># samples/branching2.lua 24,5:24,11</text>
<text text-anchor="start" x="779.88" y="-108.65" font-family="Cascadia Code" font-size="8.00">L_EF476D_b₁₇ = t₅₆</text>
<text text-anchor="start" x="779.88" y="-98.9" font-family="Cascadia Code" font-size="8.00">br BB17</text>
</g>
<!-- BB14&#45;&gt;BB16 -->
<g id="edge16" class="edge">
<title>BB14&#45;&gt;BB16</title>
<path fill="none" stroke="black" d="M836.49,-258.3C838.75,-248.84 841.12,-238.93 843.45,-229.15"/>
<polygon fill="black" stroke="black" points="846.8,-230.2 845.72,-219.66 839.99,-228.58 846.8,-230.2"/>
</g>
<!-- BB15&#45;&gt;BB17 -->
<g id="edge24" class="edge">
<title>BB15&#45;&gt;BB17</title>
<path fill="none" stroke="black" d="M599.26,-111.8C574.88,-96.02 547.56,-78.34 524.49,-63.42"/>
<polygon fill="black" stroke="black" points="526.45,-60.52 516.15,-58.02 522.65,-66.39 526.45,-60.52"/>
</g>
<!-- BB16&#45;&gt;BB17 -->
<g id="edge25" class="edge">
<title>BB16&#45;&gt;BB17</title>
<path fill="none" stroke="black" d="M771.54,-96.51C768.65,-95.19 765.76,-93.93 762.88,-92.75 729.79,-79.25 693.37,-68.42 657.82,-59.81"/>
<polygon fill="black" stroke="black" points="658.83,-56.45 648.29,-57.55 657.21,-63.26 658.83,-56.45"/>
</g>
</g>
</svg>
