<?xml version="1.0" encoding="UTF-8" standalone="no"?>
<!DOCTYPE svg PUBLIC "-//W3C//DTD SVG 1.1//EN"
 "http://www.w3.org/Graphics/SVG/1.1/DTD/svg11.dtd">
<!-- Generated by graphviz version 9.0.0 (0)
 -->
<!-- Pages: 1 -->
<svg width="698pt" height="723pt"
 viewBox="0.00 0.00 697.75 722.75" xmlns="http://www.w3.org/2000/svg" xmlns:xlink="http://www.w3.org/1999/xlink">
<g id="graph0" class="graph" transform="scale(1 1) rotate(0) translate(4 718.75)">
<polygon fill="white" stroke="none" points="-4,4 -4,-718.75 693.75,-718.75 693.75,4 -4,4"/>
<!-- BB0 -->
<g id="node1" class="node">
<title>BB0</title>
<polygon fill="#efefef" stroke="black" points="169,-714.75 4.5,-714.75 4.5,-677.5 169,-677.5 169,-714.75"/>
<text text-anchor="middle" x="86.75" y="-703.15" font-family="Cascadia Code" font-size="8.00">BB0:</text>
<text text-anchor="start" x="12.5" y="-693.4" font-family="Cascadia Code" font-size="8.00"># samples/branching2.lua 2,4:2,14</text>
<text text-anchor="start" x="12.5" y="-683.65" font-family="Cascadia Code" font-size="8.00">br BB2</text>
</g>
<!-- BB2 -->
<g id="node3" class="node">
<title>BB2</title>
<polygon fill="#efefef" stroke="black" points="169,-641.5 4.5,-641.5 4.5,-604.25 169,-604.25 169,-641.5"/>
<text text-anchor="middle" x="86.75" y="-629.9" font-family="Cascadia Code" font-size="8.00">BB2:</text>
<text text-anchor="start" x="12.5" y="-620.15" font-family="Cascadia Code" font-size="8.00"># samples/branching2.lua 5,8:5,18</text>
<text text-anchor="start" x="12.5" y="-610.4" font-family="Cascadia Code" font-size="8.00">br BB4</text>
</g>
<!-- BB0&#45;&gt;BB2 -->
<g id="edge1" class="edge">
<title>BB0&#45;&gt;BB2</title>
<path fill="none" stroke="black" d="M86.75,-677.15C86.75,-669.83 86.75,-661.19 86.75,-653.02"/>
<polygon fill="black" stroke="black" points="90.25,-653.12 86.75,-643.12 83.25,-653.12 90.25,-653.12"/>
</g>
<!-- BB1 -->
<g id="node2" class="node">
<title>BB1</title>
<polygon fill="#efefef" stroke="black" points="185.75,-128.75 131.75,-128.75 131.75,-92.75 185.75,-92.75 185.75,-128.75"/>
<text text-anchor="middle" x="158.75" y="-112.9" font-family="Cascadia Code" font-size="8.00">BB1:</text>
<text text-anchor="start" x="139.75" y="-103.15" font-family="Cascadia Code" font-size="8.00">br BB17</text>
</g>
<!-- BB17 -->
<g id="node18" class="node">
<title>BB17</title>
<polygon fill="#efefef" stroke="black" points="650.88,-56.75 98.62,-56.75 98.62,0 650.88,0 650.88,-56.75"/>
<text text-anchor="middle" x="374.75" y="-45.15" font-family="Cascadia Code" font-size="8.00">BB17:</text>
<text text-anchor="start" x="106.62" y="-35.4" font-family="Cascadia Code" font-size="8.00">L_EF627A_a₂₇ = ϕ([BB1: 3], [BB3: 4], [BB5: 5], [BB7: 6], [BB9: 7], [BB11: 8], [BB13: 9], [BB15: 10], [BB16: 11])</text>
<text text-anchor="start" x="106.62" y="-25.65" font-family="Cascadia Code" font-size="8.00">L_EF627A_b₁₈ = ϕ([BB1: 2], [BB3: nil], [BB5: 4], [BB7: nil], [BB9: 6], [BB11: nil], [BB13: 8], [BB15: nil], [BB16: 10])</text>
<text text-anchor="start" x="106.62" y="-15.9" font-family="Cascadia Code" font-size="8.00"># samples/branching2.lua 26,1:26,12</text>
<text text-anchor="start" x="106.62" y="-6.15" font-family="Cascadia Code" font-size="8.00">t₅₇ = $print(L_EF627A_a₂₇, L_EF627A_b₁₈)</text>
</g>
<!-- BB1&#45;&gt;BB17 -->
<g id="edge9" class="edge">
<title>BB1&#45;&gt;BB17</title>
<path fill="none" stroke="black" d="M186.14,-96.46C189.03,-95.17 191.94,-93.91 194.75,-92.75 221.94,-81.58 251.9,-70.54 279.45,-60.88"/>
<polygon fill="black" stroke="black" points="280.56,-64.2 288.85,-57.61 278.26,-57.59 280.56,-64.2"/>
</g>
<!-- BB4 -->
<g id="node5" class="node">
<title>BB4</title>
<polygon fill="#efefef" stroke="black" points="169,-568.25 4.5,-568.25 4.5,-531 169,-531 169,-568.25"/>
<text text-anchor="middle" x="86.75" y="-556.65" font-family="Cascadia Code" font-size="8.00">BB4:</text>
<text text-anchor="start" x="12.5" y="-546.9" font-family="Cascadia Code" font-size="8.00"># samples/branching2.lua 7,8:7,18</text>
<text text-anchor="start" x="12.5" y="-537.15" font-family="Cascadia Code" font-size="8.00">br BB6</text>
</g>
<!-- BB2&#45;&gt;BB4 -->
<g id="edge2" class="edge">
<title>BB2&#45;&gt;BB4</title>
<path fill="none" stroke="black" d="M86.75,-603.9C86.75,-596.58 86.75,-587.94 86.75,-579.77"/>
<polygon fill="black" stroke="black" points="90.25,-579.87 86.75,-569.87 83.25,-579.87 90.25,-579.87"/>
</g>
<!-- BB3 -->
<g id="node4" class="node">
<title>BB3</title>
<polygon fill="#efefef" stroke="black" points="257.75,-128.75 203.75,-128.75 203.75,-92.75 257.75,-92.75 257.75,-128.75"/>
<text text-anchor="middle" x="230.75" y="-112.9" font-family="Cascadia Code" font-size="8.00">BB3:</text>
<text text-anchor="start" x="211.75" y="-103.15" font-family="Cascadia Code" font-size="8.00">br BB17</text>
</g>
<!-- BB3&#45;&gt;BB17 -->
<g id="edge10" class="edge">
<title>BB3&#45;&gt;BB17</title>
<path fill="none" stroke="black" d="M258.17,-94.44C274.3,-85.44 295.34,-73.7 315.11,-62.67"/>
<polygon fill="black" stroke="black" points="316.64,-65.82 323.66,-57.89 313.23,-59.71 316.64,-65.82"/>
</g>
<!-- BB6 -->
<g id="node7" class="node">
<title>BB6</title>
<polygon fill="#efefef" stroke="black" points="173.5,-495 0,-495 0,-457.75 173.5,-457.75 173.5,-495"/>
<text text-anchor="middle" x="86.75" y="-483.4" font-family="Cascadia Code" font-size="8.00">BB6:</text>
<text text-anchor="start" x="8" y="-473.65" font-family="Cascadia Code" font-size="8.00"># samples/branching2.lua 10,8:10,18</text>
<text text-anchor="start" x="8" y="-463.9" font-family="Cascadia Code" font-size="8.00">br BB8</text>
</g>
<!-- BB4&#45;&gt;BB6 -->
<g id="edge3" class="edge">
<title>BB4&#45;&gt;BB6</title>
<path fill="none" stroke="black" d="M86.75,-530.65C86.75,-523.33 86.75,-514.69 86.75,-506.52"/>
<polygon fill="black" stroke="black" points="90.25,-506.62 86.75,-496.62 83.25,-506.62 90.25,-506.62"/>
</g>
<!-- BB5 -->
<g id="node6" class="node">
<title>BB5</title>
<polygon fill="#efefef" stroke="black" points="329.75,-128.75 275.75,-128.75 275.75,-92.75 329.75,-92.75 329.75,-128.75"/>
<text text-anchor="middle" x="302.75" y="-112.9" font-family="Cascadia Code" font-size="8.00">BB5:</text>
<text text-anchor="start" x="283.75" y="-103.15" font-family="Cascadia Code" font-size="8.00">br BB17</text>
</g>
<!-- BB5&#45;&gt;BB17 -->
<g id="edge11" class="edge">
<title>BB5&#45;&gt;BB17</title>
<path fill="none" stroke="black" d="M318.37,-92.31C325.4,-84.46 333.98,-74.89 342.3,-65.6"/>
<polygon fill="black" stroke="black" points="344.74,-68.12 348.81,-58.34 339.53,-63.45 344.74,-68.12"/>
</g>
<!-- BB8 -->
<g id="node9" class="node">
<title>BB8</title>
<polygon fill="#efefef" stroke="black" points="173.5,-421.75 0,-421.75 0,-384.5 173.5,-384.5 173.5,-421.75"/>
<text text-anchor="middle" x="86.75" y="-410.15" font-family="Cascadia Code" font-size="8.00">BB8:</text>
<text text-anchor="start" x="8" y="-400.4" font-family="Cascadia Code" font-size="8.00"># samples/branching2.lua 12,8:12,18</text>
<text text-anchor="start" x="8" y="-390.65" font-family="Cascadia Code" font-size="8.00">br BB10</text>
</g>
<!-- BB6&#45;&gt;BB8 -->
<g id="edge4" class="edge">
<title>BB6&#45;&gt;BB8</title>
<path fill="none" stroke="black" d="M86.75,-457.4C86.75,-450.08 86.75,-441.44 86.75,-433.27"/>
<polygon fill="black" stroke="black" points="90.25,-433.37 86.75,-423.37 83.25,-433.37 90.25,-433.37"/>
</g>
<!-- BB7 -->
<g id="node8" class="node">
<title>BB7</title>
<polygon fill="#efefef" stroke="black" points="401.75,-128.75 347.75,-128.75 347.75,-92.75 401.75,-92.75 401.75,-128.75"/>
<text text-anchor="middle" x="374.75" y="-112.9" font-family="Cascadia Code" font-size="8.00">BB7:</text>
<text text-anchor="start" x="355.75" y="-103.15" font-family="Cascadia Code" font-size="8.00">br BB17</text>
</g>
<!-- BB7&#45;&gt;BB17 -->
<g id="edge12" class="edge">
<title>BB7&#45;&gt;BB17</title>
<path fill="none" stroke="black" d="M374.75,-92.31C374.75,-85.26 374.75,-76.83 374.75,-68.45"/>
<polygon fill="black" stroke="black" points="378.25,-68.72 374.75,-58.72 371.25,-68.72 378.25,-68.72"/>
</g>
<!-- BB10 -->
<g id="node11" class="node">
<title>BB10</title>
<polygon fill="#efefef" stroke="black" points="173.5,-348.5 0,-348.5 0,-311.25 173.5,-311.25 173.5,-348.5"/>
<text text-anchor="middle" x="86.75" y="-336.9" font-family="Cascadia Code" font-size="8.00">BB10:</text>
<text text-anchor="start" x="8" y="-327.15" font-family="Cascadia Code" font-size="8.00"># samples/branching2.lua 15,8:15,18</text>
<text text-anchor="start" x="8" y="-317.4" font-family="Cascadia Code" font-size="8.00">br BB12</text>
</g>
<!-- BB8&#45;&gt;BB10 -->
<g id="edge5" class="edge">
<title>BB8&#45;&gt;BB10</title>
<path fill="none" stroke="black" d="M86.75,-384.15C86.75,-376.83 86.75,-368.19 86.75,-360.02"/>
<polygon fill="black" stroke="black" points="90.25,-360.12 86.75,-350.12 83.25,-360.12 90.25,-360.12"/>
</g>
<!-- BB9 -->
<g id="node10" class="node">
<title>BB9</title>
<polygon fill="#efefef" stroke="black" points="473.75,-128.75 419.75,-128.75 419.75,-92.75 473.75,-92.75 473.75,-128.75"/>
<text text-anchor="middle" x="446.75" y="-112.9" font-family="Cascadia Code" font-size="8.00">BB9:</text>
<text text-anchor="start" x="427.75" y="-103.15" font-family="Cascadia Code" font-size="8.00">br BB17</text>
</g>
<!-- BB9&#45;&gt;BB17 -->
<g id="edge13" class="edge">
<title>BB9&#45;&gt;BB17</title>
<path fill="none" stroke="black" d="M431.13,-92.31C424.1,-84.46 415.52,-74.89 407.2,-65.6"/>
<polygon fill="black" stroke="black" points="409.97,-63.45 400.69,-58.34 404.76,-68.12 409.97,-63.45"/>
</g>
<!-- BB12 -->
<g id="node13" class="node">
<title>BB12</title>
<polygon fill="#efefef" stroke="black" points="173.5,-275.25 0,-275.25 0,-238 173.5,-238 173.5,-275.25"/>
<text text-anchor="middle" x="86.75" y="-263.65" font-family="Cascadia Code" font-size="8.00">BB12:</text>
<text text-anchor="start" x="8" y="-253.9" font-family="Cascadia Code" font-size="8.00"># samples/branching2.lua 17,8:17,18</text>
<text text-anchor="start" x="8" y="-244.15" font-family="Cascadia Code" font-size="8.00">br BB14</text>
</g>
<!-- BB10&#45;&gt;BB12 -->
<g id="edge6" class="edge">
<title>BB10&#45;&gt;BB12</title>
<path fill="none" stroke="black" d="M86.75,-310.9C86.75,-303.58 86.75,-294.94 86.75,-286.77"/>
<polygon fill="black" stroke="black" points="90.25,-286.87 86.75,-276.87 83.25,-286.87 90.25,-286.87"/>
</g>
<!-- BB11 -->
<g id="node12" class="node">
<title>BB11</title>
<polygon fill="#efefef" stroke="black" points="545.75,-128.75 491.75,-128.75 491.75,-92.75 545.75,-92.75 545.75,-128.75"/>
<text text-anchor="middle" x="518.75" y="-112.9" font-family="Cascadia Code" font-size="8.00">BB11:</text>
<text text-anchor="start" x="499.75" y="-103.15" font-family="Cascadia Code" font-size="8.00">br BB17</text>
</g>
<!-- BB11&#45;&gt;BB17 -->
<g id="edge14" class="edge">
<title>BB11&#45;&gt;BB17</title>
<path fill="none" stroke="black" d="M491.33,-94.44C475.2,-85.44 454.16,-73.7 434.39,-62.67"/>
<polygon fill="black" stroke="black" points="436.27,-59.71 425.84,-57.89 432.86,-65.82 436.27,-59.71"/>
</g>
<!-- BB14 -->
<g id="node15" class="node">
<title>BB14</title>
<polygon fill="#efefef" stroke="black" points="173.5,-202 0,-202 0,-164.75 173.5,-164.75 173.5,-202"/>
<text text-anchor="middle" x="86.75" y="-190.4" font-family="Cascadia Code" font-size="8.00">BB14:</text>
<text text-anchor="start" x="8" y="-180.65" font-family="Cascadia Code" font-size="8.00"># samples/branching2.lua 20,8:20,18</text>
<text text-anchor="start" x="8" y="-170.9" font-family="Cascadia Code" font-size="8.00">br BB16</text>
</g>
<!-- BB12&#45;&gt;BB14 -->
<g id="edge7" class="edge">
<title>BB12&#45;&gt;BB14</title>
<path fill="none" stroke="black" d="M86.75,-237.65C86.75,-230.33 86.75,-221.69 86.75,-213.52"/>
<polygon fill="black" stroke="black" points="90.25,-213.62 86.75,-203.62 83.25,-213.62 90.25,-213.62"/>
</g>
<!-- BB13 -->
<g id="node14" class="node">
<title>BB13</title>
<polygon fill="#efefef" stroke="black" points="617.75,-128.75 563.75,-128.75 563.75,-92.75 617.75,-92.75 617.75,-128.75"/>
<text text-anchor="middle" x="590.75" y="-112.9" font-family="Cascadia Code" font-size="8.00">BB13:</text>
<text text-anchor="start" x="571.75" y="-103.15" font-family="Cascadia Code" font-size="8.00">br BB17</text>
</g>
<!-- BB13&#45;&gt;BB17 -->
<g id="edge15" class="edge">
<title>BB13&#45;&gt;BB17</title>
<path fill="none" stroke="black" d="M563.36,-96.46C560.47,-95.17 557.56,-93.91 554.75,-92.75 527.56,-81.58 497.6,-70.54 470.05,-60.88"/>
<polygon fill="black" stroke="black" points="471.24,-57.59 460.65,-57.61 468.94,-64.2 471.24,-57.59"/>
</g>
<!-- BB16 -->
<g id="node17" class="node">
<title>BB16</title>
<polygon fill="#efefef" stroke="black" points="113.75,-128.75 59.75,-128.75 59.75,-92.75 113.75,-92.75 113.75,-128.75"/>
<text text-anchor="middle" x="86.75" y="-112.9" font-family="Cascadia Code" font-size="8.00">BB16:</text>
<text text-anchor="start" x="67.75" y="-103.15" font-family="Cascadia Code" font-size="8.00">br BB17</text>
</g>
<!-- BB14&#45;&gt;BB16 -->
<g id="edge8" class="edge">
<title>BB14&#45;&gt;BB16</title>
<path fill="none" stroke="black" d="M86.75,-164.55C86.75,-157.2 86.75,-148.48 86.75,-140.28"/>
<polygon fill="black" stroke="black" points="90.25,-140.35 86.75,-130.35 83.25,-140.35 90.25,-140.35"/>
</g>
<!-- BB15 -->
<g id="node16" class="node">
<title>BB15</title>
<polygon fill="#efefef" stroke="black" points="689.75,-128.75 635.75,-128.75 635.75,-92.75 689.75,-92.75 689.75,-128.75"/>
<text text-anchor="middle" x="662.75" y="-112.9" font-family="Cascadia Code" font-size="8.00">BB15:</text>
<text text-anchor="start" x="643.75" y="-103.15" font-family="Cascadia Code" font-size="8.00">br BB17</text>
</g>
<!-- BB15&#45;&gt;BB17 -->
<g id="edge16" class="edge">
<title>BB15&#45;&gt;BB17</title>
<path fill="none" stroke="black" d="M635.47,-96.19C632.56,-94.95 629.61,-93.78 626.75,-92.75 591.72,-80.21 553.11,-69.17 516.86,-59.97"/>
<polygon fill="black" stroke="black" points="517.71,-56.58 507.16,-57.54 516.01,-63.37 517.71,-56.58"/>
</g>
<!-- BB16&#45;&gt;BB17 -->
<g id="edge17" class="edge">
<title>BB16&#45;&gt;BB17</title>
<path fill="none" stroke="black" d="M114.03,-96.19C116.94,-94.95 119.89,-93.78 122.75,-92.75 157.78,-80.21 196.39,-69.17 232.64,-59.97"/>
<polygon fill="black" stroke="black" points="233.49,-63.37 242.34,-57.54 231.79,-56.58 233.49,-63.37"/>
</g>
</g>
</svg>
