<?xml version="1.0" encoding="UTF-8" standalone="no"?>
<!DOCTYPE svg PUBLIC "-//W3C//DTD SVG 1.1//EN"
 "http://www.w3.org/Graphics/SVG/1.1/DTD/svg11.dtd">
<!-- Generated by graphviz version 10.0.1 (0)
 -->
<!-- Pages: 1 -->
<svg width="585pt" height="727pt"
 viewBox="0.00 0.00 585.00 727.25" xmlns="http://www.w3.org/2000/svg" xmlns:xlink="http://www.w3.org/1999/xlink">
<g id="graph0" class="graph" transform="scale(1 1) rotate(0) translate(4 723.25)">
<polygon fill="white" stroke="none" points="-4,4 -4,-723.25 581,-723.25 581,4 -4,4"/>
<!-- BB0 -->
<g id="node1" class="node">
<title>BB0</title>
<polygon fill="#efefef" stroke="black" points="250.5,-719.25 86,-719.25 86,-682 250.5,-682 250.5,-719.25"/>
<text text-anchor="middle" x="168.25" y="-707.65" font-family="Cascadia Code" font-size="8.00">BB0:</text>
<text text-anchor="start" x="94" y="-697.9" font-family="Cascadia Code" font-size="8.00"># samples/branching2.lua 2,4:2,14</text>
<text text-anchor="start" x="94" y="-688.15" font-family="Cascadia Code" font-size="8.00">br BB1 if False else BB2</text>
</g>
<!-- BB1 -->
<g id="node2" class="node">
<title>BB1</title>
<polygon fill="#efefef" stroke="black" points="132.25,-645.38 78.25,-645.38 78.25,-609.38 132.25,-609.38 132.25,-645.38"/>
<text text-anchor="middle" x="105.25" y="-629.52" font-family="Cascadia Code" font-size="8.00">BB1:</text>
<text text-anchor="start" x="86.25" y="-619.77" font-family="Cascadia Code" font-size="8.00">br BB17</text>
</g>
<!-- BB0&#45;&gt;BB1 -->
<g id="edge1" class="edge">
<title>BB0&#45;&gt;BB1</title>
<path fill="none" stroke="black" d="M152.35,-681.65C144.95,-673.27 136.01,-663.16 127.91,-654.01"/>
<polygon fill="black" stroke="black" points="130.74,-651.92 121.49,-646.75 125.5,-656.56 130.74,-651.92"/>
</g>
<!-- BB2 -->
<g id="node3" class="node">
<title>BB2</title>
<polygon fill="#efefef" stroke="black" points="314.5,-646 150,-646 150,-608.75 314.5,-608.75 314.5,-646"/>
<text text-anchor="middle" x="232.25" y="-634.4" font-family="Cascadia Code" font-size="8.00">BB2:</text>
<text text-anchor="start" x="158" y="-624.65" font-family="Cascadia Code" font-size="8.00"># samples/branching2.lua 5,8:5,18</text>
<text text-anchor="start" x="158" y="-614.9" font-family="Cascadia Code" font-size="8.00">br BB3 if False else BB4</text>
</g>
<!-- BB0&#45;&gt;BB2 -->
<g id="edge2" class="edge">
<title>BB0&#45;&gt;BB2</title>
<path fill="none" stroke="black" d="M184.4,-681.65C191.81,-673.4 200.73,-663.46 208.86,-654.42"/>
<polygon fill="black" stroke="black" points="211.24,-657.01 215.32,-647.23 206.03,-652.33 211.24,-657.01"/>
</g>
<!-- BB17 -->
<g id="node18" class="node">
<title>BB17</title>
<polygon fill="#efefef" stroke="black" points="530.5,-61.25 0,-61.25 0,0 530.5,0 530.5,-61.25"/>
<text text-anchor="middle" x="265.25" y="-49.65" font-family="Cascadia Code" font-size="8.00">BB17:</text>
<text text-anchor="start" x="8" y="-39.9" font-family="Cascadia Code" font-size="8.00">L_3_a₂₇ = ϕ([BB1: 3], [BB3: 4], [BB5: 5], [BB7: 6], [BB9: 7], [BB11: 8], [BB13: 9], [BB15: 10], [BB16: 11])</text>
<text text-anchor="start" x="8" y="-27.9" font-family="Cascadia Code" font-size="8.00">L_3_b₁₈ = ϕ([BB1: 2], [BB3: nil], [BB5: 4], [BB7: nil], [BB9: 6], [BB11: nil], [BB13: 8], [BB15: nil], [BB16: 10])</text>
<text text-anchor="start" x="8" y="-15.9" font-family="Cascadia Code" font-size="8.00"># samples/branching2.lua 26,1:26,12</text>
<text text-anchor="start" x="8" y="-6.15" font-family="Cascadia Code" font-size="8.00">t₅₇ = $print(L_3_a₂₇, L_3_b₁₈)</text>
</g>
<!-- BB1&#45;&gt;BB17 -->
<g id="edge17" class="edge">
<title>BB1&#45;&gt;BB17</title>
<path fill="none" stroke="black" d="M105.25,-609.03C105.25,-581.9 105.25,-527.78 105.25,-481.88 105.25,-481.88 105.25,-481.88 105.25,-186.88 105.25,-134.45 150.04,-94.04 192.23,-67.61"/>
<polygon fill="black" stroke="black" points="193.97,-70.64 200.72,-62.47 190.35,-64.65 193.97,-70.64"/>
</g>
<!-- BB3 -->
<g id="node4" class="node">
<title>BB3</title>
<polygon fill="#efefef" stroke="black" points="187.25,-572.12 133.25,-572.12 133.25,-536.12 187.25,-536.12 187.25,-572.12"/>
<text text-anchor="middle" x="160.25" y="-556.27" font-family="Cascadia Code" font-size="8.00">BB3:</text>
<text text-anchor="start" x="141.25" y="-546.52" font-family="Cascadia Code" font-size="8.00">br BB17</text>
</g>
<!-- BB2&#45;&gt;BB3 -->
<g id="edge3" class="edge">
<title>BB2&#45;&gt;BB3</title>
<path fill="none" stroke="black" d="M214.08,-608.4C205.45,-599.85 194.98,-589.49 185.58,-580.19"/>
<polygon fill="black" stroke="black" points="188.31,-577.97 178.74,-573.43 183.39,-582.95 188.31,-577.97"/>
</g>
<!-- BB4 -->
<g id="node5" class="node">
<title>BB4</title>
<polygon fill="#efefef" stroke="black" points="369.5,-572.75 205,-572.75 205,-535.5 369.5,-535.5 369.5,-572.75"/>
<text text-anchor="middle" x="287.25" y="-561.15" font-family="Cascadia Code" font-size="8.00">BB4:</text>
<text text-anchor="start" x="213" y="-551.4" font-family="Cascadia Code" font-size="8.00"># samples/branching2.lua 7,8:7,18</text>
<text text-anchor="start" x="213" y="-541.65" font-family="Cascadia Code" font-size="8.00">br BB5 if False else BB6</text>
</g>
<!-- BB2&#45;&gt;BB4 -->
<g id="edge4" class="edge">
<title>BB2&#45;&gt;BB4</title>
<path fill="none" stroke="black" d="M246.13,-608.4C252.36,-600.32 259.85,-590.62 266.71,-581.73"/>
<polygon fill="black" stroke="black" points="269.3,-584.1 272.64,-574.05 263.76,-579.83 269.3,-584.1"/>
</g>
<!-- BB3&#45;&gt;BB17 -->
<g id="edge18" class="edge">
<title>BB3&#45;&gt;BB17</title>
<path fill="none" stroke="black" d="M158.47,-535.8C155.85,-508.7 151.25,-454.62 151.25,-408.62 151.25,-408.62 151.25,-408.62 151.25,-186.88 151.25,-139.76 185.79,-97.47 216.84,-68.98"/>
<polygon fill="black" stroke="black" points="218.78,-71.94 223.93,-62.68 214.13,-66.71 218.78,-71.94"/>
</g>
<!-- BB5 -->
<g id="node6" class="node">
<title>BB5</title>
<polygon fill="#efefef" stroke="black" points="233.25,-498.88 179.25,-498.88 179.25,-462.88 233.25,-462.88 233.25,-498.88"/>
<text text-anchor="middle" x="206.25" y="-483.02" font-family="Cascadia Code" font-size="8.00">BB5:</text>
<text text-anchor="start" x="187.25" y="-473.27" font-family="Cascadia Code" font-size="8.00">br BB17</text>
</g>
<!-- BB4&#45;&gt;BB5 -->
<g id="edge5" class="edge">
<title>BB4&#45;&gt;BB5</title>
<path fill="none" stroke="black" d="M266.81,-535.15C257.07,-526.58 245.26,-516.19 234.67,-506.87"/>
<polygon fill="black" stroke="black" points="237.08,-504.33 227.26,-500.36 232.46,-509.59 237.08,-504.33"/>
</g>
<!-- BB6 -->
<g id="node7" class="node">
<title>BB6</title>
<polygon fill="#efefef" stroke="black" points="425,-499.5 251.5,-499.5 251.5,-462.25 425,-462.25 425,-499.5"/>
<text text-anchor="middle" x="338.25" y="-487.9" font-family="Cascadia Code" font-size="8.00">BB6:</text>
<text text-anchor="start" x="259.5" y="-478.15" font-family="Cascadia Code" font-size="8.00"># samples/branching2.lua 10,8:10,18</text>
<text text-anchor="start" x="259.5" y="-468.4" font-family="Cascadia Code" font-size="8.00">br BB7 if False else BB8</text>
</g>
<!-- BB4&#45;&gt;BB6 -->
<g id="edge6" class="edge">
<title>BB4&#45;&gt;BB6</title>
<path fill="none" stroke="black" d="M300.12,-535.15C305.84,-527.15 312.7,-517.58 319.01,-508.76"/>
<polygon fill="black" stroke="black" points="321.71,-511 324.68,-500.83 316.01,-506.93 321.71,-511"/>
</g>
<!-- BB5&#45;&gt;BB17 -->
<g id="edge19" class="edge">
<title>BB5&#45;&gt;BB17</title>
<path fill="none" stroke="black" d="M202.89,-462.6C197.94,-435.58 189.25,-381.6 189.25,-335.38 189.25,-335.38 189.25,-335.38 189.25,-186.88 189.25,-144.09 212.82,-100.81 233.71,-70.85"/>
<polygon fill="black" stroke="black" points="236.48,-73 239.48,-62.84 230.8,-68.91 236.48,-73"/>
</g>
<!-- BB7 -->
<g id="node8" class="node">
<title>BB7</title>
<polygon fill="#efefef" stroke="black" points="271.25,-425.62 217.25,-425.62 217.25,-389.62 271.25,-389.62 271.25,-425.62"/>
<text text-anchor="middle" x="244.25" y="-409.77" font-family="Cascadia Code" font-size="8.00">BB7:</text>
<text text-anchor="start" x="225.25" y="-400.02" font-family="Cascadia Code" font-size="8.00">br BB17</text>
</g>
<!-- BB6&#45;&gt;BB7 -->
<g id="edge7" class="edge">
<title>BB6&#45;&gt;BB7</title>
<path fill="none" stroke="black" d="M314.53,-461.9C302.89,-453.07 288.7,-442.32 276.12,-432.78"/>
<polygon fill="black" stroke="black" points="278.6,-430.27 268.52,-427.02 274.37,-435.85 278.6,-430.27"/>
</g>
<!-- BB8 -->
<g id="node9" class="node">
<title>BB8</title>
<polygon fill="#efefef" stroke="black" points="463,-426.25 289.5,-426.25 289.5,-389 463,-389 463,-426.25"/>
<text text-anchor="middle" x="376.25" y="-414.65" font-family="Cascadia Code" font-size="8.00">BB8:</text>
<text text-anchor="start" x="297.5" y="-404.9" font-family="Cascadia Code" font-size="8.00"># samples/branching2.lua 12,8:12,18</text>
<text text-anchor="start" x="297.5" y="-395.15" font-family="Cascadia Code" font-size="8.00">br BB9 if False else BB10</text>
</g>
<!-- BB6&#45;&gt;BB8 -->
<g id="edge8" class="edge">
<title>BB6&#45;&gt;BB8</title>
<path fill="none" stroke="black" d="M347.84,-461.9C351.97,-454.16 356.88,-444.94 361.46,-436.36"/>
<polygon fill="black" stroke="black" points="364.47,-438.16 366.08,-427.69 358.29,-434.86 364.47,-438.16"/>
</g>
<!-- BB7&#45;&gt;BB17 -->
<g id="edge20" class="edge">
<title>BB7&#45;&gt;BB17</title>
<path fill="none" stroke="black" d="M240.89,-389.35C235.94,-362.33 227.25,-308.35 227.25,-262.12 227.25,-262.12 227.25,-262.12 227.25,-186.88 227.25,-147.21 239.1,-103.44 249.56,-72.51"/>
<polygon fill="black" stroke="black" points="252.84,-73.75 252.83,-63.16 246.23,-71.44 252.84,-73.75"/>
</g>
<!-- BB9 -->
<g id="node10" class="node">
<title>BB9</title>
<polygon fill="#efefef" stroke="black" points="309.25,-352.38 255.25,-352.38 255.25,-316.38 309.25,-316.38 309.25,-352.38"/>
<text text-anchor="middle" x="282.25" y="-336.52" font-family="Cascadia Code" font-size="8.00">BB9:</text>
<text text-anchor="start" x="263.25" y="-326.77" font-family="Cascadia Code" font-size="8.00">br BB17</text>
</g>
<!-- BB8&#45;&gt;BB9 -->
<g id="edge9" class="edge">
<title>BB8&#45;&gt;BB9</title>
<path fill="none" stroke="black" d="M352.53,-388.65C340.89,-379.82 326.7,-369.07 314.12,-359.53"/>
<polygon fill="black" stroke="black" points="316.6,-357.02 306.52,-353.77 312.37,-362.6 316.6,-357.02"/>
</g>
<!-- BB10 -->
<g id="node11" class="node">
<title>BB10</title>
<polygon fill="#efefef" stroke="black" points="501,-353 327.5,-353 327.5,-315.75 501,-315.75 501,-353"/>
<text text-anchor="middle" x="414.25" y="-341.4" font-family="Cascadia Code" font-size="8.00">BB10:</text>
<text text-anchor="start" x="335.5" y="-331.65" font-family="Cascadia Code" font-size="8.00"># samples/branching2.lua 15,8:15,18</text>
<text text-anchor="start" x="335.5" y="-321.9" font-family="Cascadia Code" font-size="8.00">br BB11 if False else BB12</text>
</g>
<!-- BB8&#45;&gt;BB10 -->
<g id="edge10" class="edge">
<title>BB8&#45;&gt;BB10</title>
<path fill="none" stroke="black" d="M385.84,-388.65C389.97,-380.91 394.88,-371.69 399.46,-363.11"/>
<polygon fill="black" stroke="black" points="402.47,-364.91 404.08,-354.44 396.29,-361.61 402.47,-364.91"/>
</g>
<!-- BB9&#45;&gt;BB17 -->
<g id="edge21" class="edge">
<title>BB9&#45;&gt;BB17</title>
<path fill="none" stroke="black" d="M281.29,-316.29C278.67,-269.83 271.37,-140.22 267.59,-73.09"/>
<polygon fill="black" stroke="black" points="271.09,-73.01 267.03,-63.22 264.1,-73.4 271.09,-73.01"/>
</g>
<!-- BB11 -->
<g id="node12" class="node">
<title>BB11</title>
<polygon fill="#efefef" stroke="black" points="347.25,-279.12 293.25,-279.12 293.25,-243.12 347.25,-243.12 347.25,-279.12"/>
<text text-anchor="middle" x="320.25" y="-263.27" font-family="Cascadia Code" font-size="8.00">BB11:</text>
<text text-anchor="start" x="301.25" y="-253.53" font-family="Cascadia Code" font-size="8.00">br BB17</text>
</g>
<!-- BB10&#45;&gt;BB11 -->
<g id="edge11" class="edge">
<title>BB10&#45;&gt;BB11</title>
<path fill="none" stroke="black" d="M390.53,-315.4C378.89,-306.57 364.7,-295.82 352.12,-286.28"/>
<polygon fill="black" stroke="black" points="354.6,-283.77 344.52,-280.52 350.37,-289.35 354.6,-283.77"/>
</g>
<!-- BB12 -->
<g id="node13" class="node">
<title>BB12</title>
<polygon fill="#efefef" stroke="black" points="539,-279.75 365.5,-279.75 365.5,-242.5 539,-242.5 539,-279.75"/>
<text text-anchor="middle" x="452.25" y="-268.15" font-family="Cascadia Code" font-size="8.00">BB12:</text>
<text text-anchor="start" x="373.5" y="-258.4" font-family="Cascadia Code" font-size="8.00"># samples/branching2.lua 17,8:17,18</text>
<text text-anchor="start" x="373.5" y="-248.65" font-family="Cascadia Code" font-size="8.00">br BB13 if False else BB14</text>
</g>
<!-- BB10&#45;&gt;BB12 -->
<g id="edge12" class="edge">
<title>BB10&#45;&gt;BB12</title>
<path fill="none" stroke="black" d="M423.84,-315.4C427.97,-307.66 432.88,-298.44 437.46,-289.86"/>
<polygon fill="black" stroke="black" points="440.47,-291.66 442.08,-281.19 434.29,-288.36 440.47,-291.66"/>
</g>
<!-- BB11&#45;&gt;BB17 -->
<g id="edge22" class="edge">
<title>BB11&#45;&gt;BB17</title>
<path fill="none" stroke="black" d="M316.12,-242.95C307.48,-207.06 287.3,-123.23 275.11,-72.61"/>
<polygon fill="black" stroke="black" points="278.59,-72.1 272.85,-63.2 271.79,-73.74 278.59,-72.1"/>
</g>
<!-- BB13 -->
<g id="node14" class="node">
<title>BB13</title>
<polygon fill="#efefef" stroke="black" points="385.25,-205.88 331.25,-205.88 331.25,-169.88 385.25,-169.88 385.25,-205.88"/>
<text text-anchor="middle" x="358.25" y="-190.03" font-family="Cascadia Code" font-size="8.00">BB13:</text>
<text text-anchor="start" x="339.25" y="-180.28" font-family="Cascadia Code" font-size="8.00">br BB17</text>
</g>
<!-- BB12&#45;&gt;BB13 -->
<g id="edge13" class="edge">
<title>BB12&#45;&gt;BB13</title>
<path fill="none" stroke="black" d="M428.53,-242.15C416.89,-233.32 402.7,-222.57 390.12,-213.03"/>
<polygon fill="black" stroke="black" points="392.6,-210.52 382.52,-207.27 388.37,-216.1 392.6,-210.52"/>
</g>
<!-- BB14 -->
<g id="node15" class="node">
<title>BB14</title>
<polygon fill="#efefef" stroke="black" points="577,-206.5 403.5,-206.5 403.5,-169.25 577,-169.25 577,-206.5"/>
<text text-anchor="middle" x="490.25" y="-194.9" font-family="Cascadia Code" font-size="8.00">BB14:</text>
<text text-anchor="start" x="411.5" y="-185.15" font-family="Cascadia Code" font-size="8.00"># samples/branching2.lua 20,8:20,18</text>
<text text-anchor="start" x="411.5" y="-175.4" font-family="Cascadia Code" font-size="8.00">br BB15 if False else BB16</text>
</g>
<!-- BB12&#45;&gt;BB14 -->
<g id="edge14" class="edge">
<title>BB12&#45;&gt;BB14</title>
<path fill="none" stroke="black" d="M461.84,-242.15C465.97,-234.41 470.88,-225.19 475.46,-216.61"/>
<polygon fill="black" stroke="black" points="478.47,-218.41 480.08,-207.94 472.29,-215.11 478.47,-218.41"/>
</g>
<!-- BB13&#45;&gt;BB17 -->
<g id="edge23" class="edge">
<title>BB13&#45;&gt;BB17</title>
<path fill="none" stroke="black" d="M351.72,-169.4C344.46,-150.87 331.82,-121.03 317.25,-97.25 311.73,-88.24 305.15,-79.05 298.56,-70.52"/>
<polygon fill="black" stroke="black" points="301.35,-68.4 292.39,-62.74 295.86,-72.75 301.35,-68.4"/>
</g>
<!-- BB15 -->
<g id="node16" class="node">
<title>BB15</title>
<polygon fill="#efefef" stroke="black" points="438.25,-133.25 384.25,-133.25 384.25,-97.25 438.25,-97.25 438.25,-133.25"/>
<text text-anchor="middle" x="411.25" y="-117.4" font-family="Cascadia Code" font-size="8.00">BB15:</text>
<text text-anchor="start" x="392.25" y="-107.65" font-family="Cascadia Code" font-size="8.00">br BB17</text>
</g>
<!-- BB14&#45;&gt;BB15 -->
<g id="edge15" class="edge">
<title>BB14&#45;&gt;BB15</title>
<path fill="none" stroke="black" d="M470.31,-169.05C460.82,-160.56 449.3,-150.26 438.96,-141.03"/>
<polygon fill="black" stroke="black" points="441.55,-138.64 431.76,-134.59 436.88,-143.86 441.55,-138.64"/>
</g>
<!-- BB16 -->
<g id="node17" class="node">
<title>BB16</title>
<polygon fill="#efefef" stroke="black" points="513.25,-133.25 459.25,-133.25 459.25,-97.25 513.25,-97.25 513.25,-133.25"/>
<text text-anchor="middle" x="486.25" y="-117.4" font-family="Cascadia Code" font-size="8.00">BB16:</text>
<text text-anchor="start" x="467.25" y="-107.65" font-family="Cascadia Code" font-size="8.00">br BB17</text>
</g>
<!-- BB14&#45;&gt;BB16 -->
<g id="edge16" class="edge">
<title>BB14&#45;&gt;BB16</title>
<path fill="none" stroke="black" d="M489.24,-169.05C488.82,-161.7 488.33,-152.98 487.87,-144.78"/>
<polygon fill="black" stroke="black" points="491.36,-144.63 487.3,-134.85 484.37,-145.03 491.36,-144.63"/>
</g>
<!-- BB15&#45;&gt;BB17 -->
<g id="edge24" class="edge">
<title>BB15&#45;&gt;BB17</title>
<path fill="none" stroke="black" d="M383.79,-98.71C368.03,-89.79 347.56,-78.21 328.07,-67.18"/>
<polygon fill="black" stroke="black" points="330.05,-64.28 319.63,-62.4 326.61,-70.37 330.05,-64.28"/>
</g>
<!-- BB16&#45;&gt;BB17 -->
<g id="edge25" class="edge">
<title>BB16&#45;&gt;BB17</title>
<path fill="none" stroke="black" d="M459.07,-102.13C455.12,-100.45 451.09,-98.78 447.25,-97.25 420.11,-86.46 390.41,-75.42 363.02,-65.56"/>
<polygon fill="black" stroke="black" points="364.26,-62.29 353.67,-62.21 361.9,-68.88 364.26,-62.29"/>
</g>
</g>
</svg>
