<?xml version="1.0" encoding="UTF-8" standalone="no"?>
<!DOCTYPE svg PUBLIC "-//W3C//DTD SVG 1.1//EN"
 "http://www.w3.org/Graphics/SVG/1.1/DTD/svg11.dtd">
<!-- Generated by graphviz version 9.0.0 (0)
 -->
<!-- Pages: 1 -->
<svg width="270pt" height="352pt"
 viewBox="0.00 0.00 269.88 351.50" xmlns="http://www.w3.org/2000/svg" xmlns:xlink="http://www.w3.org/1999/xlink">
<g id="graph0" class="graph" transform="scale(1 1) rotate(0) translate(4 347.5)">
<polygon fill="white" stroke="none" points="-4,4 -4,-347.5 265.88,-347.5 265.88,4 -4,4"/>
<!-- BB0 -->
<g id="node1" class="node">
<title>BB0</title>
<polygon fill="#efefef" stroke="black" points="198.88,-343.5 38.88,-343.5 38.88,-267.25 198.88,-267.25 198.88,-343.5"/>
<text text-anchor="middle" x="118.88" y="-331.9" font-family="Cascadia Code" font-size="8.00">BB0:</text>
<text text-anchor="start" x="46.88" y="-322.15" font-family="Cascadia Code" font-size="8.00"># samples/branching.lua 3,4:3,9</text>
<text text-anchor="start" x="46.88" y="-312.4" font-family="Cascadia Code" font-size="8.00">t₂ = mod nil, 2</text>
<text text-anchor="start" x="46.88" y="-302.65" font-family="Cascadia Code" font-size="8.00"># samples/branching.lua 3,4:3,14</text>
<text text-anchor="start" x="46.88" y="-292.9" font-family="Cascadia Code" font-size="8.00">t₄ = eq t₂, 0</text>
<text text-anchor="start" x="46.88" y="-283.15" font-family="Cascadia Code" font-size="8.00"># samples/branching.lua 3,4:3,14</text>
<text text-anchor="start" x="46.88" y="-273.4" font-family="Cascadia Code" font-size="8.00">br BB1 if t₄ else BB2</text>
</g>
<!-- BB1 -->
<g id="node2" class="node">
<title>BB1</title>
<polygon fill="#efefef" stroke="black" points="83.88,-211.12 29.88,-211.12 29.88,-175.12 83.88,-175.12 83.88,-211.12"/>
<text text-anchor="middle" x="56.88" y="-195.28" font-family="Cascadia Code" font-size="8.00">BB1:</text>
<text text-anchor="start" x="37.88" y="-185.53" font-family="Cascadia Code" font-size="8.00">br BB5</text>
</g>
<!-- BB0&#45;&gt;BB1 -->
<g id="edge1" class="edge">
<title>BB0&#45;&gt;BB1</title>
<path fill="none" stroke="black" d="M97.88,-267.05C89.43,-252.02 79.86,-235 72.1,-221.19"/>
<polygon fill="black" stroke="black" points="75.25,-219.66 67.3,-212.66 69.15,-223.1 75.25,-219.66"/>
</g>
<!-- BB2 -->
<g id="node3" class="node">
<title>BB2</title>
<polygon fill="#efefef" stroke="black" points="261.88,-231.25 101.88,-231.25 101.88,-155 261.88,-155 261.88,-231.25"/>
<text text-anchor="middle" x="181.88" y="-219.65" font-family="Cascadia Code" font-size="8.00">BB2:</text>
<text text-anchor="start" x="109.88" y="-209.9" font-family="Cascadia Code" font-size="8.00"># samples/branching.lua 5,8:5,13</text>
<text text-anchor="start" x="109.88" y="-200.15" font-family="Cascadia Code" font-size="8.00">t₇ = mod nil, 3</text>
<text text-anchor="start" x="109.88" y="-190.4" font-family="Cascadia Code" font-size="8.00"># samples/branching.lua 5,8:5,18</text>
<text text-anchor="start" x="109.88" y="-180.65" font-family="Cascadia Code" font-size="8.00">t₉ = eq t₇, 0</text>
<text text-anchor="start" x="109.88" y="-170.9" font-family="Cascadia Code" font-size="8.00"># samples/branching.lua 5,8:5,18</text>
<text text-anchor="start" x="109.88" y="-161.15" font-family="Cascadia Code" font-size="8.00">br BB3 if t₉ else BB4</text>
</g>
<!-- BB0&#45;&gt;BB2 -->
<g id="edge2" class="edge">
<title>BB0&#45;&gt;BB2</title>
<path fill="none" stroke="black" d="M140.2,-267.05C144.92,-258.79 149.99,-249.93 154.9,-241.33"/>
<polygon fill="black" stroke="black" points="157.89,-243.15 159.82,-232.73 151.82,-239.67 157.89,-243.15"/>
</g>
<!-- BB5 -->
<g id="node6" class="node">
<title>BB5</title>
<polygon fill="#efefef" stroke="black" points="223.75,-47 0,-47 0,0 223.75,0 223.75,-47"/>
<text text-anchor="middle" x="111.88" y="-35.4" font-family="Cascadia Code" font-size="8.00">BB5:</text>
<text text-anchor="start" x="8" y="-25.65" font-family="Cascadia Code" font-size="8.00">L_1DE93AF_a₆ = ϕ([BB1: 3], [BB3: 5], [BB4: 7])</text>
<text text-anchor="start" x="8" y="-15.9" font-family="Cascadia Code" font-size="8.00"># samples/branching.lua 11,1:11,9</text>
<text text-anchor="start" x="8" y="-6.15" font-family="Cascadia Code" font-size="8.00">t₁₂ = $print(L_1DE93AF_a₆)</text>
</g>
<!-- BB1&#45;&gt;BB5 -->
<g id="edge5" class="edge">
<title>BB1&#45;&gt;BB5</title>
<path fill="none" stroke="black" d="M57.86,-174.96C59.56,-153.01 64.09,-114.11 75.88,-83 79.24,-74.12 83.99,-65.1 88.95,-56.9"/>
<polygon fill="black" stroke="black" points="91.79,-58.95 94.2,-48.63 85.88,-55.19 91.79,-58.95"/>
</g>
<!-- BB3 -->
<g id="node4" class="node">
<title>BB3</title>
<polygon fill="#efefef" stroke="black" points="138.88,-119 84.88,-119 84.88,-83 138.88,-83 138.88,-119"/>
<text text-anchor="middle" x="111.88" y="-103.15" font-family="Cascadia Code" font-size="8.00">BB3:</text>
<text text-anchor="start" x="92.88" y="-93.4" font-family="Cascadia Code" font-size="8.00">br BB5</text>
</g>
<!-- BB2&#45;&gt;BB3 -->
<g id="edge3" class="edge">
<title>BB2&#45;&gt;BB3</title>
<path fill="none" stroke="black" d="M152.8,-154.69C145.81,-145.69 138.5,-136.28 132.02,-127.94"/>
<polygon fill="black" stroke="black" points="134.95,-126 126.05,-120.25 129.42,-130.3 134.95,-126"/>
</g>
<!-- BB4 -->
<g id="node5" class="node">
<title>BB4</title>
<polygon fill="#efefef" stroke="black" points="210.88,-119 156.88,-119 156.88,-83 210.88,-83 210.88,-119"/>
<text text-anchor="middle" x="183.88" y="-103.15" font-family="Cascadia Code" font-size="8.00">BB4:</text>
<text text-anchor="start" x="164.88" y="-93.4" font-family="Cascadia Code" font-size="8.00">br BB5</text>
</g>
<!-- BB2&#45;&gt;BB4 -->
<g id="edge4" class="edge">
<title>BB2&#45;&gt;BB4</title>
<path fill="none" stroke="black" d="M182.71,-154.69C182.89,-146.56 183.07,-138.1 183.25,-130.39"/>
<polygon fill="black" stroke="black" points="186.74,-130.65 183.46,-120.57 179.74,-130.49 186.74,-130.65"/>
</g>
<!-- BB3&#45;&gt;BB5 -->
<g id="edge6" class="edge">
<title>BB3&#45;&gt;BB5</title>
<path fill="none" stroke="black" d="M111.88,-82.87C111.88,-75.71 111.88,-67.13 111.88,-58.78"/>
<polygon fill="black" stroke="black" points="115.38,-58.81 111.88,-48.81 108.38,-58.81 115.38,-58.81"/>
</g>
<!-- BB4&#45;&gt;BB5 -->
<g id="edge7" class="edge">
<title>BB4&#45;&gt;BB5</title>
<path fill="none" stroke="black" d="M167.54,-82.87C159.85,-74.81 150.44,-64.94 141.55,-55.62"/>
<polygon fill="black" stroke="black" points="144.09,-53.21 134.65,-48.39 139.02,-58.04 144.09,-53.21"/>
</g>
</g>
</svg>
