<?xml version="1.0" encoding="UTF-8" standalone="no"?>
<!DOCTYPE svg PUBLIC "-//W3C//DTD SVG 1.1//EN"
 "http://www.w3.org/Graphics/SVG/1.1/DTD/svg11.dtd">
<!-- Generated by graphviz version 9.0.0 (0)
 -->
<!-- Pages: 1 -->
<svg width="454pt" height="499pt"
 viewBox="0.00 0.00 454.00 499.00" xmlns="http://www.w3.org/2000/svg" xmlns:xlink="http://www.w3.org/1999/xlink">
<g id="graph0" class="graph" transform="scale(1 1) rotate(0) translate(4 495)">
<polygon fill="white" stroke="none" points="-4,4 -4,-495 450,-495 450,4 -4,4"/>
<!-- BB0 -->
<g id="node1" class="node">
<title>BB0</title>
<polygon fill="#efefef" stroke="black" points="252.25,-491 87.75,-491 87.75,-336.75 252.25,-336.75 252.25,-491"/>
<text text-anchor="middle" x="170" y="-479.4" font-family="Cascadia Code" font-size="8.00">BB0:</text>
<text text-anchor="start" x="95.75" y="-469.65" font-family="Cascadia Code" font-size="8.00">L_2_print₁ = nil</text>
<text text-anchor="start" x="95.75" y="-459.9" font-family="Cascadia Code" font-size="8.00">L_2_print₂ = $print</text>
<text text-anchor="start" x="95.75" y="-450.15" font-family="Cascadia Code" font-size="8.00"># samples/branching.lua 1,1:1,8</text>
<text text-anchor="start" x="95.75" y="-440.4" font-family="Cascadia Code" font-size="8.00">L_3_a₁ = nil</text>
<text text-anchor="start" x="95.75" y="-430.65" font-family="Cascadia Code" font-size="8.00"># samples/branching.lua 3,8:3,9</text>
<text text-anchor="start" x="95.75" y="-420.9" font-family="Cascadia Code" font-size="8.00">t₁ = 2</text>
<text text-anchor="start" x="95.75" y="-411.15" font-family="Cascadia Code" font-size="8.00"># samples/branching.lua 3,4:3,9</text>
<text text-anchor="start" x="95.75" y="-401.4" font-family="Cascadia Code" font-size="8.00">t₂ = mod L_3_a₁, t₁</text>
<text text-anchor="start" x="95.75" y="-391.65" font-family="Cascadia Code" font-size="8.00"># samples/branching.lua 3,13:3,14</text>
<text text-anchor="start" x="95.75" y="-381.9" font-family="Cascadia Code" font-size="8.00">t₃ = 0</text>
<text text-anchor="start" x="95.75" y="-372.15" font-family="Cascadia Code" font-size="8.00"># samples/branching.lua 3,4:3,14</text>
<text text-anchor="start" x="95.75" y="-362.4" font-family="Cascadia Code" font-size="8.00">t₄ = eq t₂, t₃</text>
<text text-anchor="start" x="95.75" y="-352.65" font-family="Cascadia Code" font-size="8.00"># samples/branching.lua 3,4:3,14</text>
<text text-anchor="start" x="95.75" y="-342.9" font-family="Cascadia Code" font-size="8.00">br BB1 if t₄ else BB2</text>
</g>
<!-- BB1 -->
<g id="node2" class="node">
<title>BB1</title>
<polygon fill="#efefef" stroke="black" points="160,-276.38 0,-276.38 0,-209.88 160,-209.88 160,-276.38"/>
<text text-anchor="middle" x="80" y="-264.77" font-family="Cascadia Code" font-size="8.00">BB1:</text>
<text text-anchor="start" x="8" y="-255.03" font-family="Cascadia Code" font-size="8.00"># samples/branching.lua 4,9:4,10</text>
<text text-anchor="start" x="8" y="-245.28" font-family="Cascadia Code" font-size="8.00">t₅ = 3</text>
<text text-anchor="start" x="8" y="-235.53" font-family="Cascadia Code" font-size="8.00"># samples/branching.lua 4,5:4,10</text>
<text text-anchor="start" x="8" y="-225.78" font-family="Cascadia Code" font-size="8.00">L_3_a₂ = t₅</text>
<text text-anchor="start" x="8" y="-216.03" font-family="Cascadia Code" font-size="8.00">br BB5</text>
</g>
<!-- BB0&#45;&gt;BB1 -->
<g id="edge1" class="edge">
<title>BB0&#45;&gt;BB1</title>
<path fill="none" stroke="black" d="M129.21,-336.4C120.14,-319.39 110.84,-301.96 102.81,-286.88"/>
<polygon fill="black" stroke="black" points="105.97,-285.37 98.17,-278.2 99.79,-288.67 105.97,-285.37"/>
</g>
<!-- BB2 -->
<g id="node3" class="node">
<title>BB2</title>
<polygon fill="#efefef" stroke="black" points="342.25,-300.75 177.75,-300.75 177.75,-185.5 342.25,-185.5 342.25,-300.75"/>
<text text-anchor="middle" x="260" y="-289.15" font-family="Cascadia Code" font-size="8.00">BB2:</text>
<text text-anchor="start" x="185.75" y="-279.4" font-family="Cascadia Code" font-size="8.00"># samples/branching.lua 5,12:5,13</text>
<text text-anchor="start" x="185.75" y="-269.65" font-family="Cascadia Code" font-size="8.00">t₆ = 3</text>
<text text-anchor="start" x="185.75" y="-259.9" font-family="Cascadia Code" font-size="8.00"># samples/branching.lua 5,8:5,13</text>
<text text-anchor="start" x="185.75" y="-250.15" font-family="Cascadia Code" font-size="8.00">t₇ = mod L_3_a₁, t₆</text>
<text text-anchor="start" x="185.75" y="-240.4" font-family="Cascadia Code" font-size="8.00"># samples/branching.lua 5,17:5,18</text>
<text text-anchor="start" x="185.75" y="-230.65" font-family="Cascadia Code" font-size="8.00">t₈ = 0</text>
<text text-anchor="start" x="185.75" y="-220.9" font-family="Cascadia Code" font-size="8.00"># samples/branching.lua 5,8:5,18</text>
<text text-anchor="start" x="185.75" y="-211.15" font-family="Cascadia Code" font-size="8.00">t₉ = eq t₇, t₈</text>
<text text-anchor="start" x="185.75" y="-201.4" font-family="Cascadia Code" font-size="8.00"># samples/branching.lua 5,8:5,18</text>
<text text-anchor="start" x="185.75" y="-191.65" font-family="Cascadia Code" font-size="8.00">br BB3 if t₉ else BB4</text>
</g>
<!-- BB0&#45;&gt;BB2 -->
<g id="edge2" class="edge">
<title>BB0&#45;&gt;BB2</title>
<path fill="none" stroke="black" d="M210.79,-336.4C215.28,-327.97 219.84,-319.43 224.27,-311.13"/>
<polygon fill="black" stroke="black" points="227.26,-312.94 228.88,-302.47 221.09,-309.65 227.26,-312.94"/>
</g>
<!-- BB5 -->
<g id="node6" class="node">
<title>BB5</title>
<polygon fill="#efefef" stroke="black" points="320.12,-47 55.88,-47 55.88,0 320.12,0 320.12,-47"/>
<text text-anchor="middle" x="188" y="-35.4" font-family="Cascadia Code" font-size="8.00">BB5:</text>
<text text-anchor="start" x="63.88" y="-25.65" font-family="Cascadia Code" font-size="8.00">L_3_a₆ = ϕ([BB1: L_3_a₂], [BB3: L_3_a₄], [BB4: L_3_a₅])</text>
<text text-anchor="start" x="63.88" y="-15.9" font-family="Cascadia Code" font-size="8.00"># samples/branching.lua 11,1:11,9</text>
<text text-anchor="start" x="63.88" y="-6.15" font-family="Cascadia Code" font-size="8.00">t₁₂ = L_2_print₂(L_3_a₆)</text>
</g>
<!-- BB1&#45;&gt;BB5 -->
<g id="edge5" class="edge">
<title>BB1&#45;&gt;BB5</title>
<path fill="none" stroke="black" d="M76.25,-209.65C73.96,-175.53 75.14,-121.57 99,-83 106.14,-71.45 116.51,-61.72 127.67,-53.7"/>
<polygon fill="black" stroke="black" points="129.53,-56.67 135.91,-48.21 125.65,-50.84 129.53,-56.67"/>
</g>
<!-- BB3 -->
<g id="node4" class="node">
<title>BB3</title>
<polygon fill="#efefef" stroke="black" points="268,-149.5 108,-149.5 108,-83 268,-83 268,-149.5"/>
<text text-anchor="middle" x="188" y="-137.9" font-family="Cascadia Code" font-size="8.00">BB3:</text>
<text text-anchor="start" x="116" y="-128.15" font-family="Cascadia Code" font-size="8.00"># samples/branching.lua 6,9:6,10</text>
<text text-anchor="start" x="116" y="-118.4" font-family="Cascadia Code" font-size="8.00">t₁₀ = 5</text>
<text text-anchor="start" x="116" y="-108.65" font-family="Cascadia Code" font-size="8.00"># samples/branching.lua 6,5:6,10</text>
<text text-anchor="start" x="116" y="-98.9" font-family="Cascadia Code" font-size="8.00">L_3_a₄ = t₁₀</text>
<text text-anchor="start" x="116" y="-89.15" font-family="Cascadia Code" font-size="8.00">br BB5</text>
</g>
<!-- BB2&#45;&gt;BB3 -->
<g id="edge3" class="edge">
<title>BB2&#45;&gt;BB3</title>
<path fill="none" stroke="black" d="M227.16,-185.17C222.2,-176.57 217.17,-167.83 212.43,-159.62"/>
<polygon fill="black" stroke="black" points="215.6,-158.12 207.58,-151.2 209.54,-161.62 215.6,-158.12"/>
</g>
<!-- BB4 -->
<g id="node5" class="node">
<title>BB4</title>
<polygon fill="#efefef" stroke="black" points="446,-149.5 286,-149.5 286,-83 446,-83 446,-149.5"/>
<text text-anchor="middle" x="366" y="-137.9" font-family="Cascadia Code" font-size="8.00">BB4:</text>
<text text-anchor="start" x="294" y="-128.15" font-family="Cascadia Code" font-size="8.00"># samples/branching.lua 8,9:8,10</text>
<text text-anchor="start" x="294" y="-118.4" font-family="Cascadia Code" font-size="8.00">t₁₁ = 7</text>
<text text-anchor="start" x="294" y="-108.65" font-family="Cascadia Code" font-size="8.00"># samples/branching.lua 8,5:8,10</text>
<text text-anchor="start" x="294" y="-98.9" font-family="Cascadia Code" font-size="8.00">L_3_a₅ = t₁₁</text>
<text text-anchor="start" x="294" y="-89.15" font-family="Cascadia Code" font-size="8.00">br BB5</text>
</g>
<!-- BB2&#45;&gt;BB4 -->
<g id="edge4" class="edge">
<title>BB2&#45;&gt;BB4</title>
<path fill="none" stroke="black" d="M308.35,-185.17C315.97,-176.19 323.71,-167.07 330.95,-158.54"/>
<polygon fill="black" stroke="black" points="333.51,-160.94 337.31,-151.05 328.17,-156.41 333.51,-160.94"/>
</g>
<!-- BB3&#45;&gt;BB5 -->
<g id="edge6" class="edge">
<title>BB3&#45;&gt;BB5</title>
<path fill="none" stroke="black" d="M188,-82.74C188,-74.98 188,-66.66 188,-58.81"/>
<polygon fill="black" stroke="black" points="191.5,-58.91 188,-48.91 184.5,-58.91 191.5,-58.91"/>
</g>
<!-- BB4&#45;&gt;BB5 -->
<g id="edge7" class="edge">
<title>BB4&#45;&gt;BB5</title>
<path fill="none" stroke="black" d="M301.99,-82.62C282.73,-72.8 261.77,-62.11 243.14,-52.61"/>
<polygon fill="black" stroke="black" points="244.91,-49.58 234.41,-48.16 241.73,-55.82 244.91,-49.58"/>
</g>
</g>
</svg>
