<?xml version="1.0" encoding="UTF-8" standalone="no"?>
<!DOCTYPE svg PUBLIC "-//W3C//DTD SVG 1.1//EN"
 "http://www.w3.org/Graphics/SVG/1.1/DTD/svg11.dtd">
<!-- Generated by graphviz version 9.0.0 (0)
 -->
<!-- Pages: 1 -->
<svg width="596pt" height="723pt"
 viewBox="0.00 0.00 595.88 722.75" xmlns="http://www.w3.org/2000/svg" xmlns:xlink="http://www.w3.org/1999/xlink">
<g id="graph0" class="graph" transform="scale(1 1) rotate(0) translate(4 718.75)">
<polygon fill="white" stroke="none" points="-4,4 -4,-718.75 591.88,-718.75 591.88,4 -4,4"/>
<!-- BB0 -->
<g id="node1" class="node">
<title>BB0</title>
<polygon fill="#efefef" stroke="black" points="261.38,-714.75 96.88,-714.75 96.88,-677.5 261.38,-677.5 261.38,-714.75"/>
<text text-anchor="middle" x="179.12" y="-703.15" font-family="Cascadia Code" font-size="8.00">BB0:</text>
<text text-anchor="start" x="104.88" y="-693.4" font-family="Cascadia Code" font-size="8.00"># samples/branching2.lua 2,4:2,14</text>
<text text-anchor="start" x="104.88" y="-683.65" font-family="Cascadia Code" font-size="8.00">br BB1 if False else BB2</text>
</g>
<!-- BB1 -->
<g id="node2" class="node">
<title>BB1</title>
<polygon fill="#efefef" stroke="black" points="143.12,-640.88 89.12,-640.88 89.12,-604.88 143.12,-604.88 143.12,-640.88"/>
<text text-anchor="middle" x="116.12" y="-625.02" font-family="Cascadia Code" font-size="8.00">BB1:</text>
<text text-anchor="start" x="97.12" y="-615.27" font-family="Cascadia Code" font-size="8.00">br BB17</text>
</g>
<!-- BB0&#45;&gt;BB1 -->
<g id="edge1" class="edge">
<title>BB0&#45;&gt;BB1</title>
<path fill="none" stroke="black" d="M163.23,-677.15C155.82,-668.77 146.88,-658.66 138.79,-649.51"/>
<polygon fill="black" stroke="black" points="141.61,-647.42 132.37,-642.25 136.37,-652.06 141.61,-647.42"/>
</g>
<!-- BB2 -->
<g id="node3" class="node">
<title>BB2</title>
<polygon fill="#efefef" stroke="black" points="325.38,-641.5 160.88,-641.5 160.88,-604.25 325.38,-604.25 325.38,-641.5"/>
<text text-anchor="middle" x="243.12" y="-629.9" font-family="Cascadia Code" font-size="8.00">BB2:</text>
<text text-anchor="start" x="168.88" y="-620.15" font-family="Cascadia Code" font-size="8.00"># samples/branching2.lua 5,8:5,18</text>
<text text-anchor="start" x="168.88" y="-610.4" font-family="Cascadia Code" font-size="8.00">br BB3 if False else BB4</text>
</g>
<!-- BB0&#45;&gt;BB2 -->
<g id="edge2" class="edge">
<title>BB0&#45;&gt;BB2</title>
<path fill="none" stroke="black" d="M195.27,-677.15C202.68,-668.9 211.61,-658.96 219.73,-649.92"/>
<polygon fill="black" stroke="black" points="222.11,-652.51 226.19,-642.73 216.9,-647.83 222.11,-652.51"/>
</g>
<!-- BB17 -->
<g id="node18" class="node">
<title>BB17</title>
<polygon fill="#efefef" stroke="black" points="552.25,-56.75 0,-56.75 0,0 552.25,0 552.25,-56.75"/>
<text text-anchor="middle" x="276.12" y="-45.15" font-family="Cascadia Code" font-size="8.00">BB17:</text>
<text text-anchor="start" x="8" y="-35.4" font-family="Cascadia Code" font-size="8.00">L_EF627A_a₂₇ = ϕ([BB1: 3], [BB3: 4], [BB5: 5], [BB7: 6], [BB9: 7], [BB11: 8], [BB13: 9], [BB15: 10], [BB16: 11])</text>
<text text-anchor="start" x="8" y="-25.65" font-family="Cascadia Code" font-size="8.00">L_EF627A_b₁₈ = ϕ([BB1: 2], [BB3: nil], [BB5: 4], [BB7: nil], [BB9: 6], [BB11: nil], [BB13: 8], [BB15: nil], [BB16: 10])</text>
<text text-anchor="start" x="8" y="-15.9" font-family="Cascadia Code" font-size="8.00"># samples/branching2.lua 26,1:26,12</text>
<text text-anchor="start" x="8" y="-6.15" font-family="Cascadia Code" font-size="8.00">t₅₇ = $print(L_EF627A_a₂₇, L_EF627A_b₁₈)</text>
</g>
<!-- BB1&#45;&gt;BB17 -->
<g id="edge17" class="edge">
<title>BB1&#45;&gt;BB17</title>
<path fill="none" stroke="black" d="M116.12,-604.53C116.12,-577.4 116.12,-523.28 116.12,-477.38 116.12,-477.38 116.12,-477.38 116.12,-182.38 116.12,-129.25 162.78,-88.88 205.7,-62.99"/>
<polygon fill="black" stroke="black" points="207.45,-66.02 214.33,-57.97 203.92,-59.97 207.45,-66.02"/>
</g>
<!-- BB3 -->
<g id="node4" class="node">
<title>BB3</title>
<polygon fill="#efefef" stroke="black" points="198.12,-567.62 144.12,-567.62 144.12,-531.62 198.12,-531.62 198.12,-567.62"/>
<text text-anchor="middle" x="171.12" y="-551.77" font-family="Cascadia Code" font-size="8.00">BB3:</text>
<text text-anchor="start" x="152.12" y="-542.02" font-family="Cascadia Code" font-size="8.00">br BB17</text>
</g>
<!-- BB2&#45;&gt;BB3 -->
<g id="edge3" class="edge">
<title>BB2&#45;&gt;BB3</title>
<path fill="none" stroke="black" d="M224.96,-603.9C216.32,-595.35 205.85,-584.99 196.46,-575.69"/>
<polygon fill="black" stroke="black" points="199.19,-573.47 189.62,-568.93 194.26,-578.45 199.19,-573.47"/>
</g>
<!-- BB4 -->
<g id="node5" class="node">
<title>BB4</title>
<polygon fill="#efefef" stroke="black" points="380.38,-568.25 215.88,-568.25 215.88,-531 380.38,-531 380.38,-568.25"/>
<text text-anchor="middle" x="298.12" y="-556.65" font-family="Cascadia Code" font-size="8.00">BB4:</text>
<text text-anchor="start" x="223.88" y="-546.9" font-family="Cascadia Code" font-size="8.00"># samples/branching2.lua 7,8:7,18</text>
<text text-anchor="start" x="223.88" y="-537.15" font-family="Cascadia Code" font-size="8.00">br BB5 if False else BB6</text>
</g>
<!-- BB2&#45;&gt;BB4 -->
<g id="edge4" class="edge">
<title>BB2&#45;&gt;BB4</title>
<path fill="none" stroke="black" d="M257,-603.9C263.24,-595.82 270.72,-586.12 277.59,-577.23"/>
<polygon fill="black" stroke="black" points="280.18,-579.6 283.52,-569.55 274.64,-575.33 280.18,-579.6"/>
</g>
<!-- BB3&#45;&gt;BB17 -->
<g id="edge18" class="edge">
<title>BB3&#45;&gt;BB17</title>
<path fill="none" stroke="black" d="M169.35,-531.3C166.72,-504.2 162.12,-450.12 162.12,-404.12 162.12,-404.12 162.12,-404.12 162.12,-182.38 162.12,-134.63 198.26,-92.16 229.84,-64.14"/>
<polygon fill="black" stroke="black" points="231.71,-67.15 237.02,-57.98 227.15,-61.84 231.71,-67.15"/>
</g>
<!-- BB5 -->
<g id="node6" class="node">
<title>BB5</title>
<polygon fill="#efefef" stroke="black" points="244.12,-494.38 190.12,-494.38 190.12,-458.38 244.12,-458.38 244.12,-494.38"/>
<text text-anchor="middle" x="217.12" y="-478.52" font-family="Cascadia Code" font-size="8.00">BB5:</text>
<text text-anchor="start" x="198.12" y="-468.77" font-family="Cascadia Code" font-size="8.00">br BB17</text>
</g>
<!-- BB4&#45;&gt;BB5 -->
<g id="edge5" class="edge">
<title>BB4&#45;&gt;BB5</title>
<path fill="none" stroke="black" d="M277.69,-530.65C267.95,-522.08 256.14,-511.69 245.54,-502.37"/>
<polygon fill="black" stroke="black" points="247.95,-499.83 238.13,-495.86 243.33,-505.09 247.95,-499.83"/>
</g>
<!-- BB6 -->
<g id="node7" class="node">
<title>BB6</title>
<polygon fill="#efefef" stroke="black" points="435.88,-495 262.38,-495 262.38,-457.75 435.88,-457.75 435.88,-495"/>
<text text-anchor="middle" x="349.12" y="-483.4" font-family="Cascadia Code" font-size="8.00">BB6:</text>
<text text-anchor="start" x="270.38" y="-473.65" font-family="Cascadia Code" font-size="8.00"># samples/branching2.lua 10,8:10,18</text>
<text text-anchor="start" x="270.38" y="-463.9" font-family="Cascadia Code" font-size="8.00">br BB7 if False else BB8</text>
</g>
<!-- BB4&#45;&gt;BB6 -->
<g id="edge6" class="edge">
<title>BB4&#45;&gt;BB6</title>
<path fill="none" stroke="black" d="M310.99,-530.65C316.72,-522.65 323.57,-513.08 329.88,-504.26"/>
<polygon fill="black" stroke="black" points="332.58,-506.5 335.56,-496.33 326.89,-502.43 332.58,-506.5"/>
</g>
<!-- BB5&#45;&gt;BB17 -->
<g id="edge19" class="edge">
<title>BB5&#45;&gt;BB17</title>
<path fill="none" stroke="black" d="M213.77,-458.1C208.81,-431.08 200.12,-377.1 200.12,-330.88 200.12,-330.88 200.12,-330.88 200.12,-182.38 200.12,-139.29 224.6,-95.83 245.77,-66.3"/>
<polygon fill="black" stroke="black" points="248.46,-68.56 251.59,-58.44 242.83,-64.39 248.46,-68.56"/>
</g>
<!-- BB7 -->
<g id="node8" class="node">
<title>BB7</title>
<polygon fill="#efefef" stroke="black" points="282.12,-421.12 228.12,-421.12 228.12,-385.12 282.12,-385.12 282.12,-421.12"/>
<text text-anchor="middle" x="255.12" y="-405.27" font-family="Cascadia Code" font-size="8.00">BB7:</text>
<text text-anchor="start" x="236.12" y="-395.52" font-family="Cascadia Code" font-size="8.00">br BB17</text>
</g>
<!-- BB6&#45;&gt;BB7 -->
<g id="edge7" class="edge">
<title>BB6&#45;&gt;BB7</title>
<path fill="none" stroke="black" d="M325.4,-457.4C313.76,-448.57 299.57,-437.82 287,-428.28"/>
<polygon fill="black" stroke="black" points="289.48,-425.77 279.39,-422.52 285.25,-431.35 289.48,-425.77"/>
</g>
<!-- BB8 -->
<g id="node9" class="node">
<title>BB8</title>
<polygon fill="#efefef" stroke="black" points="473.88,-421.75 300.38,-421.75 300.38,-384.5 473.88,-384.5 473.88,-421.75"/>
<text text-anchor="middle" x="387.12" y="-410.15" font-family="Cascadia Code" font-size="8.00">BB8:</text>
<text text-anchor="start" x="308.38" y="-400.4" font-family="Cascadia Code" font-size="8.00"># samples/branching2.lua 12,8:12,18</text>
<text text-anchor="start" x="308.38" y="-390.65" font-family="Cascadia Code" font-size="8.00">br BB9 if False else BB10</text>
</g>
<!-- BB6&#45;&gt;BB8 -->
<g id="edge8" class="edge">
<title>BB6&#45;&gt;BB8</title>
<path fill="none" stroke="black" d="M358.71,-457.4C362.84,-449.66 367.76,-440.44 372.34,-431.86"/>
<polygon fill="black" stroke="black" points="375.34,-433.66 376.96,-423.19 369.16,-430.36 375.34,-433.66"/>
</g>
<!-- BB7&#45;&gt;BB17 -->
<g id="edge20" class="edge">
<title>BB7&#45;&gt;BB17</title>
<path fill="none" stroke="black" d="M251.77,-384.85C246.81,-357.83 238.12,-303.85 238.12,-257.62 238.12,-257.62 238.12,-257.62 238.12,-182.38 238.12,-142.4 250.5,-98.23 261.12,-67.67"/>
<polygon fill="black" stroke="black" points="264.33,-69.08 264.42,-58.49 257.74,-66.72 264.33,-69.08"/>
</g>
<!-- BB9 -->
<g id="node10" class="node">
<title>BB9</title>
<polygon fill="#efefef" stroke="black" points="320.12,-347.88 266.12,-347.88 266.12,-311.88 320.12,-311.88 320.12,-347.88"/>
<text text-anchor="middle" x="293.12" y="-332.02" font-family="Cascadia Code" font-size="8.00">BB9:</text>
<text text-anchor="start" x="274.12" y="-322.27" font-family="Cascadia Code" font-size="8.00">br BB17</text>
</g>
<!-- BB8&#45;&gt;BB9 -->
<g id="edge9" class="edge">
<title>BB8&#45;&gt;BB9</title>
<path fill="none" stroke="black" d="M363.4,-384.15C351.76,-375.32 337.57,-364.57 325,-355.03"/>
<polygon fill="black" stroke="black" points="327.48,-352.52 317.39,-349.27 323.25,-358.1 327.48,-352.52"/>
</g>
<!-- BB10 -->
<g id="node11" class="node">
<title>BB10</title>
<polygon fill="#efefef" stroke="black" points="511.88,-348.5 338.38,-348.5 338.38,-311.25 511.88,-311.25 511.88,-348.5"/>
<text text-anchor="middle" x="425.12" y="-336.9" font-family="Cascadia Code" font-size="8.00">BB10:</text>
<text text-anchor="start" x="346.38" y="-327.15" font-family="Cascadia Code" font-size="8.00"># samples/branching2.lua 15,8:15,18</text>
<text text-anchor="start" x="346.38" y="-317.4" font-family="Cascadia Code" font-size="8.00">br BB11 if False else BB12</text>
</g>
<!-- BB8&#45;&gt;BB10 -->
<g id="edge10" class="edge">
<title>BB8&#45;&gt;BB10</title>
<path fill="none" stroke="black" d="M396.71,-384.15C400.84,-376.41 405.76,-367.19 410.34,-358.61"/>
<polygon fill="black" stroke="black" points="413.34,-360.41 414.96,-349.94 407.16,-357.11 413.34,-360.41"/>
</g>
<!-- BB9&#45;&gt;BB17 -->
<g id="edge21" class="edge">
<title>BB9&#45;&gt;BB17</title>
<path fill="none" stroke="black" d="M292.14,-311.48C289.47,-264.47 282.06,-134.01 278.33,-68.28"/>
<polygon fill="black" stroke="black" points="281.83,-68.09 277.77,-58.31 274.84,-68.49 281.83,-68.09"/>
</g>
<!-- BB11 -->
<g id="node12" class="node">
<title>BB11</title>
<polygon fill="#efefef" stroke="black" points="358.12,-274.62 304.12,-274.62 304.12,-238.62 358.12,-238.62 358.12,-274.62"/>
<text text-anchor="middle" x="331.12" y="-258.77" font-family="Cascadia Code" font-size="8.00">BB11:</text>
<text text-anchor="start" x="312.12" y="-249.03" font-family="Cascadia Code" font-size="8.00">br BB17</text>
</g>
<!-- BB10&#45;&gt;BB11 -->
<g id="edge11" class="edge">
<title>BB10&#45;&gt;BB11</title>
<path fill="none" stroke="black" d="M401.4,-310.9C389.76,-302.07 375.57,-291.32 363,-281.78"/>
<polygon fill="black" stroke="black" points="365.48,-279.27 355.39,-276.02 361.25,-284.85 365.48,-279.27"/>
</g>
<!-- BB12 -->
<g id="node13" class="node">
<title>BB12</title>
<polygon fill="#efefef" stroke="black" points="549.88,-275.25 376.38,-275.25 376.38,-238 549.88,-238 549.88,-275.25"/>
<text text-anchor="middle" x="463.12" y="-263.65" font-family="Cascadia Code" font-size="8.00">BB12:</text>
<text text-anchor="start" x="384.38" y="-253.9" font-family="Cascadia Code" font-size="8.00"># samples/branching2.lua 17,8:17,18</text>
<text text-anchor="start" x="384.38" y="-244.15" font-family="Cascadia Code" font-size="8.00">br BB13 if False else BB14</text>
</g>
<!-- BB10&#45;&gt;BB12 -->
<g id="edge12" class="edge">
<title>BB10&#45;&gt;BB12</title>
<path fill="none" stroke="black" d="M434.71,-310.9C438.84,-303.16 443.76,-293.94 448.34,-285.36"/>
<polygon fill="black" stroke="black" points="451.34,-287.16 452.96,-276.69 445.16,-283.86 451.34,-287.16"/>
</g>
<!-- BB11&#45;&gt;BB17 -->
<g id="edge22" class="edge">
<title>BB11&#45;&gt;BB17</title>
<path fill="none" stroke="black" d="M326.9,-238.25C318.1,-202.06 297.63,-117.84 285.54,-68.1"/>
<polygon fill="black" stroke="black" points="289,-67.51 283.23,-58.62 282.19,-69.16 289,-67.51"/>
</g>
<!-- BB13 -->
<g id="node14" class="node">
<title>BB13</title>
<polygon fill="#efefef" stroke="black" points="396.12,-201.38 342.12,-201.38 342.12,-165.38 396.12,-165.38 396.12,-201.38"/>
<text text-anchor="middle" x="369.12" y="-185.53" font-family="Cascadia Code" font-size="8.00">BB13:</text>
<text text-anchor="start" x="350.12" y="-175.78" font-family="Cascadia Code" font-size="8.00">br BB17</text>
</g>
<!-- BB12&#45;&gt;BB13 -->
<g id="edge13" class="edge">
<title>BB12&#45;&gt;BB13</title>
<path fill="none" stroke="black" d="M439.4,-237.65C427.76,-228.82 413.57,-218.07 401,-208.53"/>
<polygon fill="black" stroke="black" points="403.48,-206.02 393.39,-202.77 399.25,-211.6 403.48,-206.02"/>
</g>
<!-- BB14 -->
<g id="node15" class="node">
<title>BB14</title>
<polygon fill="#efefef" stroke="black" points="587.88,-202 414.38,-202 414.38,-164.75 587.88,-164.75 587.88,-202"/>
<text text-anchor="middle" x="501.12" y="-190.4" font-family="Cascadia Code" font-size="8.00">BB14:</text>
<text text-anchor="start" x="422.38" y="-180.65" font-family="Cascadia Code" font-size="8.00"># samples/branching2.lua 20,8:20,18</text>
<text text-anchor="start" x="422.38" y="-170.9" font-family="Cascadia Code" font-size="8.00">br BB15 if False else BB16</text>
</g>
<!-- BB12&#45;&gt;BB14 -->
<g id="edge14" class="edge">
<title>BB12&#45;&gt;BB14</title>
<path fill="none" stroke="black" d="M472.71,-237.65C476.84,-229.91 481.76,-220.69 486.34,-212.11"/>
<polygon fill="black" stroke="black" points="489.34,-213.91 490.96,-203.44 483.16,-210.61 489.34,-213.91"/>
</g>
<!-- BB13&#45;&gt;BB17 -->
<g id="edge23" class="edge">
<title>BB13&#45;&gt;BB17</title>
<path fill="none" stroke="black" d="M362.8,-165.19C355.63,-146.64 342.99,-116.55 328.12,-92.75 322.48,-83.71 315.69,-74.53 308.9,-66.07"/>
<polygon fill="black" stroke="black" points="311.62,-63.87 302.56,-58.38 306.22,-68.32 311.62,-63.87"/>
</g>
<!-- BB15 -->
<g id="node16" class="node">
<title>BB15</title>
<polygon fill="#efefef" stroke="black" points="449.12,-128.75 395.12,-128.75 395.12,-92.75 449.12,-92.75 449.12,-128.75"/>
<text text-anchor="middle" x="422.12" y="-112.9" font-family="Cascadia Code" font-size="8.00">BB15:</text>
<text text-anchor="start" x="403.12" y="-103.15" font-family="Cascadia Code" font-size="8.00">br BB17</text>
</g>
<!-- BB14&#45;&gt;BB15 -->
<g id="edge15" class="edge">
<title>BB14&#45;&gt;BB15</title>
<path fill="none" stroke="black" d="M481.19,-164.55C471.69,-156.06 460.17,-145.76 449.84,-136.53"/>
<polygon fill="black" stroke="black" points="452.42,-134.14 442.64,-130.09 447.76,-139.36 452.42,-134.14"/>
</g>
<!-- BB16 -->
<g id="node17" class="node">
<title>BB16</title>
<polygon fill="#efefef" stroke="black" points="524.12,-128.75 470.12,-128.75 470.12,-92.75 524.12,-92.75 524.12,-128.75"/>
<text text-anchor="middle" x="497.12" y="-112.9" font-family="Cascadia Code" font-size="8.00">BB16:</text>
<text text-anchor="start" x="478.12" y="-103.15" font-family="Cascadia Code" font-size="8.00">br BB17</text>
</g>
<!-- BB14&#45;&gt;BB16 -->
<g id="edge16" class="edge">
<title>BB14&#45;&gt;BB16</title>
<path fill="none" stroke="black" d="M500.12,-164.55C499.7,-157.2 499.21,-148.48 498.74,-140.28"/>
<polygon fill="black" stroke="black" points="502.24,-140.13 498.18,-130.35 495.25,-140.53 502.24,-140.13"/>
</g>
<!-- BB15&#45;&gt;BB17 -->
<g id="edge24" class="edge">
<title>BB15&#45;&gt;BB17</title>
<path fill="none" stroke="black" d="M394.66,-94.63C378.27,-85.61 356.77,-73.77 336.59,-62.66"/>
<polygon fill="black" stroke="black" points="338.28,-59.6 327.84,-57.84 334.91,-65.73 338.28,-59.6"/>
</g>
<!-- BB16&#45;&gt;BB17 -->
<g id="edge25" class="edge">
<title>BB16&#45;&gt;BB17</title>
<path fill="none" stroke="black" d="M469.96,-97.59C466.01,-95.92 461.98,-94.26 458.12,-92.75 430.08,-81.77 399.26,-70.68 371.08,-60.91"/>
<polygon fill="black" stroke="black" points="372.45,-57.68 361.86,-57.73 370.17,-64.3 372.45,-57.68"/>
</g>
</g>
</svg>
