<?xml version="1.0" encoding="UTF-8" standalone="no"?>
<!DOCTYPE svg PUBLIC "-//W3C//DTD SVG 1.1//EN"
 "http://www.w3.org/Graphics/SVG/1.1/DTD/svg11.dtd">
<!-- Generated by graphviz version 9.0.0 (0)
 -->
<!-- Pages: 1 -->
<svg width="997pt" height="909pt"
 viewBox="0.00 0.00 996.75 909.25" xmlns="http://www.w3.org/2000/svg" xmlns:xlink="http://www.w3.org/1999/xlink">
<g id="graph0" class="graph" transform="scale(1 1) rotate(0) translate(4 905.25)">
<polygon fill="white" stroke="none" points="-4,4 -4,-905.25 992.75,-905.25 992.75,4 -4,4"/>
<!-- BB0 -->
<g id="node1" class="node">
<title>BB0</title>
<polygon fill="#efefef" stroke="black" points="479.62,-901.25 315.12,-901.25 315.12,-854.25 479.62,-854.25 479.62,-901.25"/>
<text text-anchor="middle" x="397.38" y="-889.65" font-family="Cascadia Code" font-size="8.00">BB0:</text>
<text text-anchor="start" x="323.12" y="-879.9" font-family="Cascadia Code" font-size="8.00">L_1DE93AF_b₁ = nil</text>
<text text-anchor="start" x="323.12" y="-870.15" font-family="Cascadia Code" font-size="8.00"># samples/branching2.lua 2,4:2,14</text>
<text text-anchor="start" x="323.12" y="-860.4" font-family="Cascadia Code" font-size="8.00">br BB1 if False else BB2</text>
</g>
<!-- BB1 -->
<g id="node2" class="node">
<title>BB1</title>
<polygon fill="#efefef" stroke="black" points="388.62,-818.25 224.12,-818.25 224.12,-751.75 388.62,-751.75 388.62,-818.25"/>
<text text-anchor="middle" x="306.38" y="-806.65" font-family="Cascadia Code" font-size="8.00">BB1:</text>
<text text-anchor="start" x="232.12" y="-796.9" font-family="Cascadia Code" font-size="8.00"># samples/branching2.lua 3,5:3,14</text>
<text text-anchor="start" x="232.12" y="-787.15" font-family="Cascadia Code" font-size="8.00">L_1DE93AF_a₃ = 3</text>
<text text-anchor="start" x="232.12" y="-777.4" font-family="Cascadia Code" font-size="8.00"># samples/branching2.lua 4,5:4,10</text>
<text text-anchor="start" x="232.12" y="-767.65" font-family="Cascadia Code" font-size="8.00">L_1DE93AF_b₂ = 2</text>
<text text-anchor="start" x="232.12" y="-757.9" font-family="Cascadia Code" font-size="8.00">br BB17</text>
</g>
<!-- BB0&#45;&gt;BB1 -->
<g id="edge1" class="edge">
<title>BB0&#45;&gt;BB1</title>
<path fill="none" stroke="black" d="M374.41,-853.85C366.1,-845.57 356.46,-835.94 347.08,-826.59"/>
<polygon fill="black" stroke="black" points="349.58,-824.14 340.03,-819.56 344.64,-829.1 349.58,-824.14"/>
</g>
<!-- BB2 -->
<g id="node3" class="node">
<title>BB2</title>
<polygon fill="#efefef" stroke="black" points="571.62,-803.62 407.12,-803.62 407.12,-766.38 571.62,-766.38 571.62,-803.62"/>
<text text-anchor="middle" x="489.38" y="-792.02" font-family="Cascadia Code" font-size="8.00">BB2:</text>
<text text-anchor="start" x="415.12" y="-782.27" font-family="Cascadia Code" font-size="8.00"># samples/branching2.lua 5,8:5,18</text>
<text text-anchor="start" x="415.12" y="-772.52" font-family="Cascadia Code" font-size="8.00">br BB3 if False else BB4</text>
</g>
<!-- BB0&#45;&gt;BB2 -->
<g id="edge2" class="edge">
<title>BB0&#45;&gt;BB2</title>
<path fill="none" stroke="black" d="M420.59,-853.85C433.55,-841.07 449.74,-825.1 463.15,-811.86"/>
<polygon fill="black" stroke="black" points="465.36,-814.61 470.02,-805.09 460.44,-809.62 465.36,-814.61"/>
</g>
<!-- BB17 -->
<g id="node18" class="node">
<title>BB17</title>
<polygon fill="#efefef" stroke="black" points="988.75,-56.75 0,-56.75 0,0 988.75,0 988.75,-56.75"/>
<text text-anchor="middle" x="494.38" y="-45.15" font-family="Cascadia Code" font-size="8.00">BB17:</text>
<text text-anchor="start" x="8" y="-35.4" font-family="Cascadia Code" font-size="8.00">L_1DE93AF_a₂₇ = ϕ([BB1: L_1DE93AF_a₃], [BB3: L_1DE93AF_a₆], [BB5: L_1DE93AF_a₉], [BB7: L_1DE93AF_a₁₂], [BB9: L_1DE93AF_a₁₅], [BB11: L_1DE93AF_a₁₈], [BB13: L_1DE93AF_a₂₁], [BB15: L_1DE93AF_a₂₄], [BB16: L_1DE93AF_a₂₆])</text>
<text text-anchor="start" x="8" y="-25.65" font-family="Cascadia Code" font-size="8.00">L_1DE93AF_b₁₈ = ϕ([BB1: L_1DE93AF_b₂], [BB3: L_1DE93AF_b₁], [BB5: L_1DE93AF_b₆], [BB7: L_1DE93AF_b₁], [BB9: L_1DE93AF_b₁₀], [BB11: L_1DE93AF_b₁], [BB13: L_1DE93AF_b₁₄], [BB15: L_1DE93AF_b₁], [BB16: L_1DE93AF_b₁₇])</text>
<text text-anchor="start" x="8" y="-15.9" font-family="Cascadia Code" font-size="8.00"># samples/branching2.lua 26,1:26,12</text>
<text text-anchor="start" x="8" y="-6.15" font-family="Cascadia Code" font-size="8.00">t₅₇ = $print(L_1DE93AF_a₂₇, L_1DE93AF_b₁₈)</text>
</g>
<!-- BB1&#45;&gt;BB17 -->
<g id="edge17" class="edge">
<title>BB1&#45;&gt;BB17</title>
<path fill="none" stroke="black" d="M306.38,-751.52C306.38,-714.84 306.38,-653.38 306.38,-600.5 306.38,-600.5 306.38,-600.5 306.38,-227.5 306.38,-157.85 337,-141.87 386.38,-92.75 397.71,-81.48 411.44,-71.45 425.26,-62.88"/>
<polygon fill="black" stroke="black" points="426.71,-66.09 433.51,-57.97 423.13,-60.08 426.71,-66.09"/>
</g>
<!-- BB3 -->
<g id="node4" class="node">
<title>BB3</title>
<polygon fill="#efefef" stroke="black" points="498.62,-715.75 334.12,-715.75 334.12,-668.75 498.62,-668.75 498.62,-715.75"/>
<text text-anchor="middle" x="416.38" y="-704.15" font-family="Cascadia Code" font-size="8.00">BB3:</text>
<text text-anchor="start" x="342.12" y="-694.4" font-family="Cascadia Code" font-size="8.00"># samples/branching2.lua 6,5:6,14</text>
<text text-anchor="start" x="342.12" y="-684.65" font-family="Cascadia Code" font-size="8.00">L_1DE93AF_a₆ = 4</text>
<text text-anchor="start" x="342.12" y="-674.9" font-family="Cascadia Code" font-size="8.00">br BB17</text>
</g>
<!-- BB2&#45;&gt;BB3 -->
<g id="edge3" class="edge">
<title>BB2&#45;&gt;BB3</title>
<path fill="none" stroke="black" d="M474.95,-766.07C465.48,-754.29 452.82,-738.56 441.7,-724.73"/>
<polygon fill="black" stroke="black" points="444.6,-722.76 435.61,-717.16 439.15,-727.14 444.6,-722.76"/>
</g>
<!-- BB4 -->
<g id="node5" class="node">
<title>BB4</title>
<polygon fill="#efefef" stroke="black" points="681.62,-710.88 517.12,-710.88 517.12,-673.62 681.62,-673.62 681.62,-710.88"/>
<text text-anchor="middle" x="599.38" y="-699.27" font-family="Cascadia Code" font-size="8.00">BB4:</text>
<text text-anchor="start" x="525.12" y="-689.52" font-family="Cascadia Code" font-size="8.00"># samples/branching2.lua 7,8:7,18</text>
<text text-anchor="start" x="525.12" y="-679.77" font-family="Cascadia Code" font-size="8.00">br BB5 if False else BB6</text>
</g>
<!-- BB2&#45;&gt;BB4 -->
<g id="edge4" class="edge">
<title>BB2&#45;&gt;BB4</title>
<path fill="none" stroke="black" d="M511.11,-766.07C527.6,-752.46 550.5,-733.57 568.84,-718.44"/>
<polygon fill="black" stroke="black" points="571.03,-721.17 576.52,-712.11 566.58,-715.77 571.03,-721.17"/>
</g>
<!-- BB3&#45;&gt;BB17 -->
<g id="edge18" class="edge">
<title>BB3&#45;&gt;BB17</title>
<path fill="none" stroke="black" d="M408.92,-668.36C398.37,-633.91 380.38,-566.51 380.38,-507.75 380.38,-507.75 380.38,-507.75 380.38,-227.5 380.38,-164.07 392.91,-146 427.38,-92.75 433.84,-82.77 442.19,-73.24 450.79,-64.75"/>
<polygon fill="black" stroke="black" points="453.09,-67.39 457.96,-57.98 448.28,-62.3 453.09,-67.39"/>
</g>
<!-- BB5 -->
<g id="node6" class="node">
<title>BB5</title>
<polygon fill="#efefef" stroke="black" points="572.62,-632.75 408.12,-632.75 408.12,-566.25 572.62,-566.25 572.62,-632.75"/>
<text text-anchor="middle" x="490.38" y="-621.15" font-family="Cascadia Code" font-size="8.00">BB5:</text>
<text text-anchor="start" x="416.12" y="-611.4" font-family="Cascadia Code" font-size="8.00"># samples/branching2.lua 8,5:8,14</text>
<text text-anchor="start" x="416.12" y="-601.65" font-family="Cascadia Code" font-size="8.00">L_1DE93AF_a₉ = 5</text>
<text text-anchor="start" x="416.12" y="-591.9" font-family="Cascadia Code" font-size="8.00"># samples/branching2.lua 9,5:9,10</text>
<text text-anchor="start" x="416.12" y="-582.15" font-family="Cascadia Code" font-size="8.00">L_1DE93AF_b₆ = 4</text>
<text text-anchor="start" x="416.12" y="-572.4" font-family="Cascadia Code" font-size="8.00">br BB17</text>
</g>
<!-- BB4&#45;&gt;BB5 -->
<g id="edge5" class="edge">
<title>BB4&#45;&gt;BB5</title>
<path fill="none" stroke="black" d="M577.84,-673.32C566.43,-663.82 551.94,-651.76 538.05,-640.19"/>
<polygon fill="black" stroke="black" points="540.6,-637.76 530.68,-634.05 536.12,-643.14 540.6,-637.76"/>
</g>
<!-- BB6 -->
<g id="node7" class="node">
<title>BB6</title>
<polygon fill="#efefef" stroke="black" points="764.12,-618.12 590.62,-618.12 590.62,-580.88 764.12,-580.88 764.12,-618.12"/>
<text text-anchor="middle" x="677.38" y="-606.52" font-family="Cascadia Code" font-size="8.00">BB6:</text>
<text text-anchor="start" x="598.62" y="-596.77" font-family="Cascadia Code" font-size="8.00"># samples/branching2.lua 10,8:10,18</text>
<text text-anchor="start" x="598.62" y="-587.02" font-family="Cascadia Code" font-size="8.00">br BB7 if False else BB8</text>
</g>
<!-- BB4&#45;&gt;BB6 -->
<g id="edge6" class="edge">
<title>BB4&#45;&gt;BB6</title>
<path fill="none" stroke="black" d="M614.79,-673.32C626.22,-660.02 641.98,-641.68 654.82,-626.74"/>
<polygon fill="black" stroke="black" points="657.15,-629.4 661.01,-619.54 651.84,-624.84 657.15,-629.4"/>
</g>
<!-- BB5&#45;&gt;BB17 -->
<g id="edge19" class="edge">
<title>BB5&#45;&gt;BB17</title>
<path fill="none" stroke="black" d="M459.79,-565.93C451.3,-555.27 442.9,-542.9 437.38,-530.25 416.59,-482.68 418.38,-466.91 418.38,-415 418.38,-415 418.38,-415 418.38,-227.5 418.38,-168.32 448.3,-105.39 470.6,-66.73"/>
<polygon fill="black" stroke="black" points="473.52,-68.66 475.59,-58.27 467.5,-65.1 473.52,-68.66"/>
</g>
<!-- BB7 -->
<g id="node8" class="node">
<title>BB7</title>
<polygon fill="#efefef" stroke="black" points="620.12,-530.25 446.62,-530.25 446.62,-483.25 620.12,-483.25 620.12,-530.25"/>
<text text-anchor="middle" x="533.38" y="-518.65" font-family="Cascadia Code" font-size="8.00">BB7:</text>
<text text-anchor="start" x="454.62" y="-508.9" font-family="Cascadia Code" font-size="8.00"># samples/branching2.lua 11,5:11,14</text>
<text text-anchor="start" x="454.62" y="-499.15" font-family="Cascadia Code" font-size="8.00">L_1DE93AF_a₁₂ = 6</text>
<text text-anchor="start" x="454.62" y="-489.4" font-family="Cascadia Code" font-size="8.00">br BB17</text>
</g>
<!-- BB6&#45;&gt;BB7 -->
<g id="edge7" class="edge">
<title>BB6&#45;&gt;BB7</title>
<path fill="none" stroke="black" d="M648.93,-580.57C629.06,-568.05 602.11,-551.07 579.23,-536.65"/>
<polygon fill="black" stroke="black" points="581.31,-533.82 570.99,-531.45 577.58,-539.75 581.31,-533.82"/>
</g>
<!-- BB8 -->
<g id="node9" class="node">
<title>BB8</title>
<polygon fill="#efefef" stroke="black" points="812.12,-525.38 638.62,-525.38 638.62,-488.12 812.12,-488.12 812.12,-525.38"/>
<text text-anchor="middle" x="725.38" y="-513.77" font-family="Cascadia Code" font-size="8.00">BB8:</text>
<text text-anchor="start" x="646.62" y="-504.02" font-family="Cascadia Code" font-size="8.00"># samples/branching2.lua 12,8:12,18</text>
<text text-anchor="start" x="646.62" y="-494.27" font-family="Cascadia Code" font-size="8.00">br BB9 if False else BB10</text>
</g>
<!-- BB6&#45;&gt;BB8 -->
<g id="edge8" class="edge">
<title>BB6&#45;&gt;BB8</title>
<path fill="none" stroke="black" d="M686.86,-580.57C693.63,-567.77 702.87,-550.3 710.6,-535.68"/>
<polygon fill="black" stroke="black" points="713.62,-537.46 715.2,-526.98 707.43,-534.18 713.62,-537.46"/>
</g>
<!-- BB7&#45;&gt;BB17 -->
<g id="edge20" class="edge">
<title>BB7&#45;&gt;BB17</title>
<path fill="none" stroke="black" d="M503.99,-482.98C493.3,-473.15 482.19,-460.79 475.38,-447.25 450.13,-397.05 456.38,-378.44 456.38,-322.25 456.38,-322.25 456.38,-322.25 456.38,-227.5 456.38,-171.24 471.34,-107.57 482.49,-67.95"/>
<polygon fill="black" stroke="black" points="485.83,-68.98 485.24,-58.4 479.1,-67.04 485.83,-68.98"/>
</g>
<!-- BB9 -->
<g id="node10" class="node">
<title>BB9</title>
<polygon fill="#efefef" stroke="black" points="658.12,-447.25 484.62,-447.25 484.62,-380.75 658.12,-380.75 658.12,-447.25"/>
<text text-anchor="middle" x="571.38" y="-435.65" font-family="Cascadia Code" font-size="8.00">BB9:</text>
<text text-anchor="start" x="492.62" y="-425.9" font-family="Cascadia Code" font-size="8.00"># samples/branching2.lua 13,5:13,14</text>
<text text-anchor="start" x="492.62" y="-416.15" font-family="Cascadia Code" font-size="8.00">L_1DE93AF_a₁₅ = 7</text>
<text text-anchor="start" x="492.62" y="-406.4" font-family="Cascadia Code" font-size="8.00"># samples/branching2.lua 14,5:14,10</text>
<text text-anchor="start" x="492.62" y="-396.65" font-family="Cascadia Code" font-size="8.00">L_1DE93AF_b₁₀ = 6</text>
<text text-anchor="start" x="492.62" y="-386.9" font-family="Cascadia Code" font-size="8.00">br BB17</text>
</g>
<!-- BB8&#45;&gt;BB9 -->
<g id="edge9" class="edge">
<title>BB8&#45;&gt;BB9</title>
<path fill="none" stroke="black" d="M694.95,-487.82C678.23,-477.97 656.81,-465.34 636.52,-453.39"/>
<polygon fill="black" stroke="black" points="638.37,-450.41 627.97,-448.35 634.81,-456.45 638.37,-450.41"/>
</g>
<!-- BB10 -->
<g id="node11" class="node">
<title>BB10</title>
<polygon fill="#efefef" stroke="black" points="850.12,-432.62 676.62,-432.62 676.62,-395.38 850.12,-395.38 850.12,-432.62"/>
<text text-anchor="middle" x="763.38" y="-421.02" font-family="Cascadia Code" font-size="8.00">BB10:</text>
<text text-anchor="start" x="684.62" y="-411.27" font-family="Cascadia Code" font-size="8.00"># samples/branching2.lua 15,8:15,18</text>
<text text-anchor="start" x="684.62" y="-401.52" font-family="Cascadia Code" font-size="8.00">br BB11 if False else BB12</text>
</g>
<!-- BB8&#45;&gt;BB10 -->
<g id="edge10" class="edge">
<title>BB8&#45;&gt;BB10</title>
<path fill="none" stroke="black" d="M732.88,-487.82C738.19,-475.14 745.42,-457.89 751.5,-443.35"/>
<polygon fill="black" stroke="black" points="754.66,-444.86 755.3,-434.29 748.21,-442.16 754.66,-444.86"/>
</g>
<!-- BB9&#45;&gt;BB17 -->
<g id="edge21" class="edge">
<title>BB9&#45;&gt;BB17</title>
<path fill="none" stroke="black" d="M536.43,-380.5C527.31,-370.02 518.6,-357.73 513.38,-344.75 475.79,-251.28 482.36,-129.6 489.07,-68.3"/>
<polygon fill="black" stroke="black" points="492.5,-69.06 490.18,-58.72 485.55,-68.25 492.5,-69.06"/>
</g>
<!-- BB11 -->
<g id="node12" class="node">
<title>BB11</title>
<polygon fill="#efefef" stroke="black" points="696.12,-344.75 522.62,-344.75 522.62,-297.75 696.12,-297.75 696.12,-344.75"/>
<text text-anchor="middle" x="609.38" y="-333.15" font-family="Cascadia Code" font-size="8.00">BB11:</text>
<text text-anchor="start" x="530.62" y="-323.4" font-family="Cascadia Code" font-size="8.00"># samples/branching2.lua 16,5:16,14</text>
<text text-anchor="start" x="530.62" y="-313.65" font-family="Cascadia Code" font-size="8.00">L_1DE93AF_a₁₈ = 8</text>
<text text-anchor="start" x="530.62" y="-303.9" font-family="Cascadia Code" font-size="8.00">br BB17</text>
</g>
<!-- BB10&#45;&gt;BB11 -->
<g id="edge11" class="edge">
<title>BB10&#45;&gt;BB11</title>
<path fill="none" stroke="black" d="M732.95,-395.07C711.61,-382.49 682.62,-365.41 658.09,-350.96"/>
<polygon fill="black" stroke="black" points="659.93,-347.98 649.54,-345.92 656.37,-354.01 659.93,-347.98"/>
</g>
<!-- BB12 -->
<g id="node13" class="node">
<title>BB12</title>
<polygon fill="#efefef" stroke="black" points="888.12,-339.88 714.62,-339.88 714.62,-302.62 888.12,-302.62 888.12,-339.88"/>
<text text-anchor="middle" x="801.38" y="-328.27" font-family="Cascadia Code" font-size="8.00">BB12:</text>
<text text-anchor="start" x="722.62" y="-318.52" font-family="Cascadia Code" font-size="8.00"># samples/branching2.lua 17,8:17,18</text>
<text text-anchor="start" x="722.62" y="-308.77" font-family="Cascadia Code" font-size="8.00">br BB13 if False else BB14</text>
</g>
<!-- BB10&#45;&gt;BB12 -->
<g id="edge12" class="edge">
<title>BB10&#45;&gt;BB12</title>
<path fill="none" stroke="black" d="M770.88,-395.07C776.19,-382.39 783.42,-365.14 789.5,-350.6"/>
<polygon fill="black" stroke="black" points="792.66,-352.11 793.3,-341.54 786.21,-349.41 792.66,-352.11"/>
</g>
<!-- BB11&#45;&gt;BB17 -->
<g id="edge22" class="edge">
<title>BB11&#45;&gt;BB17</title>
<path fill="none" stroke="black" d="M580.91,-297.43C570.22,-287.51 558.86,-275.1 551.38,-261.75 546.6,-253.23 518.04,-131.65 503.25,-67.85"/>
<polygon fill="black" stroke="black" points="506.75,-67.44 501.08,-58.49 499.93,-69.02 506.75,-67.44"/>
</g>
<!-- BB13 -->
<g id="node14" class="node">
<title>BB13</title>
<polygon fill="#efefef" stroke="black" points="734.12,-261.75 560.62,-261.75 560.62,-195.25 734.12,-195.25 734.12,-261.75"/>
<text text-anchor="middle" x="647.38" y="-250.15" font-family="Cascadia Code" font-size="8.00">BB13:</text>
<text text-anchor="start" x="568.62" y="-240.4" font-family="Cascadia Code" font-size="8.00"># samples/branching2.lua 18,5:18,14</text>
<text text-anchor="start" x="568.62" y="-230.65" font-family="Cascadia Code" font-size="8.00">L_1DE93AF_a₂₁ = 9</text>
<text text-anchor="start" x="568.62" y="-220.9" font-family="Cascadia Code" font-size="8.00"># samples/branching2.lua 19,5:19,10</text>
<text text-anchor="start" x="568.62" y="-211.15" font-family="Cascadia Code" font-size="8.00">L_1DE93AF_b₁₄ = 8</text>
<text text-anchor="start" x="568.62" y="-201.4" font-family="Cascadia Code" font-size="8.00">br BB17</text>
</g>
<!-- BB12&#45;&gt;BB13 -->
<g id="edge13" class="edge">
<title>BB12&#45;&gt;BB13</title>
<path fill="none" stroke="black" d="M770.95,-302.32C754.23,-292.47 732.81,-279.84 712.52,-267.89"/>
<polygon fill="black" stroke="black" points="714.37,-264.91 703.97,-262.85 710.81,-270.95 714.37,-264.91"/>
</g>
<!-- BB14 -->
<g id="node15" class="node">
<title>BB14</title>
<polygon fill="#efefef" stroke="black" points="926.12,-247.12 752.62,-247.12 752.62,-209.88 926.12,-209.88 926.12,-247.12"/>
<text text-anchor="middle" x="839.38" y="-235.53" font-family="Cascadia Code" font-size="8.00">BB14:</text>
<text text-anchor="start" x="760.62" y="-225.78" font-family="Cascadia Code" font-size="8.00"># samples/branching2.lua 20,8:20,18</text>
<text text-anchor="start" x="760.62" y="-216.03" font-family="Cascadia Code" font-size="8.00">br BB15 if False else BB16</text>
</g>
<!-- BB12&#45;&gt;BB14 -->
<g id="edge14" class="edge">
<title>BB12&#45;&gt;BB14</title>
<path fill="none" stroke="black" d="M808.88,-302.32C814.19,-289.64 821.42,-272.39 827.5,-257.85"/>
<polygon fill="black" stroke="black" points="830.66,-259.36 831.3,-248.79 824.21,-256.66 830.66,-259.36"/>
</g>
<!-- BB13&#45;&gt;BB17 -->
<g id="edge23" class="edge">
<title>BB13&#45;&gt;BB17</title>
<path fill="none" stroke="black" d="M618.16,-194.88C608.66,-183.82 598.28,-171.23 589.38,-159.25 568.38,-131 567.13,-121.18 546.38,-92.75 539.9,-83.88 532.6,-74.59 525.56,-65.95"/>
<polygon fill="black" stroke="black" points="528.4,-63.89 519.33,-58.39 522.99,-68.34 528.4,-63.89"/>
</g>
<!-- BB15 -->
<g id="node16" class="node">
<title>BB15</title>
<polygon fill="#efefef" stroke="black" points="772.12,-149.5 598.62,-149.5 598.62,-102.5 772.12,-102.5 772.12,-149.5"/>
<text text-anchor="middle" x="685.38" y="-137.9" font-family="Cascadia Code" font-size="8.00">BB15:</text>
<text text-anchor="start" x="606.62" y="-128.15" font-family="Cascadia Code" font-size="8.00"># samples/branching2.lua 21,5:21,14</text>
<text text-anchor="start" x="606.62" y="-118.4" font-family="Cascadia Code" font-size="8.00">L_1DE93AF_a₂₄ = 10</text>
<text text-anchor="start" x="606.62" y="-108.65" font-family="Cascadia Code" font-size="8.00">br BB17</text>
</g>
<!-- BB14&#45;&gt;BB15 -->
<g id="edge15" class="edge">
<title>BB14&#45;&gt;BB15</title>
<path fill="none" stroke="black" d="M811.84,-209.53C789.11,-194.7 756.41,-173.36 729.95,-156.09"/>
<polygon fill="black" stroke="black" points="732.07,-153.3 721.78,-150.76 728.25,-159.16 732.07,-153.3"/>
</g>
<!-- BB16 -->
<g id="node17" class="node">
<title>BB16</title>
<polygon fill="#efefef" stroke="black" points="964.12,-159.25 790.62,-159.25 790.62,-92.75 964.12,-92.75 964.12,-159.25"/>
<text text-anchor="middle" x="877.38" y="-147.65" font-family="Cascadia Code" font-size="8.00">BB16:</text>
<text text-anchor="start" x="798.62" y="-137.9" font-family="Cascadia Code" font-size="8.00"># samples/branching2.lua 23,5:23,15</text>
<text text-anchor="start" x="798.62" y="-128.15" font-family="Cascadia Code" font-size="8.00">L_1DE93AF_a₂₆ = 11</text>
<text text-anchor="start" x="798.62" y="-118.4" font-family="Cascadia Code" font-size="8.00"># samples/branching2.lua 24,5:24,11</text>
<text text-anchor="start" x="798.62" y="-108.65" font-family="Cascadia Code" font-size="8.00">L_1DE93AF_b₁₇ = 10</text>
<text text-anchor="start" x="798.62" y="-98.9" font-family="Cascadia Code" font-size="8.00">br BB17</text>
</g>
<!-- BB14&#45;&gt;BB16 -->
<g id="edge16" class="edge">
<title>BB14&#45;&gt;BB16</title>
<path fill="none" stroke="black" d="M846.17,-209.53C850.35,-198.46 855.91,-183.77 861.17,-169.86"/>
<polygon fill="black" stroke="black" points="864.31,-171.44 864.58,-160.85 857.76,-168.97 864.31,-171.44"/>
</g>
<!-- BB15&#45;&gt;BB17 -->
<g id="edge24" class="edge">
<title>BB15&#45;&gt;BB17</title>
<path fill="none" stroke="black" d="M639.63,-102.1C615.85,-90.19 586.37,-75.43 560.2,-62.33"/>
<polygon fill="black" stroke="black" points="561.83,-59.23 551.32,-57.89 558.7,-65.49 561.83,-59.23"/>
</g>
<!-- BB16&#45;&gt;BB17 -->
<g id="edge25" class="edge">
<title>BB16&#45;&gt;BB17</title>
<path fill="none" stroke="black" d="M790.38,-95.32C787.35,-94.43 784.34,-93.57 781.38,-92.75 737.63,-80.61 689.64,-69.26 645.62,-59.6"/>
<polygon fill="black" stroke="black" points="646.52,-56.22 636,-57.51 645.03,-63.06 646.52,-56.22"/>
</g>
</g>
</svg>
