<?xml version="1.0" encoding="UTF-8" standalone="no"?>
<!DOCTYPE svg PUBLIC "-//W3C//DTD SVG 1.1//EN"
 "http://www.w3.org/Graphics/SVG/1.1/DTD/svg11.dtd">
<!-- Generated by graphviz version 10.0.1 (0)
 -->
<!-- Pages: 1 -->
<svg width="454pt" height="501pt"
 viewBox="0.00 0.00 454.00 501.25" xmlns="http://www.w3.org/2000/svg" xmlns:xlink="http://www.w3.org/1999/xlink">
<g id="graph0" class="graph" transform="scale(1 1) rotate(0) translate(4 497.25)">
<polygon fill="white" stroke="none" points="-4,4 -4,-497.25 450,-497.25 450,4 -4,4"/>
<!-- BB0 -->
<g id="node1" class="node">
<title>BB0</title>
<polygon fill="#efefef" stroke="black" points="252.25,-493.25 87.75,-493.25 87.75,-339 252.25,-339 252.25,-493.25"/>
<text text-anchor="middle" x="170" y="-481.65" font-family="Cascadia Code" font-size="8.00">BB0:</text>
<text text-anchor="start" x="95.75" y="-471.9" font-family="Cascadia Code" font-size="8.00">L_2_print₁ = nil</text>
<text text-anchor="start" x="95.75" y="-462.15" font-family="Cascadia Code" font-size="8.00">L_2_print₂ = $print</text>
<text text-anchor="start" x="95.75" y="-452.4" font-family="Cascadia Code" font-size="8.00"># samples/branching.lua 1,1:1,8</text>
<text text-anchor="start" x="95.75" y="-442.65" font-family="Cascadia Code" font-size="8.00">L_3_a₁ = nil</text>
<text text-anchor="start" x="95.75" y="-432.9" font-family="Cascadia Code" font-size="8.00"># samples/branching.lua 3,8:3,9</text>
<text text-anchor="start" x="95.75" y="-423.15" font-family="Cascadia Code" font-size="8.00">t₁ = 2</text>
<text text-anchor="start" x="95.75" y="-413.4" font-family="Cascadia Code" font-size="8.00"># samples/branching.lua 3,4:3,9</text>
<text text-anchor="start" x="95.75" y="-403.65" font-family="Cascadia Code" font-size="8.00">t₂ = mod L_3_a₁, t₁</text>
<text text-anchor="start" x="95.75" y="-393.9" font-family="Cascadia Code" font-size="8.00"># samples/branching.lua 3,13:3,14</text>
<text text-anchor="start" x="95.75" y="-384.15" font-family="Cascadia Code" font-size="8.00">t₃ = 0</text>
<text text-anchor="start" x="95.75" y="-374.4" font-family="Cascadia Code" font-size="8.00"># samples/branching.lua 3,4:3,14</text>
<text text-anchor="start" x="95.75" y="-364.65" font-family="Cascadia Code" font-size="8.00">t₄ = eq t₂, t₃</text>
<text text-anchor="start" x="95.75" y="-354.9" font-family="Cascadia Code" font-size="8.00"># samples/branching.lua 3,4:3,14</text>
<text text-anchor="start" x="95.75" y="-345.15" font-family="Cascadia Code" font-size="8.00">br BB1 if t₄ else BB2</text>
</g>
<!-- BB1 -->
<g id="node2" class="node">
<title>BB1</title>
<polygon fill="#efefef" stroke="black" points="160,-278.62 0,-278.62 0,-212.12 160,-212.12 160,-278.62"/>
<text text-anchor="middle" x="80" y="-267.02" font-family="Cascadia Code" font-size="8.00">BB1:</text>
<text text-anchor="start" x="8" y="-257.27" font-family="Cascadia Code" font-size="8.00"># samples/branching.lua 4,9:4,10</text>
<text text-anchor="start" x="8" y="-247.53" font-family="Cascadia Code" font-size="8.00">t₅ = 3</text>
<text text-anchor="start" x="8" y="-237.78" font-family="Cascadia Code" font-size="8.00"># samples/branching.lua 4,5:4,10</text>
<text text-anchor="start" x="8" y="-228.03" font-family="Cascadia Code" font-size="8.00">L_3_a₂ = t₅</text>
<text text-anchor="start" x="8" y="-218.28" font-family="Cascadia Code" font-size="8.00">br BB5</text>
</g>
<!-- BB0&#45;&gt;BB1 -->
<g id="edge1" class="edge">
<title>BB0&#45;&gt;BB1</title>
<path fill="none" stroke="black" d="M129.21,-338.65C120.14,-321.64 110.84,-304.21 102.81,-289.13"/>
<polygon fill="black" stroke="black" points="105.97,-287.62 98.17,-280.45 99.79,-290.92 105.97,-287.62"/>
</g>
<!-- BB2 -->
<g id="node3" class="node">
<title>BB2</title>
<polygon fill="#efefef" stroke="black" points="342.25,-303 177.75,-303 177.75,-187.75 342.25,-187.75 342.25,-303"/>
<text text-anchor="middle" x="260" y="-291.4" font-family="Cascadia Code" font-size="8.00">BB2:</text>
<text text-anchor="start" x="185.75" y="-281.65" font-family="Cascadia Code" font-size="8.00"># samples/branching.lua 5,12:5,13</text>
<text text-anchor="start" x="185.75" y="-271.9" font-family="Cascadia Code" font-size="8.00">t₆ = 3</text>
<text text-anchor="start" x="185.75" y="-262.15" font-family="Cascadia Code" font-size="8.00"># samples/branching.lua 5,8:5,13</text>
<text text-anchor="start" x="185.75" y="-252.4" font-family="Cascadia Code" font-size="8.00">t₇ = mod L_3_a₁, t₆</text>
<text text-anchor="start" x="185.75" y="-242.65" font-family="Cascadia Code" font-size="8.00"># samples/branching.lua 5,17:5,18</text>
<text text-anchor="start" x="185.75" y="-232.9" font-family="Cascadia Code" font-size="8.00">t₈ = 0</text>
<text text-anchor="start" x="185.75" y="-223.15" font-family="Cascadia Code" font-size="8.00"># samples/branching.lua 5,8:5,18</text>
<text text-anchor="start" x="185.75" y="-213.4" font-family="Cascadia Code" font-size="8.00">t₉ = eq t₇, t₈</text>
<text text-anchor="start" x="185.75" y="-203.65" font-family="Cascadia Code" font-size="8.00"># samples/branching.lua 5,8:5,18</text>
<text text-anchor="start" x="185.75" y="-193.9" font-family="Cascadia Code" font-size="8.00">br BB3 if t₉ else BB4</text>
</g>
<!-- BB0&#45;&gt;BB2 -->
<g id="edge2" class="edge">
<title>BB0&#45;&gt;BB2</title>
<path fill="none" stroke="black" d="M210.79,-338.65C215.28,-330.22 219.84,-321.68 224.27,-313.38"/>
<polygon fill="black" stroke="black" points="227.26,-315.19 228.88,-304.72 221.09,-311.9 227.26,-315.19"/>
</g>
<!-- BB5 -->
<g id="node6" class="node">
<title>BB5</title>
<polygon fill="#efefef" stroke="black" points="320.5,-49.25 55.5,-49.25 55.5,0 320.5,0 320.5,-49.25"/>
<text text-anchor="middle" x="188" y="-37.65" font-family="Cascadia Code" font-size="8.00">BB5:</text>
<text text-anchor="start" x="63.5" y="-27.9" font-family="Cascadia Code" font-size="8.00">L_3_a₆ = ϕ([BB1: L_3_a₂], [BB3: L_3_a₄], [BB4: L_3_a₅])</text>
<text text-anchor="start" x="63.5" y="-15.9" font-family="Cascadia Code" font-size="8.00"># samples/branching.lua 11,1:11,9</text>
<text text-anchor="start" x="63.5" y="-6.15" font-family="Cascadia Code" font-size="8.00">t₁₂ = L_2_print₂(L_3_a₆)</text>
</g>
<!-- BB1&#45;&gt;BB5 -->
<g id="edge5" class="edge">
<title>BB1&#45;&gt;BB5</title>
<path fill="none" stroke="black" d="M76.3,-211.63C74.09,-177.53 75.38,-123.8 99,-85.25 105.98,-73.85 116.06,-64.15 126.95,-56.1"/>
<polygon fill="black" stroke="black" points="128.72,-59.13 134.98,-50.58 124.76,-53.36 128.72,-59.13"/>
</g>
<!-- BB3 -->
<g id="node4" class="node">
<title>BB3</title>
<polygon fill="#efefef" stroke="black" points="268,-151.75 108,-151.75 108,-85.25 268,-85.25 268,-151.75"/>
<text text-anchor="middle" x="188" y="-140.15" font-family="Cascadia Code" font-size="8.00">BB3:</text>
<text text-anchor="start" x="116" y="-130.4" font-family="Cascadia Code" font-size="8.00"># samples/branching.lua 6,9:6,10</text>
<text text-anchor="start" x="116" y="-120.65" font-family="Cascadia Code" font-size="8.00">t₁₀ = 5</text>
<text text-anchor="start" x="116" y="-110.9" font-family="Cascadia Code" font-size="8.00"># samples/branching.lua 6,5:6,10</text>
<text text-anchor="start" x="116" y="-101.15" font-family="Cascadia Code" font-size="8.00">L_3_a₄ = t₁₀</text>
<text text-anchor="start" x="116" y="-91.4" font-family="Cascadia Code" font-size="8.00">br BB5</text>
</g>
<!-- BB2&#45;&gt;BB3 -->
<g id="edge3" class="edge">
<title>BB2&#45;&gt;BB3</title>
<path fill="none" stroke="black" d="M227.16,-187.42C222.2,-178.82 217.17,-170.08 212.43,-161.87"/>
<polygon fill="black" stroke="black" points="215.6,-160.37 207.58,-153.45 209.54,-163.87 215.6,-160.37"/>
</g>
<!-- BB4 -->
<g id="node5" class="node">
<title>BB4</title>
<polygon fill="#efefef" stroke="black" points="446,-151.75 286,-151.75 286,-85.25 446,-85.25 446,-151.75"/>
<text text-anchor="middle" x="366" y="-140.15" font-family="Cascadia Code" font-size="8.00">BB4:</text>
<text text-anchor="start" x="294" y="-130.4" font-family="Cascadia Code" font-size="8.00"># samples/branching.lua 8,9:8,10</text>
<text text-anchor="start" x="294" y="-120.65" font-family="Cascadia Code" font-size="8.00">t₁₁ = 7</text>
<text text-anchor="start" x="294" y="-110.9" font-family="Cascadia Code" font-size="8.00"># samples/branching.lua 8,5:8,10</text>
<text text-anchor="start" x="294" y="-101.15" font-family="Cascadia Code" font-size="8.00">L_3_a₅ = t₁₁</text>
<text text-anchor="start" x="294" y="-91.4" font-family="Cascadia Code" font-size="8.00">br BB5</text>
</g>
<!-- BB2&#45;&gt;BB4 -->
<g id="edge4" class="edge">
<title>BB2&#45;&gt;BB4</title>
<path fill="none" stroke="black" d="M308.35,-187.42C315.97,-178.44 323.71,-169.32 330.95,-160.79"/>
<polygon fill="black" stroke="black" points="333.51,-163.19 337.31,-153.3 328.17,-158.66 333.51,-163.19"/>
</g>
<!-- BB3&#45;&gt;BB5 -->
<g id="edge6" class="edge">
<title>BB3&#45;&gt;BB5</title>
<path fill="none" stroke="black" d="M188,-84.85C188,-77.11 188,-68.82 188,-60.96"/>
<polygon fill="black" stroke="black" points="191.5,-61.02 188,-51.02 184.5,-61.02 191.5,-61.02"/>
</g>
<!-- BB4&#45;&gt;BB5 -->
<g id="edge7" class="edge">
<title>BB4&#45;&gt;BB5</title>
<path fill="none" stroke="black" d="M302.74,-84.85C283.77,-75.06 263.09,-64.39 244.58,-54.83"/>
<polygon fill="black" stroke="black" points="246.38,-51.82 235.89,-50.34 243.17,-58.04 246.38,-51.82"/>
</g>
</g>
</svg>
