<?xml version="1.0" encoding="UTF-8" standalone="no"?>
<!DOCTYPE svg PUBLIC "-//W3C//DTD SVG 1.1//EN"
 "http://www.w3.org/Graphics/SVG/1.1/DTD/svg11.dtd">
<!-- Generated by graphviz version 10.0.1 (0)
 -->
<!-- Pages: 1 -->
<svg width="257pt" height="354pt"
 viewBox="0.00 0.00 256.75 353.75" xmlns="http://www.w3.org/2000/svg" xmlns:xlink="http://www.w3.org/1999/xlink">
<g id="graph0" class="graph" transform="scale(1 1) rotate(0) translate(4 349.75)">
<polygon fill="white" stroke="none" points="-4,4 -4,-349.75 252.75,-349.75 252.75,4 -4,4"/>
<!-- BB0 -->
<g id="node1" class="node">
<title>BB0</title>
<polygon fill="#efefef" stroke="black" points="185.75,-345.75 25.75,-345.75 25.75,-269.5 185.75,-269.5 185.75,-345.75"/>
<text text-anchor="middle" x="105.75" y="-334.15" font-family="Cascadia Code" font-size="8.00">BB0:</text>
<text text-anchor="start" x="33.75" y="-324.4" font-family="Cascadia Code" font-size="8.00"># samples/branching.lua 3,4:3,9</text>
<text text-anchor="start" x="33.75" y="-314.65" font-family="Cascadia Code" font-size="8.00">t₂ = mod nil, 2</text>
<text text-anchor="start" x="33.75" y="-304.9" font-family="Cascadia Code" font-size="8.00"># samples/branching.lua 3,4:3,14</text>
<text text-anchor="start" x="33.75" y="-295.15" font-family="Cascadia Code" font-size="8.00">t₄ = eq t₂, 0</text>
<text text-anchor="start" x="33.75" y="-285.4" font-family="Cascadia Code" font-size="8.00"># samples/branching.lua 3,4:3,14</text>
<text text-anchor="start" x="33.75" y="-275.65" font-family="Cascadia Code" font-size="8.00">br BB1 if t₄ else BB2</text>
</g>
<!-- BB1 -->
<g id="node2" class="node">
<title>BB1</title>
<polygon fill="#efefef" stroke="black" points="70.75,-213.38 16.75,-213.38 16.75,-177.38 70.75,-177.38 70.75,-213.38"/>
<text text-anchor="middle" x="43.75" y="-197.53" font-family="Cascadia Code" font-size="8.00">BB1:</text>
<text text-anchor="start" x="24.75" y="-187.78" font-family="Cascadia Code" font-size="8.00">br BB5</text>
</g>
<!-- BB0&#45;&gt;BB1 -->
<g id="edge1" class="edge">
<title>BB0&#45;&gt;BB1</title>
<path fill="none" stroke="black" d="M84.76,-269.3C76.31,-254.27 66.74,-237.25 58.97,-223.44"/>
<polygon fill="black" stroke="black" points="62.13,-221.91 54.18,-214.91 56.03,-225.35 62.13,-221.91"/>
</g>
<!-- BB2 -->
<g id="node3" class="node">
<title>BB2</title>
<polygon fill="#efefef" stroke="black" points="248.75,-233.5 88.75,-233.5 88.75,-157.25 248.75,-157.25 248.75,-233.5"/>
<text text-anchor="middle" x="168.75" y="-221.9" font-family="Cascadia Code" font-size="8.00">BB2:</text>
<text text-anchor="start" x="96.75" y="-212.15" font-family="Cascadia Code" font-size="8.00"># samples/branching.lua 5,8:5,13</text>
<text text-anchor="start" x="96.75" y="-202.4" font-family="Cascadia Code" font-size="8.00">t₇ = mod nil, 3</text>
<text text-anchor="start" x="96.75" y="-192.65" font-family="Cascadia Code" font-size="8.00"># samples/branching.lua 5,8:5,18</text>
<text text-anchor="start" x="96.75" y="-182.9" font-family="Cascadia Code" font-size="8.00">t₉ = eq t₇, 0</text>
<text text-anchor="start" x="96.75" y="-173.15" font-family="Cascadia Code" font-size="8.00"># samples/branching.lua 5,8:5,18</text>
<text text-anchor="start" x="96.75" y="-163.4" font-family="Cascadia Code" font-size="8.00">br BB3 if t₉ else BB4</text>
</g>
<!-- BB0&#45;&gt;BB2 -->
<g id="edge2" class="edge">
<title>BB0&#45;&gt;BB2</title>
<path fill="none" stroke="black" d="M127.08,-269.3C131.8,-261.04 136.86,-252.18 141.77,-243.58"/>
<polygon fill="black" stroke="black" points="144.77,-245.4 146.69,-234.98 138.69,-241.92 144.77,-245.4"/>
</g>
<!-- BB5 -->
<g id="node6" class="node">
<title>BB5</title>
<polygon fill="#efefef" stroke="black" points="197.5,-49.25 0,-49.25 0,0 197.5,0 197.5,-49.25"/>
<text text-anchor="middle" x="98.75" y="-37.65" font-family="Cascadia Code" font-size="8.00">BB5:</text>
<text text-anchor="start" x="8" y="-27.9" font-family="Cascadia Code" font-size="8.00">L_3_a₆ = ϕ([BB1: 3], [BB3: 5], [BB4: 7])</text>
<text text-anchor="start" x="8" y="-15.9" font-family="Cascadia Code" font-size="8.00"># samples/branching.lua 11,1:11,9</text>
<text text-anchor="start" x="8" y="-6.15" font-family="Cascadia Code" font-size="8.00">t₁₂ = $print(L_3_a₆)</text>
</g>
<!-- BB1&#45;&gt;BB5 -->
<g id="edge5" class="edge">
<title>BB1&#45;&gt;BB5</title>
<path fill="none" stroke="black" d="M44.77,-177.23C46.52,-155.29 51.1,-116.41 62.75,-85.25 66.06,-76.39 70.71,-67.38 75.57,-59.14"/>
<polygon fill="black" stroke="black" points="78.43,-61.16 80.73,-50.81 72.48,-57.47 78.43,-61.16"/>
</g>
<!-- BB3 -->
<g id="node4" class="node">
<title>BB3</title>
<polygon fill="#efefef" stroke="black" points="125.75,-121.25 71.75,-121.25 71.75,-85.25 125.75,-85.25 125.75,-121.25"/>
<text text-anchor="middle" x="98.75" y="-105.4" font-family="Cascadia Code" font-size="8.00">BB3:</text>
<text text-anchor="start" x="79.75" y="-95.65" font-family="Cascadia Code" font-size="8.00">br BB5</text>
</g>
<!-- BB2&#45;&gt;BB3 -->
<g id="edge3" class="edge">
<title>BB2&#45;&gt;BB3</title>
<path fill="none" stroke="black" d="M139.67,-156.94C132.69,-147.94 125.37,-138.53 118.9,-130.19"/>
<polygon fill="black" stroke="black" points="121.83,-128.25 112.93,-122.5 116.3,-132.55 121.83,-128.25"/>
</g>
<!-- BB4 -->
<g id="node5" class="node">
<title>BB4</title>
<polygon fill="#efefef" stroke="black" points="197.75,-121.25 143.75,-121.25 143.75,-85.25 197.75,-85.25 197.75,-121.25"/>
<text text-anchor="middle" x="170.75" y="-105.4" font-family="Cascadia Code" font-size="8.00">BB4:</text>
<text text-anchor="start" x="151.75" y="-95.65" font-family="Cascadia Code" font-size="8.00">br BB5</text>
</g>
<!-- BB2&#45;&gt;BB4 -->
<g id="edge4" class="edge">
<title>BB2&#45;&gt;BB4</title>
<path fill="none" stroke="black" d="M169.58,-156.94C169.76,-148.81 169.95,-140.35 170.12,-132.64"/>
<polygon fill="black" stroke="black" points="173.62,-132.9 170.34,-122.82 166.62,-132.74 173.62,-132.9"/>
</g>
<!-- BB3&#45;&gt;BB5 -->
<g id="edge6" class="edge">
<title>BB3&#45;&gt;BB5</title>
<path fill="none" stroke="black" d="M98.75,-84.86C98.75,-77.78 98.75,-69.32 98.75,-61.04"/>
<polygon fill="black" stroke="black" points="102.25,-61.14 98.75,-51.14 95.25,-61.14 102.25,-61.14"/>
</g>
<!-- BB4&#45;&gt;BB5 -->
<g id="edge7" class="edge">
<title>BB4&#45;&gt;BB5</title>
<path fill="none" stroke="black" d="M154.41,-84.86C146.92,-76.88 137.78,-67.16 129.09,-57.91"/>
<polygon fill="black" stroke="black" points="131.73,-55.62 122.34,-50.73 126.63,-60.41 131.73,-55.62"/>
</g>
</g>
</svg>
