<?xml version="1.0" encoding="UTF-8" standalone="no"?>
<!DOCTYPE svg PUBLIC "-//W3C//DTD SVG 1.1//EN"
 "http://www.w3.org/Graphics/SVG/1.1/DTD/svg11.dtd">
<!-- Generated by graphviz version 10.0.1 (0)
 -->
<!-- Pages: 1 -->
<svg width="846pt" height="1548pt"
 viewBox="0.00 0.00 845.75 1547.50" xmlns="http://www.w3.org/2000/svg" xmlns:xlink="http://www.w3.org/1999/xlink">
<g id="graph0" class="graph" transform="scale(1 1) rotate(0) translate(4 1543.5)">
<polygon fill="white" stroke="none" points="-4,4 -4,-1543.5 841.75,-1543.5 841.75,4 -4,4"/>
<!-- BB0 -->
<g id="node1" class="node">
<title>BB0</title>
<polygon fill="#efefef" stroke="black" points="348.25,-1539.5 179.25,-1539.5 179.25,-1356 348.25,-1356 348.25,-1539.5"/>
<text text-anchor="middle" x="263.75" y="-1527.9" font-family="Cascadia Code" font-size="8.00">BB0:</text>
<text text-anchor="start" x="187.25" y="-1518.15" font-family="Cascadia Code" font-size="8.00">L_2_print₁ = nil</text>
<text text-anchor="start" x="187.25" y="-1508.4" font-family="Cascadia Code" font-size="8.00">L_2_print₂ = $print</text>
<text text-anchor="start" x="187.25" y="-1498.65" font-family="Cascadia Code" font-size="8.00"># samples/branching2.lua 1,14:1,15</text>
<text text-anchor="start" x="187.25" y="-1488.9" font-family="Cascadia Code" font-size="8.00">t₁ = 1</text>
<text text-anchor="start" x="187.25" y="-1479.15" font-family="Cascadia Code" font-size="8.00"># samples/branching2.lua 1,1:1,15</text>
<text text-anchor="start" x="187.25" y="-1469.4" font-family="Cascadia Code" font-size="8.00">L_3_a₁ = t₁</text>
<text text-anchor="start" x="187.25" y="-1459.65" font-family="Cascadia Code" font-size="8.00">L_3_b₁ = nil</text>
<text text-anchor="start" x="187.25" y="-1449.9" font-family="Cascadia Code" font-size="8.00"># samples/branching2.lua 2,8:2,9</text>
<text text-anchor="start" x="187.25" y="-1440.15" font-family="Cascadia Code" font-size="8.00">t₂ = 2</text>
<text text-anchor="start" x="187.25" y="-1430.4" font-family="Cascadia Code" font-size="8.00"># samples/branching2.lua 2,4:2,9</text>
<text text-anchor="start" x="187.25" y="-1420.65" font-family="Cascadia Code" font-size="8.00">t₃ = mod L_3_a₁, t₂</text>
<text text-anchor="start" x="187.25" y="-1410.9" font-family="Cascadia Code" font-size="8.00"># samples/branching2.lua 2,13:2,14</text>
<text text-anchor="start" x="187.25" y="-1401.15" font-family="Cascadia Code" font-size="8.00">t₄ = 0</text>
<text text-anchor="start" x="187.25" y="-1391.4" font-family="Cascadia Code" font-size="8.00"># samples/branching2.lua 2,4:2,14</text>
<text text-anchor="start" x="187.25" y="-1381.65" font-family="Cascadia Code" font-size="8.00">t₅ = eq t₃, t₄</text>
<text text-anchor="start" x="187.25" y="-1371.9" font-family="Cascadia Code" font-size="8.00"># samples/branching2.lua 2,4:2,14</text>
<text text-anchor="start" x="187.25" y="-1362.15" font-family="Cascadia Code" font-size="8.00">br BB1 if t₅ else BB2</text>
</g>
<!-- BB1 -->
<g id="node2" class="node">
<title>BB1</title>
<polygon fill="#efefef" stroke="black" points="255.25,-1320 86.25,-1320 86.25,-1195 255.25,-1195 255.25,-1320"/>
<text text-anchor="middle" x="170.75" y="-1308.4" font-family="Cascadia Code" font-size="8.00">BB1:</text>
<text text-anchor="start" x="94.25" y="-1298.65" font-family="Cascadia Code" font-size="8.00"># samples/branching2.lua 3,13:3,14</text>
<text text-anchor="start" x="94.25" y="-1288.9" font-family="Cascadia Code" font-size="8.00">t₆ = 2</text>
<text text-anchor="start" x="94.25" y="-1279.15" font-family="Cascadia Code" font-size="8.00"># samples/branching2.lua 3,9:3,14</text>
<text text-anchor="start" x="94.25" y="-1269.4" font-family="Cascadia Code" font-size="8.00">t₇ = add L_3_a₁, t₆</text>
<text text-anchor="start" x="94.25" y="-1259.65" font-family="Cascadia Code" font-size="8.00"># samples/branching2.lua 3,5:3,14</text>
<text text-anchor="start" x="94.25" y="-1249.9" font-family="Cascadia Code" font-size="8.00">L_3_a₃ = t₇</text>
<text text-anchor="start" x="94.25" y="-1240.15" font-family="Cascadia Code" font-size="8.00"># samples/branching2.lua 4,9:4,10</text>
<text text-anchor="start" x="94.25" y="-1230.4" font-family="Cascadia Code" font-size="8.00">t₈ = 2</text>
<text text-anchor="start" x="94.25" y="-1220.65" font-family="Cascadia Code" font-size="8.00"># samples/branching2.lua 4,5:4,10</text>
<text text-anchor="start" x="94.25" y="-1210.9" font-family="Cascadia Code" font-size="8.00">L_3_b₂ = t₈</text>
<text text-anchor="start" x="94.25" y="-1201.15" font-family="Cascadia Code" font-size="8.00">br BB17</text>
</g>
<!-- BB0&#45;&gt;BB1 -->
<g id="edge1" class="edge">
<title>BB0&#45;&gt;BB1</title>
<path fill="none" stroke="black" d="M218.75,-1355.66C214.61,-1347.28 210.45,-1338.86 206.41,-1330.69"/>
<polygon fill="black" stroke="black" points="209.6,-1329.24 202.04,-1321.83 203.33,-1332.34 209.6,-1329.24"/>
</g>
<!-- BB2 -->
<g id="node3" class="node">
<title>BB2</title>
<polygon fill="#efefef" stroke="black" points="442.25,-1315.12 273.25,-1315.12 273.25,-1199.88 442.25,-1199.88 442.25,-1315.12"/>
<text text-anchor="middle" x="357.75" y="-1303.53" font-family="Cascadia Code" font-size="8.00">BB2:</text>
<text text-anchor="start" x="281.25" y="-1293.78" font-family="Cascadia Code" font-size="8.00"># samples/branching2.lua 5,12:5,13</text>
<text text-anchor="start" x="281.25" y="-1284.03" font-family="Cascadia Code" font-size="8.00">t₉ = 3</text>
<text text-anchor="start" x="281.25" y="-1274.28" font-family="Cascadia Code" font-size="8.00"># samples/branching2.lua 5,8:5,13</text>
<text text-anchor="start" x="281.25" y="-1264.53" font-family="Cascadia Code" font-size="8.00">t₁₀ = mod L_3_a₁, t₉</text>
<text text-anchor="start" x="281.25" y="-1254.78" font-family="Cascadia Code" font-size="8.00"># samples/branching2.lua 5,17:5,18</text>
<text text-anchor="start" x="281.25" y="-1245.03" font-family="Cascadia Code" font-size="8.00">t₁₁ = 0</text>
<text text-anchor="start" x="281.25" y="-1235.28" font-family="Cascadia Code" font-size="8.00"># samples/branching2.lua 5,8:5,18</text>
<text text-anchor="start" x="281.25" y="-1225.53" font-family="Cascadia Code" font-size="8.00">t₁₂ = eq t₁₀, t₁₁</text>
<text text-anchor="start" x="281.25" y="-1215.78" font-family="Cascadia Code" font-size="8.00"># samples/branching2.lua 5,8:5,18</text>
<text text-anchor="start" x="281.25" y="-1206.03" font-family="Cascadia Code" font-size="8.00">br BB3 if t₁₂ else BB4</text>
</g>
<!-- BB0&#45;&gt;BB2 -->
<g id="edge2" class="edge">
<title>BB0&#45;&gt;BB2</title>
<path fill="none" stroke="black" d="M309.24,-1355.66C314.31,-1345.49 319.42,-1335.27 324.3,-1325.48"/>
<polygon fill="black" stroke="black" points="327.3,-1327.32 328.63,-1316.81 321.03,-1324.19 327.3,-1327.32"/>
</g>
<!-- BB17 -->
<g id="node18" class="node">
<title>BB17</title>
<polygon fill="#efefef" stroke="black" points="719.5,-61.25 0,-61.25 0,0 719.5,0 719.5,-61.25"/>
<text text-anchor="middle" x="359.75" y="-49.65" font-family="Cascadia Code" font-size="8.00">BB17:</text>
<text text-anchor="start" x="8" y="-39.9" font-family="Cascadia Code" font-size="8.00">L_3_a₂₇ = ϕ([BB1: L_3_a₃], [BB3: L_3_a₆], [BB5: L_3_a₉], [BB7: L_3_a₁₂], [BB9: L_3_a₁₅], [BB11: L_3_a₁₈], [BB13: L_3_a₂₁], [BB15: L_3_a₂₄], [BB16: L_3_a₂₆])</text>
<text text-anchor="start" x="8" y="-27.9" font-family="Cascadia Code" font-size="8.00">L_3_b₁₈ = ϕ([BB1: L_3_b₂], [BB3: L_3_b₁], [BB5: L_3_b₆], [BB7: L_3_b₁], [BB9: L_3_b₁₀], [BB11: L_3_b₁], [BB13: L_3_b₁₄], [BB15: L_3_b₁], [BB16: L_3_b₁₇])</text>
<text text-anchor="start" x="8" y="-15.9" font-family="Cascadia Code" font-size="8.00"># samples/branching2.lua 26,1:26,12</text>
<text text-anchor="start" x="8" y="-6.15" font-family="Cascadia Code" font-size="8.00">t₅₇ = L_2_print₂(L_3_a₂₇, L_3_b₁₈)</text>
</g>
<!-- BB1&#45;&gt;BB17 -->
<g id="edge17" class="edge">
<title>BB1&#45;&gt;BB17</title>
<path fill="none" stroke="black" d="M170.75,-1194.69C170.75,-1132.08 170.75,-1032.43 170.75,-946.25 170.75,-946.25 170.75,-946.25 170.75,-319.75 170.75,-215.95 175.99,-177.57 241.75,-97.25 251.25,-85.65 263.37,-75.74 276.21,-67.42"/>
<polygon fill="black" stroke="black" points="277.67,-70.63 284.37,-62.42 274.01,-64.66 277.67,-70.63"/>
</g>
<!-- BB3 -->
<g id="node4" class="node">
<title>BB3</title>
<polygon fill="#efefef" stroke="black" points="368.25,-1144.38 199.25,-1144.38 199.25,-1058.38 368.25,-1058.38 368.25,-1144.38"/>
<text text-anchor="middle" x="283.75" y="-1132.78" font-family="Cascadia Code" font-size="8.00">BB3:</text>
<text text-anchor="start" x="207.25" y="-1123.03" font-family="Cascadia Code" font-size="8.00"># samples/branching2.lua 6,13:6,14</text>
<text text-anchor="start" x="207.25" y="-1113.28" font-family="Cascadia Code" font-size="8.00">t₁₃ = 3</text>
<text text-anchor="start" x="207.25" y="-1103.53" font-family="Cascadia Code" font-size="8.00"># samples/branching2.lua 6,9:6,14</text>
<text text-anchor="start" x="207.25" y="-1093.78" font-family="Cascadia Code" font-size="8.00">t₁₄ = add L_3_a₁, t₁₃</text>
<text text-anchor="start" x="207.25" y="-1084.03" font-family="Cascadia Code" font-size="8.00"># samples/branching2.lua 6,5:6,14</text>
<text text-anchor="start" x="207.25" y="-1074.28" font-family="Cascadia Code" font-size="8.00">L_3_a₆ = t₁₄</text>
<text text-anchor="start" x="207.25" y="-1064.53" font-family="Cascadia Code" font-size="8.00">br BB17</text>
</g>
<!-- BB2&#45;&gt;BB3 -->
<g id="edge3" class="edge">
<title>BB2&#45;&gt;BB3</title>
<path fill="none" stroke="black" d="M330.41,-1199.55C323.38,-1184.92 315.86,-1169.25 308.95,-1154.86"/>
<polygon fill="black" stroke="black" points="312.18,-1153.5 304.7,-1146 305.87,-1156.53 312.18,-1153.5"/>
</g>
<!-- BB4 -->
<g id="node5" class="node">
<title>BB4</title>
<polygon fill="#efefef" stroke="black" points="555.25,-1159 386.25,-1159 386.25,-1043.75 555.25,-1043.75 555.25,-1159"/>
<text text-anchor="middle" x="470.75" y="-1147.4" font-family="Cascadia Code" font-size="8.00">BB4:</text>
<text text-anchor="start" x="394.25" y="-1137.65" font-family="Cascadia Code" font-size="8.00"># samples/branching2.lua 7,12:7,13</text>
<text text-anchor="start" x="394.25" y="-1127.9" font-family="Cascadia Code" font-size="8.00">t₁₅ = 4</text>
<text text-anchor="start" x="394.25" y="-1118.15" font-family="Cascadia Code" font-size="8.00"># samples/branching2.lua 7,8:7,13</text>
<text text-anchor="start" x="394.25" y="-1108.4" font-family="Cascadia Code" font-size="8.00">t₁₆ = mod L_3_a₁, t₁₅</text>
<text text-anchor="start" x="394.25" y="-1098.65" font-family="Cascadia Code" font-size="8.00"># samples/branching2.lua 7,17:7,18</text>
<text text-anchor="start" x="394.25" y="-1088.9" font-family="Cascadia Code" font-size="8.00">t₁₇ = 0</text>
<text text-anchor="start" x="394.25" y="-1079.15" font-family="Cascadia Code" font-size="8.00"># samples/branching2.lua 7,8:7,18</text>
<text text-anchor="start" x="394.25" y="-1069.4" font-family="Cascadia Code" font-size="8.00">t₁₈ = eq t₁₆, t₁₇</text>
<text text-anchor="start" x="394.25" y="-1059.65" font-family="Cascadia Code" font-size="8.00"># samples/branching2.lua 7,8:7,18</text>
<text text-anchor="start" x="394.25" y="-1049.9" font-family="Cascadia Code" font-size="8.00">br BB5 if t₁₈ else BB6</text>
</g>
<!-- BB2&#45;&gt;BB4 -->
<g id="edge4" class="edge">
<title>BB2&#45;&gt;BB4</title>
<path fill="none" stroke="black" d="M399.51,-1199.55C406.95,-1189.4 414.75,-1178.75 422.36,-1168.38"/>
<polygon fill="black" stroke="black" points="424.99,-1170.71 428.08,-1160.57 419.35,-1166.57 424.99,-1170.71"/>
</g>
<!-- BB3&#45;&gt;BB17 -->
<g id="edge18" class="edge">
<title>BB3&#45;&gt;BB17</title>
<path fill="none" stroke="black" d="M274.02,-1058.13C270.67,-1042.39 267.16,-1024.32 264.75,-1007.75 250.75,-911.67 245.75,-887.22 245.75,-790.12 245.75,-790.12 245.75,-790.12 245.75,-319.75 245.75,-219.43 234.44,-184.62 283.75,-97.25 289.53,-87.01 297.54,-77.61 306.2,-69.32"/>
<polygon fill="black" stroke="black" points="308.43,-72.02 313.53,-62.73 303.75,-66.81 308.43,-72.02"/>
</g>
<!-- BB5 -->
<g id="node6" class="node">
<title>BB5</title>
<polygon fill="#efefef" stroke="black" points="443.25,-1007.75 274.25,-1007.75 274.25,-882.75 443.25,-882.75 443.25,-1007.75"/>
<text text-anchor="middle" x="358.75" y="-996.15" font-family="Cascadia Code" font-size="8.00">BB5:</text>
<text text-anchor="start" x="282.25" y="-986.4" font-family="Cascadia Code" font-size="8.00"># samples/branching2.lua 8,13:8,14</text>
<text text-anchor="start" x="282.25" y="-976.65" font-family="Cascadia Code" font-size="8.00">t₁₉ = 4</text>
<text text-anchor="start" x="282.25" y="-966.9" font-family="Cascadia Code" font-size="8.00"># samples/branching2.lua 8,9:8,14</text>
<text text-anchor="start" x="282.25" y="-957.15" font-family="Cascadia Code" font-size="8.00">t₂₀ = add L_3_a₁, t₁₉</text>
<text text-anchor="start" x="282.25" y="-947.4" font-family="Cascadia Code" font-size="8.00"># samples/branching2.lua 8,5:8,14</text>
<text text-anchor="start" x="282.25" y="-937.65" font-family="Cascadia Code" font-size="8.00">L_3_a₉ = t₂₀</text>
<text text-anchor="start" x="282.25" y="-927.9" font-family="Cascadia Code" font-size="8.00"># samples/branching2.lua 9,9:9,10</text>
<text text-anchor="start" x="282.25" y="-918.15" font-family="Cascadia Code" font-size="8.00">t₂₁ = 4</text>
<text text-anchor="start" x="282.25" y="-908.4" font-family="Cascadia Code" font-size="8.00"># samples/branching2.lua 9,5:9,10</text>
<text text-anchor="start" x="282.25" y="-898.65" font-family="Cascadia Code" font-size="8.00">L_3_b₆ = t₂₁</text>
<text text-anchor="start" x="282.25" y="-888.9" font-family="Cascadia Code" font-size="8.00">br BB17</text>
</g>
<!-- BB4&#45;&gt;BB5 -->
<g id="edge5" class="edge">
<title>BB4&#45;&gt;BB5</title>
<path fill="none" stroke="black" d="M429.36,-1043.42C423.17,-1034.89 416.71,-1026.01 410.34,-1017.24"/>
<polygon fill="black" stroke="black" points="413.33,-1015.41 404.62,-1009.37 407.67,-1019.52 413.33,-1015.41"/>
</g>
<!-- BB6 -->
<g id="node7" class="node">
<title>BB6</title>
<polygon fill="#efefef" stroke="black" points="639.75,-1002.88 461.75,-1002.88 461.75,-887.62 639.75,-887.62 639.75,-1002.88"/>
<text text-anchor="middle" x="550.75" y="-991.27" font-family="Cascadia Code" font-size="8.00">BB6:</text>
<text text-anchor="start" x="469.75" y="-981.52" font-family="Cascadia Code" font-size="8.00"># samples/branching2.lua 10,12:10,13</text>
<text text-anchor="start" x="469.75" y="-971.77" font-family="Cascadia Code" font-size="8.00">t₂₂ = 5</text>
<text text-anchor="start" x="469.75" y="-962.02" font-family="Cascadia Code" font-size="8.00"># samples/branching2.lua 10,8:10,13</text>
<text text-anchor="start" x="469.75" y="-952.27" font-family="Cascadia Code" font-size="8.00">t₂₃ = mod L_3_a₁, t₂₂</text>
<text text-anchor="start" x="469.75" y="-942.52" font-family="Cascadia Code" font-size="8.00"># samples/branching2.lua 10,17:10,18</text>
<text text-anchor="start" x="469.75" y="-932.77" font-family="Cascadia Code" font-size="8.00">t₂₄ = 0</text>
<text text-anchor="start" x="469.75" y="-923.02" font-family="Cascadia Code" font-size="8.00"># samples/branching2.lua 10,8:10,18</text>
<text text-anchor="start" x="469.75" y="-913.27" font-family="Cascadia Code" font-size="8.00">t₂₅ = eq t₂₃, t₂₄</text>
<text text-anchor="start" x="469.75" y="-903.52" font-family="Cascadia Code" font-size="8.00"># samples/branching2.lua 10,8:10,18</text>
<text text-anchor="start" x="469.75" y="-893.77" font-family="Cascadia Code" font-size="8.00">br BB7 if t₂₅ else BB8</text>
</g>
<!-- BB4&#45;&gt;BB6 -->
<g id="edge6" class="edge">
<title>BB4&#45;&gt;BB6</title>
<path fill="none" stroke="black" d="M500.31,-1043.42C505.42,-1033.58 510.77,-1023.27 516,-1013.2"/>
<polygon fill="black" stroke="black" points="518.98,-1015.06 520.48,-1004.57 512.77,-1011.83 518.98,-1015.06"/>
</g>
<!-- BB5&#45;&gt;BB17 -->
<g id="edge19" class="edge">
<title>BB5&#45;&gt;BB17</title>
<path fill="none" stroke="black" d="M317.97,-882.36C311.97,-870.91 306.53,-858.76 302.75,-846.75 274.22,-756.21 283.75,-728.93 283.75,-634 283.75,-634 283.75,-634 283.75,-319.75 283.75,-219.58 285.03,-191.22 319.75,-97.25 322.97,-88.53 327.4,-79.7 332.15,-71.45"/>
<polygon fill="black" stroke="black" points="335.06,-73.41 337.24,-63.04 329.07,-69.78 335.06,-73.41"/>
</g>
<!-- BB7 -->
<g id="node8" class="node">
<title>BB7</title>
<polygon fill="#efefef" stroke="black" points="489.75,-832.12 311.75,-832.12 311.75,-746.12 489.75,-746.12 489.75,-832.12"/>
<text text-anchor="middle" x="400.75" y="-820.52" font-family="Cascadia Code" font-size="8.00">BB7:</text>
<text text-anchor="start" x="319.75" y="-810.77" font-family="Cascadia Code" font-size="8.00"># samples/branching2.lua 11,13:11,14</text>
<text text-anchor="start" x="319.75" y="-801.02" font-family="Cascadia Code" font-size="8.00">t₂₆ = 5</text>
<text text-anchor="start" x="319.75" y="-791.27" font-family="Cascadia Code" font-size="8.00"># samples/branching2.lua 11,9:11,14</text>
<text text-anchor="start" x="319.75" y="-781.52" font-family="Cascadia Code" font-size="8.00">t₂₇ = add L_3_a₁, t₂₆</text>
<text text-anchor="start" x="319.75" y="-771.77" font-family="Cascadia Code" font-size="8.00"># samples/branching2.lua 11,5:11,14</text>
<text text-anchor="start" x="319.75" y="-762.02" font-family="Cascadia Code" font-size="8.00">L_3_a₁₂ = t₂₇</text>
<text text-anchor="start" x="319.75" y="-752.27" font-family="Cascadia Code" font-size="8.00">br BB17</text>
</g>
<!-- BB6&#45;&gt;BB7 -->
<g id="edge7" class="edge">
<title>BB6&#45;&gt;BB7</title>
<path fill="none" stroke="black" d="M495.32,-887.3C480.39,-871.96 464.35,-855.48 449.8,-840.52"/>
<polygon fill="black" stroke="black" points="452.42,-838.2 442.94,-833.47 447.41,-843.08 452.42,-838.2"/>
</g>
<!-- BB8 -->
<g id="node9" class="node">
<title>BB8</title>
<polygon fill="#efefef" stroke="black" points="685.75,-846.75 507.75,-846.75 507.75,-731.5 685.75,-731.5 685.75,-846.75"/>
<text text-anchor="middle" x="596.75" y="-835.15" font-family="Cascadia Code" font-size="8.00">BB8:</text>
<text text-anchor="start" x="515.75" y="-825.4" font-family="Cascadia Code" font-size="8.00"># samples/branching2.lua 12,12:12,13</text>
<text text-anchor="start" x="515.75" y="-815.65" font-family="Cascadia Code" font-size="8.00">t₂₈ = 6</text>
<text text-anchor="start" x="515.75" y="-805.9" font-family="Cascadia Code" font-size="8.00"># samples/branching2.lua 12,8:12,13</text>
<text text-anchor="start" x="515.75" y="-796.15" font-family="Cascadia Code" font-size="8.00">t₂₉ = mod L_3_a₁, t₂₈</text>
<text text-anchor="start" x="515.75" y="-786.4" font-family="Cascadia Code" font-size="8.00"># samples/branching2.lua 12,17:12,18</text>
<text text-anchor="start" x="515.75" y="-776.65" font-family="Cascadia Code" font-size="8.00">t₃₀ = 0</text>
<text text-anchor="start" x="515.75" y="-766.9" font-family="Cascadia Code" font-size="8.00"># samples/branching2.lua 12,8:12,18</text>
<text text-anchor="start" x="515.75" y="-757.15" font-family="Cascadia Code" font-size="8.00">t₃₁ = eq t₂₉, t₃₀</text>
<text text-anchor="start" x="515.75" y="-747.4" font-family="Cascadia Code" font-size="8.00"># samples/branching2.lua 12,8:12,18</text>
<text text-anchor="start" x="515.75" y="-737.65" font-family="Cascadia Code" font-size="8.00">br BB9 if t₃₁ else BB10</text>
</g>
<!-- BB6&#45;&gt;BB8 -->
<g id="edge8" class="edge">
<title>BB6&#45;&gt;BB8</title>
<path fill="none" stroke="black" d="M567.75,-887.3C570.59,-877.77 573.57,-867.79 576.49,-858.02"/>
<polygon fill="black" stroke="black" points="579.81,-859.13 579.31,-848.55 573.1,-857.13 579.81,-859.13"/>
</g>
<!-- BB7&#45;&gt;BB17 -->
<g id="edge20" class="edge">
<title>BB7&#45;&gt;BB17</title>
<path fill="none" stroke="black" d="M367.05,-745.66C356.87,-730.63 346.79,-713.08 340.75,-695.5 309.2,-603.68 321.75,-574.97 321.75,-477.88 321.75,-477.88 321.75,-477.88 321.75,-319.75 321.75,-220.5 322.64,-194.83 340.75,-97.25 342.24,-89.24 344.29,-80.81 346.5,-72.76"/>
<polygon fill="black" stroke="black" points="349.86,-73.74 349.27,-63.17 343.14,-71.8 349.86,-73.74"/>
</g>
<!-- BB9 -->
<g id="node10" class="node">
<title>BB9</title>
<polygon fill="#efefef" stroke="black" points="527.75,-695.5 349.75,-695.5 349.75,-570.5 527.75,-570.5 527.75,-695.5"/>
<text text-anchor="middle" x="438.75" y="-683.9" font-family="Cascadia Code" font-size="8.00">BB9:</text>
<text text-anchor="start" x="357.75" y="-674.15" font-family="Cascadia Code" font-size="8.00"># samples/branching2.lua 13,13:13,14</text>
<text text-anchor="start" x="357.75" y="-664.4" font-family="Cascadia Code" font-size="8.00">t₃₂ = 6</text>
<text text-anchor="start" x="357.75" y="-654.65" font-family="Cascadia Code" font-size="8.00"># samples/branching2.lua 13,9:13,14</text>
<text text-anchor="start" x="357.75" y="-644.9" font-family="Cascadia Code" font-size="8.00">t₃₃ = add L_3_a₁, t₃₂</text>
<text text-anchor="start" x="357.75" y="-635.15" font-family="Cascadia Code" font-size="8.00"># samples/branching2.lua 13,5:13,14</text>
<text text-anchor="start" x="357.75" y="-625.4" font-family="Cascadia Code" font-size="8.00">L_3_a₁₅ = t₃₃</text>
<text text-anchor="start" x="357.75" y="-615.65" font-family="Cascadia Code" font-size="8.00"># samples/branching2.lua 14,9:14,10</text>
<text text-anchor="start" x="357.75" y="-605.9" font-family="Cascadia Code" font-size="8.00">t₃₄ = 6</text>
<text text-anchor="start" x="357.75" y="-596.15" font-family="Cascadia Code" font-size="8.00"># samples/branching2.lua 14,5:14,10</text>
<text text-anchor="start" x="357.75" y="-586.4" font-family="Cascadia Code" font-size="8.00">L_3_b₁₀ = t₃₄</text>
<text text-anchor="start" x="357.75" y="-576.65" font-family="Cascadia Code" font-size="8.00">br BB17</text>
</g>
<!-- BB8&#45;&gt;BB9 -->
<g id="edge9" class="edge">
<title>BB8&#45;&gt;BB9</title>
<path fill="none" stroke="black" d="M538.37,-731.17C529.25,-722.29 519.75,-713.01 510.39,-703.88"/>
<polygon fill="black" stroke="black" points="512.89,-701.43 503.29,-696.96 508,-706.44 512.89,-701.43"/>
</g>
<!-- BB10 -->
<g id="node11" class="node">
<title>BB10</title>
<polygon fill="#efefef" stroke="black" points="723.75,-690.62 545.75,-690.62 545.75,-575.38 723.75,-575.38 723.75,-690.62"/>
<text text-anchor="middle" x="634.75" y="-679.02" font-family="Cascadia Code" font-size="8.00">BB10:</text>
<text text-anchor="start" x="553.75" y="-669.27" font-family="Cascadia Code" font-size="8.00"># samples/branching2.lua 15,12:15,13</text>
<text text-anchor="start" x="553.75" y="-659.52" font-family="Cascadia Code" font-size="8.00">t₃₅ = 7</text>
<text text-anchor="start" x="553.75" y="-649.77" font-family="Cascadia Code" font-size="8.00"># samples/branching2.lua 15,8:15,13</text>
<text text-anchor="start" x="553.75" y="-640.02" font-family="Cascadia Code" font-size="8.00">t₃₆ = mod L_3_a₁, t₃₅</text>
<text text-anchor="start" x="553.75" y="-630.27" font-family="Cascadia Code" font-size="8.00"># samples/branching2.lua 15,17:15,18</text>
<text text-anchor="start" x="553.75" y="-620.52" font-family="Cascadia Code" font-size="8.00">t₃₇ = 0</text>
<text text-anchor="start" x="553.75" y="-610.77" font-family="Cascadia Code" font-size="8.00"># samples/branching2.lua 15,8:15,18</text>
<text text-anchor="start" x="553.75" y="-601.02" font-family="Cascadia Code" font-size="8.00">t₃₈ = eq t₃₆, t₃₇</text>
<text text-anchor="start" x="553.75" y="-591.27" font-family="Cascadia Code" font-size="8.00"># samples/branching2.lua 15,8:15,18</text>
<text text-anchor="start" x="553.75" y="-581.52" font-family="Cascadia Code" font-size="8.00">br BB11 if t₃₈ else BB12</text>
</g>
<!-- BB8&#45;&gt;BB10 -->
<g id="edge10" class="edge">
<title>BB8&#45;&gt;BB10</title>
<path fill="none" stroke="black" d="M610.79,-731.17C613.14,-721.64 615.6,-711.67 618.01,-701.89"/>
<polygon fill="black" stroke="black" points="621.34,-702.99 620.34,-692.45 614.55,-701.32 621.34,-702.99"/>
</g>
<!-- BB9&#45;&gt;BB17 -->
<g id="edge21" class="edge">
<title>BB9&#45;&gt;BB17</title>
<path fill="none" stroke="black" d="M394.21,-570.01C387.95,-558.66 382.42,-546.58 378.75,-534.5 328.71,-369.65 344.49,-160.4 354.37,-72.95"/>
<polygon fill="black" stroke="black" points="357.83,-73.53 355.52,-63.19 350.88,-72.71 357.83,-73.53"/>
</g>
<!-- BB11 -->
<g id="node12" class="node">
<title>BB11</title>
<polygon fill="#efefef" stroke="black" points="565.75,-519.88 387.75,-519.88 387.75,-433.88 565.75,-433.88 565.75,-519.88"/>
<text text-anchor="middle" x="476.75" y="-508.27" font-family="Cascadia Code" font-size="8.00">BB11:</text>
<text text-anchor="start" x="395.75" y="-498.52" font-family="Cascadia Code" font-size="8.00"># samples/branching2.lua 16,13:16,14</text>
<text text-anchor="start" x="395.75" y="-488.77" font-family="Cascadia Code" font-size="8.00">t₃₉ = 7</text>
<text text-anchor="start" x="395.75" y="-479.02" font-family="Cascadia Code" font-size="8.00"># samples/branching2.lua 16,9:16,14</text>
<text text-anchor="start" x="395.75" y="-469.27" font-family="Cascadia Code" font-size="8.00">t₄₀ = add L_3_a₁, t₃₉</text>
<text text-anchor="start" x="395.75" y="-459.52" font-family="Cascadia Code" font-size="8.00"># samples/branching2.lua 16,5:16,14</text>
<text text-anchor="start" x="395.75" y="-449.77" font-family="Cascadia Code" font-size="8.00">L_3_a₁₈ = t₄₀</text>
<text text-anchor="start" x="395.75" y="-440.02" font-family="Cascadia Code" font-size="8.00">br BB17</text>
</g>
<!-- BB10&#45;&gt;BB11 -->
<g id="edge11" class="edge">
<title>BB10&#45;&gt;BB11</title>
<path fill="none" stroke="black" d="M576.37,-575.05C560.5,-559.57 543.43,-542.92 527.99,-527.86"/>
<polygon fill="black" stroke="black" points="530.76,-525.67 521.16,-521.2 525.88,-530.69 530.76,-525.67"/>
</g>
<!-- BB12 -->
<g id="node13" class="node">
<title>BB12</title>
<polygon fill="#efefef" stroke="black" points="761.75,-534.5 583.75,-534.5 583.75,-419.25 761.75,-419.25 761.75,-534.5"/>
<text text-anchor="middle" x="672.75" y="-522.9" font-family="Cascadia Code" font-size="8.00">BB12:</text>
<text text-anchor="start" x="591.75" y="-513.15" font-family="Cascadia Code" font-size="8.00"># samples/branching2.lua 17,12:17,13</text>
<text text-anchor="start" x="591.75" y="-503.4" font-family="Cascadia Code" font-size="8.00">t₄₁ = 8</text>
<text text-anchor="start" x="591.75" y="-493.65" font-family="Cascadia Code" font-size="8.00"># samples/branching2.lua 17,8:17,13</text>
<text text-anchor="start" x="591.75" y="-483.9" font-family="Cascadia Code" font-size="8.00">t₄₂ = mod L_3_a₁, t₄₁</text>
<text text-anchor="start" x="591.75" y="-474.15" font-family="Cascadia Code" font-size="8.00"># samples/branching2.lua 17,17:17,18</text>
<text text-anchor="start" x="591.75" y="-464.4" font-family="Cascadia Code" font-size="8.00">t₄₃ = 0</text>
<text text-anchor="start" x="591.75" y="-454.65" font-family="Cascadia Code" font-size="8.00"># samples/branching2.lua 17,8:17,18</text>
<text text-anchor="start" x="591.75" y="-444.9" font-family="Cascadia Code" font-size="8.00">t₄₄ = eq t₄₂, t₄₃</text>
<text text-anchor="start" x="591.75" y="-435.15" font-family="Cascadia Code" font-size="8.00"># samples/branching2.lua 17,8:17,18</text>
<text text-anchor="start" x="591.75" y="-425.4" font-family="Cascadia Code" font-size="8.00">br BB13 if t₄₄ else BB14</text>
</g>
<!-- BB10&#45;&gt;BB12 -->
<g id="edge12" class="edge">
<title>BB10&#45;&gt;BB12</title>
<path fill="none" stroke="black" d="M648.79,-575.05C651.14,-565.52 653.6,-555.54 656.01,-545.77"/>
<polygon fill="black" stroke="black" points="659.34,-546.87 658.34,-536.32 652.55,-545.19 659.34,-546.87"/>
</g>
<!-- BB11&#45;&gt;BB17 -->
<g id="edge22" class="edge">
<title>BB11&#45;&gt;BB17</title>
<path fill="none" stroke="black" d="M444,-433.65C433.75,-418.5 423.4,-400.81 416.75,-383.25 371.23,-263.04 396.73,-223.72 373.75,-97.25 372.31,-89.3 370.62,-80.85 368.92,-72.74"/>
<polygon fill="black" stroke="black" points="372.37,-72.14 366.86,-63.09 365.53,-73.6 372.37,-72.14"/>
</g>
<!-- BB13 -->
<g id="node14" class="node">
<title>BB13</title>
<polygon fill="#efefef" stroke="black" points="603.75,-383.25 425.75,-383.25 425.75,-258.25 603.75,-258.25 603.75,-383.25"/>
<text text-anchor="middle" x="514.75" y="-371.65" font-family="Cascadia Code" font-size="8.00">BB13:</text>
<text text-anchor="start" x="433.75" y="-361.9" font-family="Cascadia Code" font-size="8.00"># samples/branching2.lua 18,13:18,14</text>
<text text-anchor="start" x="433.75" y="-352.15" font-family="Cascadia Code" font-size="8.00">t₄₅ = 8</text>
<text text-anchor="start" x="433.75" y="-342.4" font-family="Cascadia Code" font-size="8.00"># samples/branching2.lua 18,9:18,14</text>
<text text-anchor="start" x="433.75" y="-332.65" font-family="Cascadia Code" font-size="8.00">t₄₆ = add L_3_a₁, t₄₅</text>
<text text-anchor="start" x="433.75" y="-322.9" font-family="Cascadia Code" font-size="8.00"># samples/branching2.lua 18,5:18,14</text>
<text text-anchor="start" x="433.75" y="-313.15" font-family="Cascadia Code" font-size="8.00">L_3_a₂₁ = t₄₆</text>
<text text-anchor="start" x="433.75" y="-303.4" font-family="Cascadia Code" font-size="8.00"># samples/branching2.lua 19,9:19,10</text>
<text text-anchor="start" x="433.75" y="-293.65" font-family="Cascadia Code" font-size="8.00">t₄₇ = 8</text>
<text text-anchor="start" x="433.75" y="-283.9" font-family="Cascadia Code" font-size="8.00"># samples/branching2.lua 19,5:19,10</text>
<text text-anchor="start" x="433.75" y="-274.15" font-family="Cascadia Code" font-size="8.00">L_3_b₁₄ = t₄₇</text>
<text text-anchor="start" x="433.75" y="-264.4" font-family="Cascadia Code" font-size="8.00">br BB17</text>
</g>
<!-- BB12&#45;&gt;BB13 -->
<g id="edge13" class="edge">
<title>BB12&#45;&gt;BB13</title>
<path fill="none" stroke="black" d="M614.37,-418.92C605.25,-410.04 595.75,-400.76 586.39,-391.63"/>
<polygon fill="black" stroke="black" points="588.89,-389.18 579.29,-384.71 584,-394.19 588.89,-389.18"/>
</g>
<!-- BB14 -->
<g id="node15" class="node">
<title>BB14</title>
<polygon fill="#efefef" stroke="black" points="799.75,-378.38 621.75,-378.38 621.75,-263.12 799.75,-263.12 799.75,-378.38"/>
<text text-anchor="middle" x="710.75" y="-366.77" font-family="Cascadia Code" font-size="8.00">BB14:</text>
<text text-anchor="start" x="629.75" y="-357.02" font-family="Cascadia Code" font-size="8.00"># samples/branching2.lua 20,12:20,13</text>
<text text-anchor="start" x="629.75" y="-347.27" font-family="Cascadia Code" font-size="8.00">t₄₈ = 9</text>
<text text-anchor="start" x="629.75" y="-337.52" font-family="Cascadia Code" font-size="8.00"># samples/branching2.lua 20,8:20,13</text>
<text text-anchor="start" x="629.75" y="-327.77" font-family="Cascadia Code" font-size="8.00">t₄₉ = mod L_3_a₁, t₄₈</text>
<text text-anchor="start" x="629.75" y="-318.02" font-family="Cascadia Code" font-size="8.00"># samples/branching2.lua 20,17:20,18</text>
<text text-anchor="start" x="629.75" y="-308.27" font-family="Cascadia Code" font-size="8.00">t₅₀ = 0</text>
<text text-anchor="start" x="629.75" y="-298.52" font-family="Cascadia Code" font-size="8.00"># samples/branching2.lua 20,8:20,18</text>
<text text-anchor="start" x="629.75" y="-288.77" font-family="Cascadia Code" font-size="8.00">t₅₁ = eq t₄₉, t₅₀</text>
<text text-anchor="start" x="629.75" y="-279.02" font-family="Cascadia Code" font-size="8.00"># samples/branching2.lua 20,8:20,18</text>
<text text-anchor="start" x="629.75" y="-269.27" font-family="Cascadia Code" font-size="8.00">br BB15 if t₅₁ else BB16</text>
</g>
<!-- BB12&#45;&gt;BB14 -->
<g id="edge14" class="edge">
<title>BB12&#45;&gt;BB14</title>
<path fill="none" stroke="black" d="M686.79,-418.92C689.14,-409.39 691.6,-399.42 694.01,-389.64"/>
<polygon fill="black" stroke="black" points="697.34,-390.74 696.34,-380.2 690.55,-389.07 697.34,-390.74"/>
</g>
<!-- BB13&#45;&gt;BB17 -->
<g id="edge23" class="edge">
<title>BB13&#45;&gt;BB17</title>
<path fill="none" stroke="black" d="M473.92,-257.95C467.06,-246.34 460.36,-234.11 454.75,-222.25 429.65,-169.13 439.95,-148.79 411.75,-97.25 406.73,-88.07 400.42,-78.87 393.95,-70.38"/>
<polygon fill="black" stroke="black" points="396.8,-68.34 387.85,-62.67 391.31,-72.68 396.8,-68.34"/>
</g>
<!-- BB15 -->
<g id="node16" class="node">
<title>BB15</title>
<polygon fill="#efefef" stroke="black" points="641.75,-202.75 463.75,-202.75 463.75,-116.75 641.75,-116.75 641.75,-202.75"/>
<text text-anchor="middle" x="552.75" y="-191.15" font-family="Cascadia Code" font-size="8.00">BB15:</text>
<text text-anchor="start" x="471.75" y="-181.4" font-family="Cascadia Code" font-size="8.00"># samples/branching2.lua 21,13:21,14</text>
<text text-anchor="start" x="471.75" y="-171.65" font-family="Cascadia Code" font-size="8.00">t₅₂ = 9</text>
<text text-anchor="start" x="471.75" y="-161.9" font-family="Cascadia Code" font-size="8.00"># samples/branching2.lua 21,9:21,14</text>
<text text-anchor="start" x="471.75" y="-152.15" font-family="Cascadia Code" font-size="8.00">t₅₃ = add L_3_a₁, t₅₂</text>
<text text-anchor="start" x="471.75" y="-142.4" font-family="Cascadia Code" font-size="8.00"># samples/branching2.lua 21,5:21,14</text>
<text text-anchor="start" x="471.75" y="-132.65" font-family="Cascadia Code" font-size="8.00">L_3_a₂₄ = t₅₃</text>
<text text-anchor="start" x="471.75" y="-122.9" font-family="Cascadia Code" font-size="8.00">br BB17</text>
</g>
<!-- BB14&#45;&gt;BB15 -->
<g id="edge15" class="edge">
<title>BB14&#45;&gt;BB15</title>
<path fill="none" stroke="black" d="M654.15,-262.8C637.26,-245.8 618.88,-227.3 602.46,-210.78"/>
<polygon fill="black" stroke="black" points="605.17,-208.54 595.64,-203.91 600.21,-213.47 605.17,-208.54"/>
</g>
<!-- BB16 -->
<g id="node17" class="node">
<title>BB16</title>
<polygon fill="#efefef" stroke="black" points="837.75,-222.25 659.75,-222.25 659.75,-97.25 837.75,-97.25 837.75,-222.25"/>
<text text-anchor="middle" x="748.75" y="-210.65" font-family="Cascadia Code" font-size="8.00">BB16:</text>
<text text-anchor="start" x="667.75" y="-200.9" font-family="Cascadia Code" font-size="8.00"># samples/branching2.lua 23,13:23,15</text>
<text text-anchor="start" x="667.75" y="-191.15" font-family="Cascadia Code" font-size="8.00">t₅₄ = 10</text>
<text text-anchor="start" x="667.75" y="-181.4" font-family="Cascadia Code" font-size="8.00"># samples/branching2.lua 23,9:23,15</text>
<text text-anchor="start" x="667.75" y="-171.65" font-family="Cascadia Code" font-size="8.00">t₅₅ = add L_3_a₁, t₅₄</text>
<text text-anchor="start" x="667.75" y="-161.9" font-family="Cascadia Code" font-size="8.00"># samples/branching2.lua 23,5:23,15</text>
<text text-anchor="start" x="667.75" y="-152.15" font-family="Cascadia Code" font-size="8.00">L_3_a₂₆ = t₅₅</text>
<text text-anchor="start" x="667.75" y="-142.4" font-family="Cascadia Code" font-size="8.00"># samples/branching2.lua 24,9:24,11</text>
<text text-anchor="start" x="667.75" y="-132.65" font-family="Cascadia Code" font-size="8.00">t₅₆ = 10</text>
<text text-anchor="start" x="667.75" y="-122.9" font-family="Cascadia Code" font-size="8.00"># samples/branching2.lua 24,5:24,11</text>
<text text-anchor="start" x="667.75" y="-113.15" font-family="Cascadia Code" font-size="8.00">L_3_b₁₇ = t₅₆</text>
<text text-anchor="start" x="667.75" y="-103.4" font-family="Cascadia Code" font-size="8.00">br BB17</text>
</g>
<!-- BB14&#45;&gt;BB16 -->
<g id="edge16" class="edge">
<title>BB14&#45;&gt;BB16</title>
<path fill="none" stroke="black" d="M724.36,-262.8C726.62,-253.34 728.99,-243.43 731.33,-233.65"/>
<polygon fill="black" stroke="black" points="734.67,-234.7 733.59,-224.16 727.87,-233.08 734.67,-234.7"/>
</g>
<!-- BB15&#45;&gt;BB17 -->
<g id="edge24" class="edge">
<title>BB15&#45;&gt;BB17</title>
<path fill="none" stroke="black" d="M488.48,-116.42C464.69,-100.75 437.94,-83.13 415.01,-68.03"/>
<polygon fill="black" stroke="black" points="416.98,-65.13 406.71,-62.55 413.13,-70.98 416.98,-65.13"/>
</g>
<!-- BB16&#45;&gt;BB17 -->
<g id="edge25" class="edge">
<title>BB16&#45;&gt;BB17</title>
<path fill="none" stroke="black" d="M659.41,-101.04C656.52,-99.71 653.63,-98.44 650.75,-97.25 618.53,-83.96 583.15,-73.13 548.48,-64.37"/>
<polygon fill="black" stroke="black" points="549.77,-61.09 539.22,-62.09 548.09,-67.88 549.77,-61.09"/>
</g>
</g>
</svg>
