<?xml version="1.0" encoding="UTF-8" standalone="no"?>
<!DOCTYPE svg PUBLIC "-//W3C//DTD SVG 1.1//EN"
 "http://www.w3.org/Graphics/SVG/1.1/DTD/svg11.dtd">
<!-- Generated by graphviz version 9.0.0 (0)
 -->
<!-- Pages: 1 -->
<svg width="256pt" height="352pt"
 viewBox="0.00 0.00 256.38 351.50" xmlns="http://www.w3.org/2000/svg" xmlns:xlink="http://www.w3.org/1999/xlink">
<g id="graph0" class="graph" transform="scale(1 1) rotate(0) translate(4 347.5)">
<polygon fill="white" stroke="none" points="-4,4 -4,-347.5 252.38,-347.5 252.38,4 -4,4"/>
<!-- BB0 -->
<g id="node1" class="node">
<title>BB0</title>
<polygon fill="#efefef" stroke="black" points="185.38,-343.5 25.38,-343.5 25.38,-267.25 185.38,-267.25 185.38,-343.5"/>
<text text-anchor="middle" x="105.38" y="-331.9" font-family="Cascadia Code" font-size="8.00">BB0:</text>
<text text-anchor="start" x="33.38" y="-322.15" font-family="Cascadia Code" font-size="8.00"># samples/branching.lua 3,4:3,9</text>
<text text-anchor="start" x="33.38" y="-312.4" font-family="Cascadia Code" font-size="8.00">t₂ = mod nil, 2</text>
<text text-anchor="start" x="33.38" y="-302.65" font-family="Cascadia Code" font-size="8.00"># samples/branching.lua 3,4:3,14</text>
<text text-anchor="start" x="33.38" y="-292.9" font-family="Cascadia Code" font-size="8.00">t₄ = eq t₂, 0</text>
<text text-anchor="start" x="33.38" y="-283.15" font-family="Cascadia Code" font-size="8.00"># samples/branching.lua 3,4:3,14</text>
<text text-anchor="start" x="33.38" y="-273.4" font-family="Cascadia Code" font-size="8.00">br BB1 if t₄ else BB2</text>
</g>
<!-- BB1 -->
<g id="node2" class="node">
<title>BB1</title>
<polygon fill="#efefef" stroke="black" points="70.38,-211.12 16.38,-211.12 16.38,-175.12 70.38,-175.12 70.38,-211.12"/>
<text text-anchor="middle" x="43.38" y="-195.28" font-family="Cascadia Code" font-size="8.00">BB1:</text>
<text text-anchor="start" x="24.38" y="-185.53" font-family="Cascadia Code" font-size="8.00">br BB5</text>
</g>
<!-- BB0&#45;&gt;BB1 -->
<g id="edge1" class="edge">
<title>BB0&#45;&gt;BB1</title>
<path fill="none" stroke="black" d="M84.38,-267.05C75.93,-252.02 66.36,-235 58.6,-221.19"/>
<polygon fill="black" stroke="black" points="61.75,-219.66 53.8,-212.66 55.65,-223.1 61.75,-219.66"/>
</g>
<!-- BB2 -->
<g id="node3" class="node">
<title>BB2</title>
<polygon fill="#efefef" stroke="black" points="248.38,-231.25 88.38,-231.25 88.38,-155 248.38,-155 248.38,-231.25"/>
<text text-anchor="middle" x="168.38" y="-219.65" font-family="Cascadia Code" font-size="8.00">BB2:</text>
<text text-anchor="start" x="96.38" y="-209.9" font-family="Cascadia Code" font-size="8.00"># samples/branching.lua 5,8:5,13</text>
<text text-anchor="start" x="96.38" y="-200.15" font-family="Cascadia Code" font-size="8.00">t₇ = mod nil, 3</text>
<text text-anchor="start" x="96.38" y="-190.4" font-family="Cascadia Code" font-size="8.00"># samples/branching.lua 5,8:5,18</text>
<text text-anchor="start" x="96.38" y="-180.65" font-family="Cascadia Code" font-size="8.00">t₉ = eq t₇, 0</text>
<text text-anchor="start" x="96.38" y="-170.9" font-family="Cascadia Code" font-size="8.00"># samples/branching.lua 5,8:5,18</text>
<text text-anchor="start" x="96.38" y="-161.15" font-family="Cascadia Code" font-size="8.00">br BB3 if t₉ else BB4</text>
</g>
<!-- BB0&#45;&gt;BB2 -->
<g id="edge2" class="edge">
<title>BB0&#45;&gt;BB2</title>
<path fill="none" stroke="black" d="M126.7,-267.05C131.42,-258.79 136.49,-249.93 141.4,-241.33"/>
<polygon fill="black" stroke="black" points="144.39,-243.15 146.32,-232.73 138.32,-239.67 144.39,-243.15"/>
</g>
<!-- BB5 -->
<g id="node6" class="node">
<title>BB5</title>
<polygon fill="#efefef" stroke="black" points="196.75,-47 0,-47 0,0 196.75,0 196.75,-47"/>
<text text-anchor="middle" x="98.38" y="-35.4" font-family="Cascadia Code" font-size="8.00">BB5:</text>
<text text-anchor="start" x="8" y="-25.65" font-family="Cascadia Code" font-size="8.00">L_3_a₆ = ϕ([BB1: 3], [BB3: 5], [BB4: 7])</text>
<text text-anchor="start" x="8" y="-15.9" font-family="Cascadia Code" font-size="8.00"># samples/branching.lua 11,1:11,9</text>
<text text-anchor="start" x="8" y="-6.15" font-family="Cascadia Code" font-size="8.00">t₁₂ = $print(L_3_a₆)</text>
</g>
<!-- BB1&#45;&gt;BB5 -->
<g id="edge5" class="edge">
<title>BB1&#45;&gt;BB5</title>
<path fill="none" stroke="black" d="M44.36,-174.96C46.06,-153.01 50.59,-114.11 62.38,-83 65.74,-74.12 70.49,-65.1 75.45,-56.9"/>
<polygon fill="black" stroke="black" points="78.29,-58.95 80.7,-48.63 72.38,-55.19 78.29,-58.95"/>
</g>
<!-- BB3 -->
<g id="node4" class="node">
<title>BB3</title>
<polygon fill="#efefef" stroke="black" points="125.38,-119 71.38,-119 71.38,-83 125.38,-83 125.38,-119"/>
<text text-anchor="middle" x="98.38" y="-103.15" font-family="Cascadia Code" font-size="8.00">BB3:</text>
<text text-anchor="start" x="79.38" y="-93.4" font-family="Cascadia Code" font-size="8.00">br BB5</text>
</g>
<!-- BB2&#45;&gt;BB3 -->
<g id="edge3" class="edge">
<title>BB2&#45;&gt;BB3</title>
<path fill="none" stroke="black" d="M139.3,-154.69C132.31,-145.69 125,-136.28 118.52,-127.94"/>
<polygon fill="black" stroke="black" points="121.45,-126 112.55,-120.25 115.92,-130.3 121.45,-126"/>
</g>
<!-- BB4 -->
<g id="node5" class="node">
<title>BB4</title>
<polygon fill="#efefef" stroke="black" points="197.38,-119 143.38,-119 143.38,-83 197.38,-83 197.38,-119"/>
<text text-anchor="middle" x="170.38" y="-103.15" font-family="Cascadia Code" font-size="8.00">BB4:</text>
<text text-anchor="start" x="151.38" y="-93.4" font-family="Cascadia Code" font-size="8.00">br BB5</text>
</g>
<!-- BB2&#45;&gt;BB4 -->
<g id="edge4" class="edge">
<title>BB2&#45;&gt;BB4</title>
<path fill="none" stroke="black" d="M169.21,-154.69C169.39,-146.56 169.57,-138.1 169.75,-130.39"/>
<polygon fill="black" stroke="black" points="173.24,-130.65 169.96,-120.57 166.24,-130.49 173.24,-130.65"/>
</g>
<!-- BB3&#45;&gt;BB5 -->
<g id="edge6" class="edge">
<title>BB3&#45;&gt;BB5</title>
<path fill="none" stroke="black" d="M98.38,-82.87C98.38,-75.71 98.38,-67.13 98.38,-58.78"/>
<polygon fill="black" stroke="black" points="101.88,-58.81 98.38,-48.81 94.88,-58.81 101.88,-58.81"/>
</g>
<!-- BB4&#45;&gt;BB5 -->
<g id="edge7" class="edge">
<title>BB4&#45;&gt;BB5</title>
<path fill="none" stroke="black" d="M154.04,-82.87C146.35,-74.81 136.94,-64.94 128.05,-55.62"/>
<polygon fill="black" stroke="black" points="130.59,-53.21 121.15,-48.39 125.52,-58.04 130.59,-53.21"/>
</g>
</g>
</svg>
