<?xml version="1.0" encoding="UTF-8" standalone="no"?>
<!DOCTYPE svg PUBLIC "-//W3C//DTD SVG 1.1//EN"
 "http://www.w3.org/Graphics/SVG/1.1/DTD/svg11.dtd">
<!-- Generated by graphviz version 9.0.0 (0)
 -->
<!-- Pages: 1 -->
<svg width="454pt" height="363pt"
 viewBox="0.00 0.00 454.00 362.50" xmlns="http://www.w3.org/2000/svg" xmlns:xlink="http://www.w3.org/1999/xlink">
<g id="graph0" class="graph" transform="scale(1 1) rotate(0) translate(4 358.5)">
<polygon fill="white" stroke="none" points="-4,4 -4,-358.5 450,-358.5 450,4 -4,4"/>
<!-- BB0 -->
<g id="node1" class="node">
<title>BB0</title>
<polygon fill="#efefef" stroke="black" points="249,-354.5 89,-354.5 89,-278.25 249,-278.25 249,-354.5"/>
<text text-anchor="middle" x="169" y="-342.9" font-family="Cascadia Code" font-size="8.00">BB0:</text>
<text text-anchor="start" x="97" y="-333.15" font-family="Cascadia Code" font-size="8.00"># samples/branching.lua 3,4:3,9</text>
<text text-anchor="start" x="97" y="-323.4" font-family="Cascadia Code" font-size="8.00">t₂ = mod nil, 2</text>
<text text-anchor="start" x="97" y="-313.65" font-family="Cascadia Code" font-size="8.00"># samples/branching.lua 3,4:3,14</text>
<text text-anchor="start" x="97" y="-303.9" font-family="Cascadia Code" font-size="8.00">t₄ = eq t₂, 0</text>
<text text-anchor="start" x="97" y="-294.15" font-family="Cascadia Code" font-size="8.00"># samples/branching.lua 3,4:3,14</text>
<text text-anchor="start" x="97" y="-284.4" font-family="Cascadia Code" font-size="8.00">br BB1 if t₄ else BB2</text>
</g>
<!-- BB1 -->
<g id="node2" class="node">
<title>BB1</title>
<polygon fill="#efefef" stroke="black" points="160,-232.5 0,-232.5 0,-175.75 160,-175.75 160,-232.5"/>
<text text-anchor="middle" x="80" y="-220.9" font-family="Cascadia Code" font-size="8.00">BB1:</text>
<text text-anchor="start" x="8" y="-211.15" font-family="Cascadia Code" font-size="8.00"># samples/branching.lua 4,5:4,10</text>
<text text-anchor="start" x="8" y="-201.4" font-family="Cascadia Code" font-size="8.00">L_1DE93AF_a₂ = 3</text>
<text text-anchor="start" x="8" y="-191.65" font-family="Cascadia Code" font-size="8.00">L_1DE93AF_a₆ = L_1DE93AF_a₂</text>
<text text-anchor="start" x="8" y="-181.9" font-family="Cascadia Code" font-size="8.00">br BB5</text>
</g>
<!-- BB0&#45;&gt;BB1 -->
<g id="edge1" class="edge">
<title>BB0&#45;&gt;BB1</title>
<path fill="none" stroke="black" d="M138.87,-278.05C129.38,-266.3 118.93,-253.34 109.49,-241.65"/>
<polygon fill="black" stroke="black" points="112.46,-239.76 103.45,-234.18 107.01,-244.16 112.46,-239.76"/>
</g>
<!-- BB2 -->
<g id="node3" class="node">
<title>BB2</title>
<polygon fill="#efefef" stroke="black" points="338,-242.25 178,-242.25 178,-166 338,-166 338,-242.25"/>
<text text-anchor="middle" x="258" y="-230.65" font-family="Cascadia Code" font-size="8.00">BB2:</text>
<text text-anchor="start" x="186" y="-220.9" font-family="Cascadia Code" font-size="8.00"># samples/branching.lua 5,8:5,13</text>
<text text-anchor="start" x="186" y="-211.15" font-family="Cascadia Code" font-size="8.00">t₇ = mod nil, 3</text>
<text text-anchor="start" x="186" y="-201.4" font-family="Cascadia Code" font-size="8.00"># samples/branching.lua 5,8:5,18</text>
<text text-anchor="start" x="186" y="-191.65" font-family="Cascadia Code" font-size="8.00">t₉ = eq t₇, 0</text>
<text text-anchor="start" x="186" y="-181.9" font-family="Cascadia Code" font-size="8.00"># samples/branching.lua 5,8:5,18</text>
<text text-anchor="start" x="186" y="-172.15" font-family="Cascadia Code" font-size="8.00">br BB3 if t₉ else BB4</text>
</g>
<!-- BB0&#45;&gt;BB2 -->
<g id="edge2" class="edge">
<title>BB0&#45;&gt;BB2</title>
<path fill="none" stroke="black" d="M199.13,-278.05C206.09,-269.43 213.57,-260.16 220.8,-251.21"/>
<polygon fill="black" stroke="black" points="223.39,-253.57 226.95,-243.59 217.94,-249.17 223.39,-253.57"/>
</g>
<!-- BB5 -->
<g id="node6" class="node">
<title>BB5</title>
<polygon fill="#efefef" stroke="black" points="270.25,-37.25 105.75,-37.25 105.75,0 270.25,0 270.25,-37.25"/>
<text text-anchor="middle" x="188" y="-25.65" font-family="Cascadia Code" font-size="8.00">BB5:</text>
<text text-anchor="start" x="113.75" y="-15.9" font-family="Cascadia Code" font-size="8.00"># samples/branching.lua 11,1:11,9</text>
<text text-anchor="start" x="113.75" y="-6.15" font-family="Cascadia Code" font-size="8.00">t₁₂ = $print(L_1DE93AF_a₆)</text>
</g>
<!-- BB1&#45;&gt;BB5 -->
<g id="edge5" class="edge">
<title>BB1&#45;&gt;BB5</title>
<path fill="none" stroke="black" d="M77.51,-175.36C76.41,-147.29 78.68,-103.8 99,-73.25 107.2,-60.92 119.29,-50.99 131.93,-43.18"/>
<polygon fill="black" stroke="black" points="133.4,-46.37 140.34,-38.37 129.92,-40.29 133.4,-46.37"/>
</g>
<!-- BB3 -->
<g id="node4" class="node">
<title>BB3</title>
<polygon fill="#efefef" stroke="black" points="268,-130 108,-130 108,-73.25 268,-73.25 268,-130"/>
<text text-anchor="middle" x="188" y="-118.4" font-family="Cascadia Code" font-size="8.00">BB3:</text>
<text text-anchor="start" x="116" y="-108.65" font-family="Cascadia Code" font-size="8.00"># samples/branching.lua 6,5:6,10</text>
<text text-anchor="start" x="116" y="-98.9" font-family="Cascadia Code" font-size="8.00">L_1DE93AF_a₄ = 5</text>
<text text-anchor="start" x="116" y="-89.15" font-family="Cascadia Code" font-size="8.00">L_1DE93AF_a₆ = L_1DE93AF_a₄</text>
<text text-anchor="start" x="116" y="-79.4" font-family="Cascadia Code" font-size="8.00">br BB5</text>
</g>
<!-- BB2&#45;&gt;BB3 -->
<g id="edge3" class="edge">
<title>BB2&#45;&gt;BB3</title>
<path fill="none" stroke="black" d="M231.93,-165.7C226,-157.19 219.71,-148.15 213.79,-139.65"/>
<polygon fill="black" stroke="black" points="216.76,-137.79 208.17,-131.58 211.01,-141.79 216.76,-137.79"/>
</g>
<!-- BB4 -->
<g id="node5" class="node">
<title>BB4</title>
<polygon fill="#efefef" stroke="black" points="446,-130 286,-130 286,-73.25 446,-73.25 446,-130"/>
<text text-anchor="middle" x="366" y="-118.4" font-family="Cascadia Code" font-size="8.00">BB4:</text>
<text text-anchor="start" x="294" y="-108.65" font-family="Cascadia Code" font-size="8.00"># samples/branching.lua 8,5:8,10</text>
<text text-anchor="start" x="294" y="-98.9" font-family="Cascadia Code" font-size="8.00">L_1DE93AF_a₅ = 7</text>
<text text-anchor="start" x="294" y="-89.15" font-family="Cascadia Code" font-size="8.00">L_1DE93AF_a₆ = L_1DE93AF_a₅</text>
<text text-anchor="start" x="294" y="-79.4" font-family="Cascadia Code" font-size="8.00">br BB5</text>
</g>
<!-- BB2&#45;&gt;BB4 -->
<g id="edge4" class="edge">
<title>BB2&#45;&gt;BB4</title>
<path fill="none" stroke="black" d="M298.22,-165.7C307.96,-156.64 318.34,-146.98 327.97,-138.01"/>
<polygon fill="black" stroke="black" points="330.17,-140.75 335.11,-131.37 325.4,-135.62 330.17,-140.75"/>
</g>
<!-- BB3&#45;&gt;BB5 -->
<g id="edge6" class="edge">
<title>BB3&#45;&gt;BB5</title>
<path fill="none" stroke="black" d="M188,-73.2C188,-65.4 188,-56.87 188,-48.96"/>
<polygon fill="black" stroke="black" points="191.5,-49.12 188,-39.12 184.5,-49.12 191.5,-49.12"/>
</g>
<!-- BB4&#45;&gt;BB5 -->
<g id="edge7" class="edge">
<title>BB4&#45;&gt;BB5</title>
<path fill="none" stroke="black" d="M305.24,-72.98C283.36,-63.02 258.93,-51.9 238.06,-42.41"/>
<polygon fill="black" stroke="black" points="239.75,-39.33 229.2,-38.37 236.85,-45.7 239.75,-39.33"/>
</g>
</g>
</svg>
