<?xml version="1.0" encoding="UTF-8" standalone="no"?>
<!DOCTYPE svg PUBLIC "-//W3C//DTD SVG 1.1//EN"
 "http://www.w3.org/Graphics/SVG/1.1/DTD/svg11.dtd">
<!-- Generated by graphviz version 9.0.0 (0)
 -->
<!-- Pages: 1 -->
<svg width="454pt" height="363pt"
 viewBox="0.00 0.00 454.00 362.50" xmlns="http://www.w3.org/2000/svg" xmlns:xlink="http://www.w3.org/1999/xlink">
<g id="graph0" class="graph" transform="scale(1 1) rotate(0) translate(4 358.5)">
<polygon fill="white" stroke="none" points="-4,4 -4,-358.5 450,-358.5 450,4 -4,4"/>
<!-- BB0 -->
<g id="node1" class="node">
<title>BB0</title>
<polygon fill="#efefef" stroke="black" points="249,-354.5 89,-354.5 89,-278.25 249,-278.25 249,-354.5"/>
<text text-anchor="middle" x="169" y="-342.9" font-family="Cascadia Code" font-size="8.00">BB0:</text>
<text text-anchor="start" x="97" y="-333.15" font-family="Cascadia Code" font-size="8.00"># samples/branching.lua 3,4:3,9</text>
<text text-anchor="start" x="97" y="-323.4" font-family="Cascadia Code" font-size="8.00">t₂ = mod nil, 2</text>
<text text-anchor="start" x="97" y="-313.65" font-family="Cascadia Code" font-size="8.00"># samples/branching.lua 3,4:3,14</text>
<text text-anchor="start" x="97" y="-303.9" font-family="Cascadia Code" font-size="8.00">t₄ = eq t₂, 0</text>
<text text-anchor="start" x="97" y="-294.15" font-family="Cascadia Code" font-size="8.00"># samples/branching.lua 3,4:3,14</text>
<text text-anchor="start" x="97" y="-284.4" font-family="Cascadia Code" font-size="8.00">br BB1 if t₄ else BB2</text>
</g>
<!-- BB1 -->
<g id="node2" class="node">
<title>BB1</title>
<polygon fill="#efefef" stroke="black" points="160,-227.62 0,-227.62 0,-180.62 160,-180.62 160,-227.62"/>
<text text-anchor="middle" x="80" y="-216.03" font-family="Cascadia Code" font-size="8.00">BB1:</text>
<text text-anchor="start" x="8" y="-206.28" font-family="Cascadia Code" font-size="8.00"># samples/branching.lua 4,5:4,10</text>
<text text-anchor="start" x="8" y="-196.53" font-family="Cascadia Code" font-size="8.00">L_EF627A_a₂ = 3</text>
<text text-anchor="start" x="8" y="-186.78" font-family="Cascadia Code" font-size="8.00">br BB5</text>
</g>
<!-- BB0&#45;&gt;BB1 -->
<g id="edge1" class="edge">
<title>BB0&#45;&gt;BB1</title>
<path fill="none" stroke="black" d="M138.87,-278.05C128.07,-264.68 116.02,-249.74 105.64,-236.89"/>
<polygon fill="black" stroke="black" points="108.38,-234.7 99.37,-229.12 102.93,-239.1 108.38,-234.7"/>
</g>
<!-- BB2 -->
<g id="node3" class="node">
<title>BB2</title>
<polygon fill="#efefef" stroke="black" points="338,-242.25 178,-242.25 178,-166 338,-166 338,-242.25"/>
<text text-anchor="middle" x="258" y="-230.65" font-family="Cascadia Code" font-size="8.00">BB2:</text>
<text text-anchor="start" x="186" y="-220.9" font-family="Cascadia Code" font-size="8.00"># samples/branching.lua 5,8:5,13</text>
<text text-anchor="start" x="186" y="-211.15" font-family="Cascadia Code" font-size="8.00">t₇ = mod nil, 3</text>
<text text-anchor="start" x="186" y="-201.4" font-family="Cascadia Code" font-size="8.00"># samples/branching.lua 5,8:5,18</text>
<text text-anchor="start" x="186" y="-191.65" font-family="Cascadia Code" font-size="8.00">t₉ = eq t₇, 0</text>
<text text-anchor="start" x="186" y="-181.9" font-family="Cascadia Code" font-size="8.00"># samples/branching.lua 5,8:5,18</text>
<text text-anchor="start" x="186" y="-172.15" font-family="Cascadia Code" font-size="8.00">br BB3 if t₉ else BB4</text>
</g>
<!-- BB0&#45;&gt;BB2 -->
<g id="edge2" class="edge">
<title>BB0&#45;&gt;BB2</title>
<path fill="none" stroke="black" d="M199.13,-278.05C206.09,-269.43 213.57,-260.16 220.8,-251.21"/>
<polygon fill="black" stroke="black" points="223.39,-253.57 226.95,-243.59 217.94,-249.17 223.39,-253.57"/>
</g>
<!-- BB5 -->
<g id="node6" class="node">
<title>BB5</title>
<polygon fill="#efefef" stroke="black" points="365.12,-47 10.88,-47 10.88,0 365.12,0 365.12,-47"/>
<text text-anchor="middle" x="188" y="-35.4" font-family="Cascadia Code" font-size="8.00">BB5:</text>
<text text-anchor="start" x="18.88" y="-25.65" font-family="Cascadia Code" font-size="8.00">L_EF627A_a₆ = ϕ([BB1: L_EF627A_a₂], [BB3: L_EF627A_a₄], [BB4: L_EF627A_a₅])</text>
<text text-anchor="start" x="18.88" y="-15.9" font-family="Cascadia Code" font-size="8.00"># samples/branching.lua 11,1:11,9</text>
<text text-anchor="start" x="18.88" y="-6.15" font-family="Cascadia Code" font-size="8.00">t₁₂ = $print(L_EF627A_a₆)</text>
</g>
<!-- BB1&#45;&gt;BB5 -->
<g id="edge5" class="edge">
<title>BB1&#45;&gt;BB5</title>
<path fill="none" stroke="black" d="M78.36,-180.41C77.62,-154.72 79.88,-112.63 99,-83 106.52,-71.35 117.26,-61.51 128.7,-53.42"/>
<polygon fill="black" stroke="black" points="130.29,-56.56 136.71,-48.13 126.44,-50.72 130.29,-56.56"/>
</g>
<!-- BB3 -->
<g id="node4" class="node">
<title>BB3</title>
<polygon fill="#efefef" stroke="black" points="268,-130 108,-130 108,-83 268,-83 268,-130"/>
<text text-anchor="middle" x="188" y="-118.4" font-family="Cascadia Code" font-size="8.00">BB3:</text>
<text text-anchor="start" x="116" y="-108.65" font-family="Cascadia Code" font-size="8.00"># samples/branching.lua 6,5:6,10</text>
<text text-anchor="start" x="116" y="-98.9" font-family="Cascadia Code" font-size="8.00">L_EF627A_a₄ = 5</text>
<text text-anchor="start" x="116" y="-89.15" font-family="Cascadia Code" font-size="8.00">br BB5</text>
</g>
<!-- BB2&#45;&gt;BB3 -->
<g id="edge3" class="edge">
<title>BB2&#45;&gt;BB3</title>
<path fill="none" stroke="black" d="M230.54,-165.61C224.19,-156.94 217.5,-147.8 211.35,-139.4"/>
<polygon fill="black" stroke="black" points="214.31,-137.51 205.58,-131.51 208.66,-141.65 214.31,-137.51"/>
</g>
<!-- BB4 -->
<g id="node5" class="node">
<title>BB4</title>
<polygon fill="#efefef" stroke="black" points="446,-130 286,-130 286,-83 446,-83 446,-130"/>
<text text-anchor="middle" x="366" y="-118.4" font-family="Cascadia Code" font-size="8.00">BB4:</text>
<text text-anchor="start" x="294" y="-108.65" font-family="Cascadia Code" font-size="8.00"># samples/branching.lua 8,5:8,10</text>
<text text-anchor="start" x="294" y="-98.9" font-family="Cascadia Code" font-size="8.00">L_EF627A_a₅ = 7</text>
<text text-anchor="start" x="294" y="-89.15" font-family="Cascadia Code" font-size="8.00">br BB5</text>
</g>
<!-- BB2&#45;&gt;BB4 -->
<g id="edge4" class="edge">
<title>BB2&#45;&gt;BB4</title>
<path fill="none" stroke="black" d="M300.37,-165.61C310.8,-156.38 321.82,-146.61 331.8,-137.78"/>
<polygon fill="black" stroke="black" points="333.96,-140.54 339.13,-131.29 329.32,-135.3 333.96,-140.54"/>
</g>
<!-- BB3&#45;&gt;BB5 -->
<g id="edge6" class="edge">
<title>BB3&#45;&gt;BB5</title>
<path fill="none" stroke="black" d="M188,-82.51C188,-75.09 188,-66.7 188,-58.66"/>
<polygon fill="black" stroke="black" points="191.5,-58.79 188,-48.79 184.5,-58.79 191.5,-58.79"/>
</g>
<!-- BB4&#45;&gt;BB5 -->
<g id="edge7" class="edge">
<title>BB4&#45;&gt;BB5</title>
<path fill="none" stroke="black" d="M315.47,-82.51C294.71,-73.06 270.5,-62.04 248.78,-52.16"/>
<polygon fill="black" stroke="black" points="250.28,-49 239.73,-48.04 247.38,-55.37 250.28,-49"/>
</g>
</g>
</svg>
