<?xml version="1.0" encoding="UTF-8" standalone="no"?>
<!DOCTYPE svg PUBLIC "-//W3C//DTD SVG 1.1//EN"
 "http://www.w3.org/Graphics/SVG/1.1/DTD/svg11.dtd">
<!-- Generated by graphviz version 9.0.0 (0)
 -->
<!-- Pages: 1 -->
<svg width="248pt" height="343pt"
 viewBox="0.00 0.00 247.50 343.00" xmlns="http://www.w3.org/2000/svg" xmlns:xlink="http://www.w3.org/1999/xlink">
<g id="graph0" class="graph" transform="scale(1 1) rotate(0) translate(4 339)">
<polygon fill="white" stroke="none" points="-4,4 -4,-339 243.5,-339 243.5,4 -4,4"/>
<!-- BB0 -->
<g id="node1" class="node">
<title>BB0</title>
<polygon fill="#efefef" stroke="black" points="174.5,-335 14.5,-335 14.5,-258.75 174.5,-258.75 174.5,-335"/>
<text text-anchor="middle" x="94.5" y="-323.4" font-family="Cascadia Code" font-size="8.00">BB0:</text>
<text text-anchor="start" x="22.5" y="-313.65" font-family="Cascadia Code" font-size="8.00"># samples/branching.lua 3,4:3,9</text>
<text text-anchor="start" x="22.5" y="-303.9" font-family="Cascadia Code" font-size="8.00">t₂ = mod nil, 2</text>
<text text-anchor="start" x="22.5" y="-294.15" font-family="Cascadia Code" font-size="8.00"># samples/branching.lua 3,4:3,14</text>
<text text-anchor="start" x="22.5" y="-284.4" font-family="Cascadia Code" font-size="8.00">t₄ = eq t₂, 0</text>
<text text-anchor="start" x="22.5" y="-274.65" font-family="Cascadia Code" font-size="8.00"># samples/branching.lua 3,4:3,14</text>
<text text-anchor="start" x="22.5" y="-264.9" font-family="Cascadia Code" font-size="8.00">br BB1 if t₄ else BB2</text>
</g>
<!-- BB1 -->
<g id="node2" class="node">
<title>BB1</title>
<polygon fill="#efefef" stroke="black" points="61,-203.25 0,-203.25 0,-166 61,-166 61,-203.25"/>
<text text-anchor="middle" x="30.5" y="-191.65" font-family="Cascadia Code" font-size="8.00">BB1:</text>
<text text-anchor="start" x="8" y="-181.9" font-family="Cascadia Code" font-size="8.00">L_3_a₆ = 3</text>
<text text-anchor="start" x="8" y="-172.15" font-family="Cascadia Code" font-size="8.00">br BB5</text>
</g>
<!-- BB0&#45;&gt;BB1 -->
<g id="edge1" class="edge">
<title>BB0&#45;&gt;BB1</title>
<path fill="none" stroke="black" d="M72.83,-258.55C64.28,-243.81 54.62,-227.18 46.69,-213.52"/>
<polygon fill="black" stroke="black" points="49.82,-211.94 41.77,-205.05 43.77,-215.45 49.82,-211.94"/>
</g>
<!-- BB2 -->
<g id="node3" class="node">
<title>BB2</title>
<polygon fill="#efefef" stroke="black" points="239.5,-222.75 79.5,-222.75 79.5,-146.5 239.5,-146.5 239.5,-222.75"/>
<text text-anchor="middle" x="159.5" y="-211.15" font-family="Cascadia Code" font-size="8.00">BB2:</text>
<text text-anchor="start" x="87.5" y="-201.4" font-family="Cascadia Code" font-size="8.00"># samples/branching.lua 5,8:5,13</text>
<text text-anchor="start" x="87.5" y="-191.65" font-family="Cascadia Code" font-size="8.00">t₇ = mod nil, 3</text>
<text text-anchor="start" x="87.5" y="-181.9" font-family="Cascadia Code" font-size="8.00"># samples/branching.lua 5,8:5,18</text>
<text text-anchor="start" x="87.5" y="-172.15" font-family="Cascadia Code" font-size="8.00">t₉ = eq t₇, 0</text>
<text text-anchor="start" x="87.5" y="-162.4" font-family="Cascadia Code" font-size="8.00"># samples/branching.lua 5,8:5,18</text>
<text text-anchor="start" x="87.5" y="-152.65" font-family="Cascadia Code" font-size="8.00">br BB3 if t₉ else BB4</text>
</g>
<!-- BB0&#45;&gt;BB2 -->
<g id="edge2" class="edge">
<title>BB0&#45;&gt;BB2</title>
<path fill="none" stroke="black" d="M116.51,-258.55C121.43,-250.2 126.71,-241.24 131.83,-232.55"/>
<polygon fill="black" stroke="black" points="134.68,-234.61 136.75,-224.22 128.65,-231.05 134.68,-234.61"/>
</g>
<!-- BB5 -->
<g id="node6" class="node">
<title>BB5</title>
<polygon fill="#efefef" stroke="black" points="171.75,-37.25 7.25,-37.25 7.25,0 171.75,0 171.75,-37.25"/>
<text text-anchor="middle" x="89.5" y="-25.65" font-family="Cascadia Code" font-size="8.00">BB5:</text>
<text text-anchor="start" x="15.25" y="-15.9" font-family="Cascadia Code" font-size="8.00"># samples/branching.lua 11,1:11,9</text>
<text text-anchor="start" x="15.25" y="-6.15" font-family="Cascadia Code" font-size="8.00">t₁₂ = $print(L_3_a₆)</text>
</g>
<!-- BB1&#45;&gt;BB5 -->
<g id="edge5" class="edge">
<title>BB1&#45;&gt;BB5</title>
<path fill="none" stroke="black" d="M31.03,-165.7C32.26,-143.24 36.3,-103.98 49.5,-73.25 53.52,-63.89 59.48,-54.65 65.58,-46.55"/>
<polygon fill="black" stroke="black" points="68.25,-48.81 71.75,-38.8 62.78,-44.44 68.25,-48.81"/>
</g>
<!-- BB3 -->
<g id="node4" class="node">
<title>BB3</title>
<polygon fill="#efefef" stroke="black" points="120,-110.5 59,-110.5 59,-73.25 120,-73.25 120,-110.5"/>
<text text-anchor="middle" x="89.5" y="-98.9" font-family="Cascadia Code" font-size="8.00">BB3:</text>
<text text-anchor="start" x="67" y="-89.15" font-family="Cascadia Code" font-size="8.00">L_3_a₆ = 5</text>
<text text-anchor="start" x="67" y="-79.4" font-family="Cascadia Code" font-size="8.00">br BB5</text>
</g>
<!-- BB2&#45;&gt;BB3 -->
<g id="edge3" class="edge">
<title>BB2&#45;&gt;BB3</title>
<path fill="none" stroke="black" d="M130.62,-146.19C123.73,-137.25 116.51,-127.89 110.07,-119.54"/>
<polygon fill="black" stroke="black" points="113.01,-117.62 104.13,-111.84 107.46,-121.89 113.01,-117.62"/>
</g>
<!-- BB4 -->
<g id="node5" class="node">
<title>BB4</title>
<polygon fill="#efefef" stroke="black" points="199,-110.5 138,-110.5 138,-73.25 199,-73.25 199,-110.5"/>
<text text-anchor="middle" x="168.5" y="-98.9" font-family="Cascadia Code" font-size="8.00">BB4:</text>
<text text-anchor="start" x="146" y="-89.15" font-family="Cascadia Code" font-size="8.00">L_3_a₆ = 7</text>
<text text-anchor="start" x="146" y="-79.4" font-family="Cascadia Code" font-size="8.00">br BB5</text>
</g>
<!-- BB2&#45;&gt;BB4 -->
<g id="edge4" class="edge">
<title>BB2&#45;&gt;BB4</title>
<path fill="none" stroke="black" d="M163.21,-146.19C164.01,-138.12 164.85,-129.69 165.61,-121.99"/>
<polygon fill="black" stroke="black" points="169.08,-122.44 166.59,-112.14 162.12,-121.75 169.08,-122.44"/>
</g>
<!-- BB3&#45;&gt;BB5 -->
<g id="edge6" class="edge">
<title>BB3&#45;&gt;BB5</title>
<path fill="none" stroke="black" d="M89.5,-72.9C89.5,-65.58 89.5,-56.94 89.5,-48.77"/>
<polygon fill="black" stroke="black" points="93,-48.87 89.5,-38.87 86,-48.87 93,-48.87"/>
</g>
<!-- BB4&#45;&gt;BB5 -->
<g id="edge7" class="edge">
<title>BB4&#45;&gt;BB5</title>
<path fill="none" stroke="black" d="M148.56,-72.9C139.21,-64.46 127.89,-54.25 117.68,-45.04"/>
<polygon fill="black" stroke="black" points="120.32,-42.71 110.55,-38.61 115.63,-47.91 120.32,-42.71"/>
</g>
</g>
</svg>
