<?xml version="1.0" encoding="UTF-8" standalone="no"?>
<!DOCTYPE svg PUBLIC "-//W3C//DTD SVG 1.1//EN"
 "http://www.w3.org/Graphics/SVG/1.1/DTD/svg11.dtd">
<!-- Generated by graphviz version 9.0.0 (0)
 -->
<!-- Pages: 1 -->
<svg width="585pt" height="723pt"
 viewBox="0.00 0.00 584.62 722.75" xmlns="http://www.w3.org/2000/svg" xmlns:xlink="http://www.w3.org/1999/xlink">
<g id="graph0" class="graph" transform="scale(1 1) rotate(0) translate(4 718.75)">
<polygon fill="white" stroke="none" points="-4,4 -4,-718.75 580.62,-718.75 580.62,4 -4,4"/>
<!-- BB0 -->
<g id="node1" class="node">
<title>BB0</title>
<polygon fill="#efefef" stroke="black" points="250.12,-714.75 85.62,-714.75 85.62,-677.5 250.12,-677.5 250.12,-714.75"/>
<text text-anchor="middle" x="167.88" y="-703.15" font-family="Cascadia Code" font-size="8.00">BB0:</text>
<text text-anchor="start" x="93.62" y="-693.4" font-family="Cascadia Code" font-size="8.00"># samples/branching2.lua 2,4:2,14</text>
<text text-anchor="start" x="93.62" y="-683.65" font-family="Cascadia Code" font-size="8.00">br BB1 if False else BB2</text>
</g>
<!-- BB1 -->
<g id="node2" class="node">
<title>BB1</title>
<polygon fill="#efefef" stroke="black" points="131.88,-640.88 77.88,-640.88 77.88,-604.88 131.88,-604.88 131.88,-640.88"/>
<text text-anchor="middle" x="104.88" y="-625.02" font-family="Cascadia Code" font-size="8.00">BB1:</text>
<text text-anchor="start" x="85.88" y="-615.27" font-family="Cascadia Code" font-size="8.00">br BB17</text>
</g>
<!-- BB0&#45;&gt;BB1 -->
<g id="edge1" class="edge">
<title>BB0&#45;&gt;BB1</title>
<path fill="none" stroke="black" d="M151.98,-677.15C144.57,-668.77 135.63,-658.66 127.54,-649.51"/>
<polygon fill="black" stroke="black" points="130.36,-647.42 121.12,-642.25 125.12,-652.06 130.36,-647.42"/>
</g>
<!-- BB2 -->
<g id="node3" class="node">
<title>BB2</title>
<polygon fill="#efefef" stroke="black" points="314.12,-641.5 149.62,-641.5 149.62,-604.25 314.12,-604.25 314.12,-641.5"/>
<text text-anchor="middle" x="231.88" y="-629.9" font-family="Cascadia Code" font-size="8.00">BB2:</text>
<text text-anchor="start" x="157.62" y="-620.15" font-family="Cascadia Code" font-size="8.00"># samples/branching2.lua 5,8:5,18</text>
<text text-anchor="start" x="157.62" y="-610.4" font-family="Cascadia Code" font-size="8.00">br BB3 if False else BB4</text>
</g>
<!-- BB0&#45;&gt;BB2 -->
<g id="edge2" class="edge">
<title>BB0&#45;&gt;BB2</title>
<path fill="none" stroke="black" d="M184.02,-677.15C191.43,-668.9 200.36,-658.96 208.48,-649.92"/>
<polygon fill="black" stroke="black" points="210.86,-652.51 214.94,-642.73 205.65,-647.83 210.86,-652.51"/>
</g>
<!-- BB17 -->
<g id="node18" class="node">
<title>BB17</title>
<polygon fill="#efefef" stroke="black" points="529.75,-56.75 0,-56.75 0,0 529.75,0 529.75,-56.75"/>
<text text-anchor="middle" x="264.88" y="-45.15" font-family="Cascadia Code" font-size="8.00">BB17:</text>
<text text-anchor="start" x="8" y="-35.4" font-family="Cascadia Code" font-size="8.00">L_3_a₂₇ = ϕ([BB1: 3], [BB3: 4], [BB5: 5], [BB7: 6], [BB9: 7], [BB11: 8], [BB13: 9], [BB15: 10], [BB16: 11])</text>
<text text-anchor="start" x="8" y="-25.65" font-family="Cascadia Code" font-size="8.00">L_3_b₁₈ = ϕ([BB1: 2], [BB3: nil], [BB5: 4], [BB7: nil], [BB9: 6], [BB11: nil], [BB13: 8], [BB15: nil], [BB16: 10])</text>
<text text-anchor="start" x="8" y="-15.9" font-family="Cascadia Code" font-size="8.00"># samples/branching2.lua 26,1:26,12</text>
<text text-anchor="start" x="8" y="-6.15" font-family="Cascadia Code" font-size="8.00">t₅₇ = $print(L_3_a₂₇, L_3_b₁₈)</text>
</g>
<!-- BB1&#45;&gt;BB17 -->
<g id="edge17" class="edge">
<title>BB1&#45;&gt;BB17</title>
<path fill="none" stroke="black" d="M104.88,-604.53C104.88,-577.4 104.88,-523.28 104.88,-477.38 104.88,-477.38 104.88,-477.38 104.88,-182.38 104.88,-129.25 151.53,-88.88 194.45,-62.99"/>
<polygon fill="black" stroke="black" points="196.2,-66.02 203.08,-57.97 192.67,-59.97 196.2,-66.02"/>
</g>
<!-- BB3 -->
<g id="node4" class="node">
<title>BB3</title>
<polygon fill="#efefef" stroke="black" points="186.88,-567.62 132.88,-567.62 132.88,-531.62 186.88,-531.62 186.88,-567.62"/>
<text text-anchor="middle" x="159.88" y="-551.77" font-family="Cascadia Code" font-size="8.00">BB3:</text>
<text text-anchor="start" x="140.88" y="-542.02" font-family="Cascadia Code" font-size="8.00">br BB17</text>
</g>
<!-- BB2&#45;&gt;BB3 -->
<g id="edge3" class="edge">
<title>BB2&#45;&gt;BB3</title>
<path fill="none" stroke="black" d="M213.71,-603.9C205.07,-595.35 194.6,-584.99 185.21,-575.69"/>
<polygon fill="black" stroke="black" points="187.94,-573.47 178.37,-568.93 183.01,-578.45 187.94,-573.47"/>
</g>
<!-- BB4 -->
<g id="node5" class="node">
<title>BB4</title>
<polygon fill="#efefef" stroke="black" points="369.12,-568.25 204.62,-568.25 204.62,-531 369.12,-531 369.12,-568.25"/>
<text text-anchor="middle" x="286.88" y="-556.65" font-family="Cascadia Code" font-size="8.00">BB4:</text>
<text text-anchor="start" x="212.62" y="-546.9" font-family="Cascadia Code" font-size="8.00"># samples/branching2.lua 7,8:7,18</text>
<text text-anchor="start" x="212.62" y="-537.15" font-family="Cascadia Code" font-size="8.00">br BB5 if False else BB6</text>
</g>
<!-- BB2&#45;&gt;BB4 -->
<g id="edge4" class="edge">
<title>BB2&#45;&gt;BB4</title>
<path fill="none" stroke="black" d="M245.75,-603.9C251.99,-595.82 259.47,-586.12 266.34,-577.23"/>
<polygon fill="black" stroke="black" points="268.93,-579.6 272.27,-569.55 263.39,-575.33 268.93,-579.6"/>
</g>
<!-- BB3&#45;&gt;BB17 -->
<g id="edge18" class="edge">
<title>BB3&#45;&gt;BB17</title>
<path fill="none" stroke="black" d="M158.1,-531.3C155.47,-504.2 150.88,-450.12 150.88,-404.12 150.88,-404.12 150.88,-404.12 150.88,-182.38 150.88,-134.63 187.01,-92.16 218.59,-64.14"/>
<polygon fill="black" stroke="black" points="220.46,-67.15 225.77,-57.98 215.9,-61.84 220.46,-67.15"/>
</g>
<!-- BB5 -->
<g id="node6" class="node">
<title>BB5</title>
<polygon fill="#efefef" stroke="black" points="232.88,-494.38 178.88,-494.38 178.88,-458.38 232.88,-458.38 232.88,-494.38"/>
<text text-anchor="middle" x="205.88" y="-478.52" font-family="Cascadia Code" font-size="8.00">BB5:</text>
<text text-anchor="start" x="186.88" y="-468.77" font-family="Cascadia Code" font-size="8.00">br BB17</text>
</g>
<!-- BB4&#45;&gt;BB5 -->
<g id="edge5" class="edge">
<title>BB4&#45;&gt;BB5</title>
<path fill="none" stroke="black" d="M266.44,-530.65C256.7,-522.08 244.89,-511.69 234.29,-502.37"/>
<polygon fill="black" stroke="black" points="236.7,-499.83 226.88,-495.86 232.08,-505.09 236.7,-499.83"/>
</g>
<!-- BB6 -->
<g id="node7" class="node">
<title>BB6</title>
<polygon fill="#efefef" stroke="black" points="424.62,-495 251.12,-495 251.12,-457.75 424.62,-457.75 424.62,-495"/>
<text text-anchor="middle" x="337.88" y="-483.4" font-family="Cascadia Code" font-size="8.00">BB6:</text>
<text text-anchor="start" x="259.12" y="-473.65" font-family="Cascadia Code" font-size="8.00"># samples/branching2.lua 10,8:10,18</text>
<text text-anchor="start" x="259.12" y="-463.9" font-family="Cascadia Code" font-size="8.00">br BB7 if False else BB8</text>
</g>
<!-- BB4&#45;&gt;BB6 -->
<g id="edge6" class="edge">
<title>BB4&#45;&gt;BB6</title>
<path fill="none" stroke="black" d="M299.74,-530.65C305.47,-522.65 312.32,-513.08 318.63,-504.26"/>
<polygon fill="black" stroke="black" points="321.33,-506.5 324.31,-496.33 315.64,-502.43 321.33,-506.5"/>
</g>
<!-- BB5&#45;&gt;BB17 -->
<g id="edge19" class="edge">
<title>BB5&#45;&gt;BB17</title>
<path fill="none" stroke="black" d="M202.52,-458.1C197.56,-431.08 188.88,-377.1 188.88,-330.88 188.88,-330.88 188.88,-330.88 188.88,-182.38 188.88,-139.29 213.35,-95.83 234.52,-66.3"/>
<polygon fill="black" stroke="black" points="237.21,-68.56 240.34,-58.44 231.58,-64.39 237.21,-68.56"/>
</g>
<!-- BB7 -->
<g id="node8" class="node">
<title>BB7</title>
<polygon fill="#efefef" stroke="black" points="270.88,-421.12 216.88,-421.12 216.88,-385.12 270.88,-385.12 270.88,-421.12"/>
<text text-anchor="middle" x="243.88" y="-405.27" font-family="Cascadia Code" font-size="8.00">BB7:</text>
<text text-anchor="start" x="224.88" y="-395.52" font-family="Cascadia Code" font-size="8.00">br BB17</text>
</g>
<!-- BB6&#45;&gt;BB7 -->
<g id="edge7" class="edge">
<title>BB6&#45;&gt;BB7</title>
<path fill="none" stroke="black" d="M314.15,-457.4C302.51,-448.57 288.32,-437.82 275.75,-428.28"/>
<polygon fill="black" stroke="black" points="278.23,-425.77 268.14,-422.52 274,-431.35 278.23,-425.77"/>
</g>
<!-- BB8 -->
<g id="node9" class="node">
<title>BB8</title>
<polygon fill="#efefef" stroke="black" points="462.62,-421.75 289.12,-421.75 289.12,-384.5 462.62,-384.5 462.62,-421.75"/>
<text text-anchor="middle" x="375.88" y="-410.15" font-family="Cascadia Code" font-size="8.00">BB8:</text>
<text text-anchor="start" x="297.12" y="-400.4" font-family="Cascadia Code" font-size="8.00"># samples/branching2.lua 12,8:12,18</text>
<text text-anchor="start" x="297.12" y="-390.65" font-family="Cascadia Code" font-size="8.00">br BB9 if False else BB10</text>
</g>
<!-- BB6&#45;&gt;BB8 -->
<g id="edge8" class="edge">
<title>BB6&#45;&gt;BB8</title>
<path fill="none" stroke="black" d="M347.46,-457.4C351.59,-449.66 356.51,-440.44 361.09,-431.86"/>
<polygon fill="black" stroke="black" points="364.09,-433.66 365.71,-423.19 357.91,-430.36 364.09,-433.66"/>
</g>
<!-- BB7&#45;&gt;BB17 -->
<g id="edge20" class="edge">
<title>BB7&#45;&gt;BB17</title>
<path fill="none" stroke="black" d="M240.52,-384.85C235.56,-357.83 226.88,-303.85 226.88,-257.62 226.88,-257.62 226.88,-257.62 226.88,-182.38 226.88,-142.4 239.25,-98.23 249.87,-67.67"/>
<polygon fill="black" stroke="black" points="253.08,-69.08 253.17,-58.49 246.49,-66.72 253.08,-69.08"/>
</g>
<!-- BB9 -->
<g id="node10" class="node">
<title>BB9</title>
<polygon fill="#efefef" stroke="black" points="308.88,-347.88 254.88,-347.88 254.88,-311.88 308.88,-311.88 308.88,-347.88"/>
<text text-anchor="middle" x="281.88" y="-332.02" font-family="Cascadia Code" font-size="8.00">BB9:</text>
<text text-anchor="start" x="262.88" y="-322.27" font-family="Cascadia Code" font-size="8.00">br BB17</text>
</g>
<!-- BB8&#45;&gt;BB9 -->
<g id="edge9" class="edge">
<title>BB8&#45;&gt;BB9</title>
<path fill="none" stroke="black" d="M352.15,-384.15C340.51,-375.32 326.32,-364.57 313.75,-355.03"/>
<polygon fill="black" stroke="black" points="316.23,-352.52 306.14,-349.27 312,-358.1 316.23,-352.52"/>
</g>
<!-- BB10 -->
<g id="node11" class="node">
<title>BB10</title>
<polygon fill="#efefef" stroke="black" points="500.62,-348.5 327.12,-348.5 327.12,-311.25 500.62,-311.25 500.62,-348.5"/>
<text text-anchor="middle" x="413.88" y="-336.9" font-family="Cascadia Code" font-size="8.00">BB10:</text>
<text text-anchor="start" x="335.12" y="-327.15" font-family="Cascadia Code" font-size="8.00"># samples/branching2.lua 15,8:15,18</text>
<text text-anchor="start" x="335.12" y="-317.4" font-family="Cascadia Code" font-size="8.00">br BB11 if False else BB12</text>
</g>
<!-- BB8&#45;&gt;BB10 -->
<g id="edge10" class="edge">
<title>BB8&#45;&gt;BB10</title>
<path fill="none" stroke="black" d="M385.46,-384.15C389.59,-376.41 394.51,-367.19 399.09,-358.61"/>
<polygon fill="black" stroke="black" points="402.09,-360.41 403.71,-349.94 395.91,-357.11 402.09,-360.41"/>
</g>
<!-- BB9&#45;&gt;BB17 -->
<g id="edge21" class="edge">
<title>BB9&#45;&gt;BB17</title>
<path fill="none" stroke="black" d="M280.89,-311.48C278.22,-264.47 270.81,-134.01 267.08,-68.28"/>
<polygon fill="black" stroke="black" points="270.58,-68.09 266.52,-58.31 263.59,-68.49 270.58,-68.09"/>
</g>
<!-- BB11 -->
<g id="node12" class="node">
<title>BB11</title>
<polygon fill="#efefef" stroke="black" points="346.88,-274.62 292.88,-274.62 292.88,-238.62 346.88,-238.62 346.88,-274.62"/>
<text text-anchor="middle" x="319.88" y="-258.77" font-family="Cascadia Code" font-size="8.00">BB11:</text>
<text text-anchor="start" x="300.88" y="-249.03" font-family="Cascadia Code" font-size="8.00">br BB17</text>
</g>
<!-- BB10&#45;&gt;BB11 -->
<g id="edge11" class="edge">
<title>BB10&#45;&gt;BB11</title>
<path fill="none" stroke="black" d="M390.15,-310.9C378.51,-302.07 364.32,-291.32 351.75,-281.78"/>
<polygon fill="black" stroke="black" points="354.23,-279.27 344.14,-276.02 350,-284.85 354.23,-279.27"/>
</g>
<!-- BB12 -->
<g id="node13" class="node">
<title>BB12</title>
<polygon fill="#efefef" stroke="black" points="538.62,-275.25 365.12,-275.25 365.12,-238 538.62,-238 538.62,-275.25"/>
<text text-anchor="middle" x="451.88" y="-263.65" font-family="Cascadia Code" font-size="8.00">BB12:</text>
<text text-anchor="start" x="373.12" y="-253.9" font-family="Cascadia Code" font-size="8.00"># samples/branching2.lua 17,8:17,18</text>
<text text-anchor="start" x="373.12" y="-244.15" font-family="Cascadia Code" font-size="8.00">br BB13 if False else BB14</text>
</g>
<!-- BB10&#45;&gt;BB12 -->
<g id="edge12" class="edge">
<title>BB10&#45;&gt;BB12</title>
<path fill="none" stroke="black" d="M423.46,-310.9C427.59,-303.16 432.51,-293.94 437.09,-285.36"/>
<polygon fill="black" stroke="black" points="440.09,-287.16 441.71,-276.69 433.91,-283.86 440.09,-287.16"/>
</g>
<!-- BB11&#45;&gt;BB17 -->
<g id="edge22" class="edge">
<title>BB11&#45;&gt;BB17</title>
<path fill="none" stroke="black" d="M315.65,-238.25C306.85,-202.06 286.38,-117.84 274.29,-68.1"/>
<polygon fill="black" stroke="black" points="277.75,-67.51 271.98,-58.62 270.94,-69.16 277.75,-67.51"/>
</g>
<!-- BB13 -->
<g id="node14" class="node">
<title>BB13</title>
<polygon fill="#efefef" stroke="black" points="384.88,-201.38 330.88,-201.38 330.88,-165.38 384.88,-165.38 384.88,-201.38"/>
<text text-anchor="middle" x="357.88" y="-185.53" font-family="Cascadia Code" font-size="8.00">BB13:</text>
<text text-anchor="start" x="338.88" y="-175.78" font-family="Cascadia Code" font-size="8.00">br BB17</text>
</g>
<!-- BB12&#45;&gt;BB13 -->
<g id="edge13" class="edge">
<title>BB12&#45;&gt;BB13</title>
<path fill="none" stroke="black" d="M428.15,-237.65C416.51,-228.82 402.32,-218.07 389.75,-208.53"/>
<polygon fill="black" stroke="black" points="392.23,-206.02 382.14,-202.77 388,-211.6 392.23,-206.02"/>
</g>
<!-- BB14 -->
<g id="node15" class="node">
<title>BB14</title>
<polygon fill="#efefef" stroke="black" points="576.62,-202 403.12,-202 403.12,-164.75 576.62,-164.75 576.62,-202"/>
<text text-anchor="middle" x="489.88" y="-190.4" font-family="Cascadia Code" font-size="8.00">BB14:</text>
<text text-anchor="start" x="411.12" y="-180.65" font-family="Cascadia Code" font-size="8.00"># samples/branching2.lua 20,8:20,18</text>
<text text-anchor="start" x="411.12" y="-170.9" font-family="Cascadia Code" font-size="8.00">br BB15 if False else BB16</text>
</g>
<!-- BB12&#45;&gt;BB14 -->
<g id="edge14" class="edge">
<title>BB12&#45;&gt;BB14</title>
<path fill="none" stroke="black" d="M461.46,-237.65C465.59,-229.91 470.51,-220.69 475.09,-212.11"/>
<polygon fill="black" stroke="black" points="478.09,-213.91 479.71,-203.44 471.91,-210.61 478.09,-213.91"/>
</g>
<!-- BB13&#45;&gt;BB17 -->
<g id="edge23" class="edge">
<title>BB13&#45;&gt;BB17</title>
<path fill="none" stroke="black" d="M351.55,-165.19C344.38,-146.64 331.74,-116.55 316.88,-92.75 311.23,-83.71 304.44,-74.53 297.65,-66.07"/>
<polygon fill="black" stroke="black" points="300.37,-63.87 291.31,-58.38 294.97,-68.32 300.37,-63.87"/>
</g>
<!-- BB15 -->
<g id="node16" class="node">
<title>BB15</title>
<polygon fill="#efefef" stroke="black" points="437.88,-128.75 383.88,-128.75 383.88,-92.75 437.88,-92.75 437.88,-128.75"/>
<text text-anchor="middle" x="410.88" y="-112.9" font-family="Cascadia Code" font-size="8.00">BB15:</text>
<text text-anchor="start" x="391.88" y="-103.15" font-family="Cascadia Code" font-size="8.00">br BB17</text>
</g>
<!-- BB14&#45;&gt;BB15 -->
<g id="edge15" class="edge">
<title>BB14&#45;&gt;BB15</title>
<path fill="none" stroke="black" d="M469.94,-164.55C460.44,-156.06 448.92,-145.76 438.59,-136.53"/>
<polygon fill="black" stroke="black" points="441.17,-134.14 431.39,-130.09 436.51,-139.36 441.17,-134.14"/>
</g>
<!-- BB16 -->
<g id="node17" class="node">
<title>BB16</title>
<polygon fill="#efefef" stroke="black" points="512.88,-128.75 458.88,-128.75 458.88,-92.75 512.88,-92.75 512.88,-128.75"/>
<text text-anchor="middle" x="485.88" y="-112.9" font-family="Cascadia Code" font-size="8.00">BB16:</text>
<text text-anchor="start" x="466.88" y="-103.15" font-family="Cascadia Code" font-size="8.00">br BB17</text>
</g>
<!-- BB14&#45;&gt;BB16 -->
<g id="edge16" class="edge">
<title>BB14&#45;&gt;BB16</title>
<path fill="none" stroke="black" d="M488.87,-164.55C488.45,-157.2 487.96,-148.48 487.49,-140.28"/>
<polygon fill="black" stroke="black" points="490.99,-140.13 486.93,-130.35 484,-140.53 490.99,-140.13"/>
</g>
<!-- BB15&#45;&gt;BB17 -->
<g id="edge24" class="edge">
<title>BB15&#45;&gt;BB17</title>
<path fill="none" stroke="black" d="M383.41,-94.63C367.02,-85.61 345.52,-73.77 325.34,-62.66"/>
<polygon fill="black" stroke="black" points="327.03,-59.6 316.59,-57.84 323.66,-65.73 327.03,-59.6"/>
</g>
<!-- BB16&#45;&gt;BB17 -->
<g id="edge25" class="edge">
<title>BB16&#45;&gt;BB17</title>
<path fill="none" stroke="black" d="M458.71,-97.59C454.76,-95.92 450.73,-94.26 446.88,-92.75 418.83,-81.77 388.01,-70.68 359.83,-60.91"/>
<polygon fill="black" stroke="black" points="361.2,-57.68 350.61,-57.73 358.92,-64.3 361.2,-57.68"/>
</g>
</g>
</svg>
