<?xml version="1.0" encoding="UTF-8" standalone="no"?>
<!DOCTYPE svg PUBLIC "-//W3C//DTD SVG 1.1//EN"
 "http://www.w3.org/Graphics/SVG/1.1/DTD/svg11.dtd">
<!-- Generated by graphviz version 9.0.0 (0)
 -->
<!-- Pages: 1 -->
<svg width="845pt" height="1543pt"
 viewBox="0.00 0.00 845.38 1543.00" xmlns="http://www.w3.org/2000/svg" xmlns:xlink="http://www.w3.org/1999/xlink">
<g id="graph0" class="graph" transform="scale(1 1) rotate(0) translate(4 1539)">
<polygon fill="white" stroke="none" points="-4,4 -4,-1539 841.38,-1539 841.38,4 -4,4"/>
<!-- BB0 -->
<g id="node1" class="node">
<title>BB0</title>
<polygon fill="#efefef" stroke="black" points="347.88,-1535 178.88,-1535 178.88,-1351.5 347.88,-1351.5 347.88,-1535"/>
<text text-anchor="middle" x="263.38" y="-1523.4" font-family="Cascadia Code" font-size="8.00">BB0:</text>
<text text-anchor="start" x="186.88" y="-1513.65" font-family="Cascadia Code" font-size="8.00">L_2_print₁ = nil</text>
<text text-anchor="start" x="186.88" y="-1503.9" font-family="Cascadia Code" font-size="8.00">L_2_print₂ = $print</text>
<text text-anchor="start" x="186.88" y="-1494.15" font-family="Cascadia Code" font-size="8.00"># samples/branching2.lua 1,14:1,15</text>
<text text-anchor="start" x="186.88" y="-1484.4" font-family="Cascadia Code" font-size="8.00">t₁ = 1</text>
<text text-anchor="start" x="186.88" y="-1474.65" font-family="Cascadia Code" font-size="8.00"># samples/branching2.lua 1,1:1,15</text>
<text text-anchor="start" x="186.88" y="-1464.9" font-family="Cascadia Code" font-size="8.00">L_3_a₁ = t₁</text>
<text text-anchor="start" x="186.88" y="-1455.15" font-family="Cascadia Code" font-size="8.00">L_3_b₁ = nil</text>
<text text-anchor="start" x="186.88" y="-1445.4" font-family="Cascadia Code" font-size="8.00"># samples/branching2.lua 2,8:2,9</text>
<text text-anchor="start" x="186.88" y="-1435.65" font-family="Cascadia Code" font-size="8.00">t₂ = 2</text>
<text text-anchor="start" x="186.88" y="-1425.9" font-family="Cascadia Code" font-size="8.00"># samples/branching2.lua 2,4:2,9</text>
<text text-anchor="start" x="186.88" y="-1416.15" font-family="Cascadia Code" font-size="8.00">t₃ = mod L_3_a₁, t₂</text>
<text text-anchor="start" x="186.88" y="-1406.4" font-family="Cascadia Code" font-size="8.00"># samples/branching2.lua 2,13:2,14</text>
<text text-anchor="start" x="186.88" y="-1396.65" font-family="Cascadia Code" font-size="8.00">t₄ = 0</text>
<text text-anchor="start" x="186.88" y="-1386.9" font-family="Cascadia Code" font-size="8.00"># samples/branching2.lua 2,4:2,14</text>
<text text-anchor="start" x="186.88" y="-1377.15" font-family="Cascadia Code" font-size="8.00">t₅ = eq t₃, t₄</text>
<text text-anchor="start" x="186.88" y="-1367.4" font-family="Cascadia Code" font-size="8.00"># samples/branching2.lua 2,4:2,14</text>
<text text-anchor="start" x="186.88" y="-1357.65" font-family="Cascadia Code" font-size="8.00">br BB1 if t₅ else BB2</text>
</g>
<!-- BB1 -->
<g id="node2" class="node">
<title>BB1</title>
<polygon fill="#efefef" stroke="black" points="254.88,-1315.5 85.88,-1315.5 85.88,-1190.5 254.88,-1190.5 254.88,-1315.5"/>
<text text-anchor="middle" x="170.38" y="-1303.9" font-family="Cascadia Code" font-size="8.00">BB1:</text>
<text text-anchor="start" x="93.88" y="-1294.15" font-family="Cascadia Code" font-size="8.00"># samples/branching2.lua 3,13:3,14</text>
<text text-anchor="start" x="93.88" y="-1284.4" font-family="Cascadia Code" font-size="8.00">t₆ = 2</text>
<text text-anchor="start" x="93.88" y="-1274.65" font-family="Cascadia Code" font-size="8.00"># samples/branching2.lua 3,9:3,14</text>
<text text-anchor="start" x="93.88" y="-1264.9" font-family="Cascadia Code" font-size="8.00">t₇ = add L_3_a₁, t₆</text>
<text text-anchor="start" x="93.88" y="-1255.15" font-family="Cascadia Code" font-size="8.00"># samples/branching2.lua 3,5:3,14</text>
<text text-anchor="start" x="93.88" y="-1245.4" font-family="Cascadia Code" font-size="8.00">L_3_a₃ = t₇</text>
<text text-anchor="start" x="93.88" y="-1235.65" font-family="Cascadia Code" font-size="8.00"># samples/branching2.lua 4,9:4,10</text>
<text text-anchor="start" x="93.88" y="-1225.9" font-family="Cascadia Code" font-size="8.00">t₈ = 2</text>
<text text-anchor="start" x="93.88" y="-1216.15" font-family="Cascadia Code" font-size="8.00"># samples/branching2.lua 4,5:4,10</text>
<text text-anchor="start" x="93.88" y="-1206.4" font-family="Cascadia Code" font-size="8.00">L_3_b₂ = t₈</text>
<text text-anchor="start" x="93.88" y="-1196.65" font-family="Cascadia Code" font-size="8.00">br BB17</text>
</g>
<!-- BB0&#45;&gt;BB1 -->
<g id="edge1" class="edge">
<title>BB0&#45;&gt;BB1</title>
<path fill="none" stroke="black" d="M218.37,-1351.16C214.23,-1342.78 210.08,-1334.36 206.04,-1326.19"/>
<polygon fill="black" stroke="black" points="209.23,-1324.74 201.66,-1317.33 202.95,-1327.84 209.23,-1324.74"/>
</g>
<!-- BB2 -->
<g id="node3" class="node">
<title>BB2</title>
<polygon fill="#efefef" stroke="black" points="441.88,-1310.62 272.88,-1310.62 272.88,-1195.38 441.88,-1195.38 441.88,-1310.62"/>
<text text-anchor="middle" x="357.38" y="-1299.03" font-family="Cascadia Code" font-size="8.00">BB2:</text>
<text text-anchor="start" x="280.88" y="-1289.28" font-family="Cascadia Code" font-size="8.00"># samples/branching2.lua 5,12:5,13</text>
<text text-anchor="start" x="280.88" y="-1279.53" font-family="Cascadia Code" font-size="8.00">t₉ = 3</text>
<text text-anchor="start" x="280.88" y="-1269.78" font-family="Cascadia Code" font-size="8.00"># samples/branching2.lua 5,8:5,13</text>
<text text-anchor="start" x="280.88" y="-1260.03" font-family="Cascadia Code" font-size="8.00">t₁₀ = mod L_3_a₁, t₉</text>
<text text-anchor="start" x="280.88" y="-1250.28" font-family="Cascadia Code" font-size="8.00"># samples/branching2.lua 5,17:5,18</text>
<text text-anchor="start" x="280.88" y="-1240.53" font-family="Cascadia Code" font-size="8.00">t₁₁ = 0</text>
<text text-anchor="start" x="280.88" y="-1230.78" font-family="Cascadia Code" font-size="8.00"># samples/branching2.lua 5,8:5,18</text>
<text text-anchor="start" x="280.88" y="-1221.03" font-family="Cascadia Code" font-size="8.00">t₁₂ = eq t₁₀, t₁₁</text>
<text text-anchor="start" x="280.88" y="-1211.28" font-family="Cascadia Code" font-size="8.00"># samples/branching2.lua 5,8:5,18</text>
<text text-anchor="start" x="280.88" y="-1201.53" font-family="Cascadia Code" font-size="8.00">br BB3 if t₁₂ else BB4</text>
</g>
<!-- BB0&#45;&gt;BB2 -->
<g id="edge2" class="edge">
<title>BB0&#45;&gt;BB2</title>
<path fill="none" stroke="black" d="M308.86,-1351.16C313.94,-1340.99 319.04,-1330.77 323.93,-1320.98"/>
<polygon fill="black" stroke="black" points="326.92,-1322.82 328.26,-1312.31 320.66,-1319.69 326.92,-1322.82"/>
</g>
<!-- BB17 -->
<g id="node18" class="node">
<title>BB17</title>
<polygon fill="#efefef" stroke="black" points="718.75,-56.75 0,-56.75 0,0 718.75,0 718.75,-56.75"/>
<text text-anchor="middle" x="359.38" y="-45.15" font-family="Cascadia Code" font-size="8.00">BB17:</text>
<text text-anchor="start" x="8" y="-35.4" font-family="Cascadia Code" font-size="8.00">L_3_a₂₇ = ϕ([BB1: L_3_a₃], [BB3: L_3_a₆], [BB5: L_3_a₉], [BB7: L_3_a₁₂], [BB9: L_3_a₁₅], [BB11: L_3_a₁₈], [BB13: L_3_a₂₁], [BB15: L_3_a₂₄], [BB16: L_3_a₂₆])</text>
<text text-anchor="start" x="8" y="-25.65" font-family="Cascadia Code" font-size="8.00">L_3_b₁₈ = ϕ([BB1: L_3_b₂], [BB3: L_3_b₁], [BB5: L_3_b₆], [BB7: L_3_b₁], [BB9: L_3_b₁₀], [BB11: L_3_b₁], [BB13: L_3_b₁₄], [BB15: L_3_b₁], [BB16: L_3_b₁₇])</text>
<text text-anchor="start" x="8" y="-15.9" font-family="Cascadia Code" font-size="8.00"># samples/branching2.lua 26,1:26,12</text>
<text text-anchor="start" x="8" y="-6.15" font-family="Cascadia Code" font-size="8.00">t₅₇ = L_2_print₂(L_3_a₂₇, L_3_b₁₈)</text>
</g>
<!-- BB1&#45;&gt;BB17 -->
<g id="edge17" class="edge">
<title>BB1&#45;&gt;BB17</title>
<path fill="none" stroke="black" d="M170.38,-1190.19C170.38,-1127.58 170.38,-1027.93 170.38,-941.75 170.38,-941.75 170.38,-941.75 170.38,-315.25 170.38,-211.58 174.14,-172.5 240.38,-92.75 250.18,-80.94 262.78,-71.02 276.08,-62.8"/>
<polygon fill="black" stroke="black" points="277.67,-65.93 284.56,-57.88 274.16,-59.88 277.67,-65.93"/>
</g>
<!-- BB3 -->
<g id="node4" class="node">
<title>BB3</title>
<polygon fill="#efefef" stroke="black" points="367.88,-1139.88 198.88,-1139.88 198.88,-1053.88 367.88,-1053.88 367.88,-1139.88"/>
<text text-anchor="middle" x="283.38" y="-1128.28" font-family="Cascadia Code" font-size="8.00">BB3:</text>
<text text-anchor="start" x="206.88" y="-1118.53" font-family="Cascadia Code" font-size="8.00"># samples/branching2.lua 6,13:6,14</text>
<text text-anchor="start" x="206.88" y="-1108.78" font-family="Cascadia Code" font-size="8.00">t₁₃ = 3</text>
<text text-anchor="start" x="206.88" y="-1099.03" font-family="Cascadia Code" font-size="8.00"># samples/branching2.lua 6,9:6,14</text>
<text text-anchor="start" x="206.88" y="-1089.28" font-family="Cascadia Code" font-size="8.00">t₁₄ = add L_3_a₁, t₁₃</text>
<text text-anchor="start" x="206.88" y="-1079.53" font-family="Cascadia Code" font-size="8.00"># samples/branching2.lua 6,5:6,14</text>
<text text-anchor="start" x="206.88" y="-1069.78" font-family="Cascadia Code" font-size="8.00">L_3_a₆ = t₁₄</text>
<text text-anchor="start" x="206.88" y="-1060.03" font-family="Cascadia Code" font-size="8.00">br BB17</text>
</g>
<!-- BB2&#45;&gt;BB3 -->
<g id="edge3" class="edge">
<title>BB2&#45;&gt;BB3</title>
<path fill="none" stroke="black" d="M330.03,-1195.05C323.01,-1180.42 315.48,-1164.75 308.57,-1150.36"/>
<polygon fill="black" stroke="black" points="311.81,-1149 304.32,-1141.5 305.5,-1152.03 311.81,-1149"/>
</g>
<!-- BB4 -->
<g id="node5" class="node">
<title>BB4</title>
<polygon fill="#efefef" stroke="black" points="554.88,-1154.5 385.88,-1154.5 385.88,-1039.25 554.88,-1039.25 554.88,-1154.5"/>
<text text-anchor="middle" x="470.38" y="-1142.9" font-family="Cascadia Code" font-size="8.00">BB4:</text>
<text text-anchor="start" x="393.88" y="-1133.15" font-family="Cascadia Code" font-size="8.00"># samples/branching2.lua 7,12:7,13</text>
<text text-anchor="start" x="393.88" y="-1123.4" font-family="Cascadia Code" font-size="8.00">t₁₅ = 4</text>
<text text-anchor="start" x="393.88" y="-1113.65" font-family="Cascadia Code" font-size="8.00"># samples/branching2.lua 7,8:7,13</text>
<text text-anchor="start" x="393.88" y="-1103.9" font-family="Cascadia Code" font-size="8.00">t₁₆ = mod L_3_a₁, t₁₅</text>
<text text-anchor="start" x="393.88" y="-1094.15" font-family="Cascadia Code" font-size="8.00"># samples/branching2.lua 7,17:7,18</text>
<text text-anchor="start" x="393.88" y="-1084.4" font-family="Cascadia Code" font-size="8.00">t₁₇ = 0</text>
<text text-anchor="start" x="393.88" y="-1074.65" font-family="Cascadia Code" font-size="8.00"># samples/branching2.lua 7,8:7,18</text>
<text text-anchor="start" x="393.88" y="-1064.9" font-family="Cascadia Code" font-size="8.00">t₁₈ = eq t₁₆, t₁₇</text>
<text text-anchor="start" x="393.88" y="-1055.15" font-family="Cascadia Code" font-size="8.00"># samples/branching2.lua 7,8:7,18</text>
<text text-anchor="start" x="393.88" y="-1045.4" font-family="Cascadia Code" font-size="8.00">br BB5 if t₁₈ else BB6</text>
</g>
<!-- BB2&#45;&gt;BB4 -->
<g id="edge4" class="edge">
<title>BB2&#45;&gt;BB4</title>
<path fill="none" stroke="black" d="M399.13,-1195.05C406.57,-1184.9 414.38,-1174.25 421.98,-1163.88"/>
<polygon fill="black" stroke="black" points="424.62,-1166.21 427.71,-1156.07 418.97,-1162.07 424.62,-1166.21"/>
</g>
<!-- BB3&#45;&gt;BB17 -->
<g id="edge18" class="edge">
<title>BB3&#45;&gt;BB17</title>
<path fill="none" stroke="black" d="M273.64,-1053.63C270.3,-1037.89 266.79,-1019.82 264.38,-1003.25 250.37,-907.17 245.38,-882.72 245.38,-785.62 245.38,-785.62 245.38,-785.62 245.38,-315.25 245.38,-215 232.26,-179.57 282.38,-92.75 288.47,-82.19 297.04,-72.64 306.26,-64.35"/>
<polygon fill="black" stroke="black" points="308.32,-67.19 313.71,-58.07 303.81,-61.84 308.32,-67.19"/>
</g>
<!-- BB5 -->
<g id="node6" class="node">
<title>BB5</title>
<polygon fill="#efefef" stroke="black" points="442.88,-1003.25 273.88,-1003.25 273.88,-878.25 442.88,-878.25 442.88,-1003.25"/>
<text text-anchor="middle" x="358.38" y="-991.65" font-family="Cascadia Code" font-size="8.00">BB5:</text>
<text text-anchor="start" x="281.88" y="-981.9" font-family="Cascadia Code" font-size="8.00"># samples/branching2.lua 8,13:8,14</text>
<text text-anchor="start" x="281.88" y="-972.15" font-family="Cascadia Code" font-size="8.00">t₁₉ = 4</text>
<text text-anchor="start" x="281.88" y="-962.4" font-family="Cascadia Code" font-size="8.00"># samples/branching2.lua 8,9:8,14</text>
<text text-anchor="start" x="281.88" y="-952.65" font-family="Cascadia Code" font-size="8.00">t₂₀ = add L_3_a₁, t₁₉</text>
<text text-anchor="start" x="281.88" y="-942.9" font-family="Cascadia Code" font-size="8.00"># samples/branching2.lua 8,5:8,14</text>
<text text-anchor="start" x="281.88" y="-933.15" font-family="Cascadia Code" font-size="8.00">L_3_a₉ = t₂₀</text>
<text text-anchor="start" x="281.88" y="-923.4" font-family="Cascadia Code" font-size="8.00"># samples/branching2.lua 9,9:9,10</text>
<text text-anchor="start" x="281.88" y="-913.65" font-family="Cascadia Code" font-size="8.00">t₂₁ = 4</text>
<text text-anchor="start" x="281.88" y="-903.9" font-family="Cascadia Code" font-size="8.00"># samples/branching2.lua 9,5:9,10</text>
<text text-anchor="start" x="281.88" y="-894.15" font-family="Cascadia Code" font-size="8.00">L_3_b₆ = t₂₁</text>
<text text-anchor="start" x="281.88" y="-884.4" font-family="Cascadia Code" font-size="8.00">br BB17</text>
</g>
<!-- BB4&#45;&gt;BB5 -->
<g id="edge5" class="edge">
<title>BB4&#45;&gt;BB5</title>
<path fill="none" stroke="black" d="M428.99,-1038.92C422.79,-1030.39 416.34,-1021.51 409.96,-1012.74"/>
<polygon fill="black" stroke="black" points="412.96,-1010.91 404.25,-1004.87 407.29,-1015.02 412.96,-1010.91"/>
</g>
<!-- BB6 -->
<g id="node7" class="node">
<title>BB6</title>
<polygon fill="#efefef" stroke="black" points="639.38,-998.38 461.38,-998.38 461.38,-883.12 639.38,-883.12 639.38,-998.38"/>
<text text-anchor="middle" x="550.38" y="-986.77" font-family="Cascadia Code" font-size="8.00">BB6:</text>
<text text-anchor="start" x="469.38" y="-977.02" font-family="Cascadia Code" font-size="8.00"># samples/branching2.lua 10,12:10,13</text>
<text text-anchor="start" x="469.38" y="-967.27" font-family="Cascadia Code" font-size="8.00">t₂₂ = 5</text>
<text text-anchor="start" x="469.38" y="-957.52" font-family="Cascadia Code" font-size="8.00"># samples/branching2.lua 10,8:10,13</text>
<text text-anchor="start" x="469.38" y="-947.77" font-family="Cascadia Code" font-size="8.00">t₂₃ = mod L_3_a₁, t₂₂</text>
<text text-anchor="start" x="469.38" y="-938.02" font-family="Cascadia Code" font-size="8.00"># samples/branching2.lua 10,17:10,18</text>
<text text-anchor="start" x="469.38" y="-928.27" font-family="Cascadia Code" font-size="8.00">t₂₄ = 0</text>
<text text-anchor="start" x="469.38" y="-918.52" font-family="Cascadia Code" font-size="8.00"># samples/branching2.lua 10,8:10,18</text>
<text text-anchor="start" x="469.38" y="-908.77" font-family="Cascadia Code" font-size="8.00">t₂₅ = eq t₂₃, t₂₄</text>
<text text-anchor="start" x="469.38" y="-899.02" font-family="Cascadia Code" font-size="8.00"># samples/branching2.lua 10,8:10,18</text>
<text text-anchor="start" x="469.38" y="-889.27" font-family="Cascadia Code" font-size="8.00">br BB7 if t₂₅ else BB8</text>
</g>
<!-- BB4&#45;&gt;BB6 -->
<g id="edge6" class="edge">
<title>BB4&#45;&gt;BB6</title>
<path fill="none" stroke="black" d="M499.94,-1038.92C505.04,-1029.08 510.4,-1018.77 515.63,-1008.7"/>
<polygon fill="black" stroke="black" points="518.6,-1010.56 520.1,-1000.07 512.39,-1007.33 518.6,-1010.56"/>
</g>
<!-- BB5&#45;&gt;BB17 -->
<g id="edge19" class="edge">
<title>BB5&#45;&gt;BB17</title>
<path fill="none" stroke="black" d="M317.6,-877.86C311.59,-866.41 306.16,-854.26 302.38,-842.25 273.85,-751.71 283.38,-724.43 283.38,-629.5 283.38,-629.5 283.38,-629.5 283.38,-315.25 283.38,-215.08 283.93,-186.44 319.38,-92.75 322.71,-83.93 327.37,-75.02 332.33,-66.78"/>
<polygon fill="black" stroke="black" points="335.25,-68.71 337.65,-58.39 329.34,-64.96 335.25,-68.71"/>
</g>
<!-- BB7 -->
<g id="node8" class="node">
<title>BB7</title>
<polygon fill="#efefef" stroke="black" points="489.38,-827.62 311.38,-827.62 311.38,-741.62 489.38,-741.62 489.38,-827.62"/>
<text text-anchor="middle" x="400.38" y="-816.02" font-family="Cascadia Code" font-size="8.00">BB7:</text>
<text text-anchor="start" x="319.38" y="-806.27" font-family="Cascadia Code" font-size="8.00"># samples/branching2.lua 11,13:11,14</text>
<text text-anchor="start" x="319.38" y="-796.52" font-family="Cascadia Code" font-size="8.00">t₂₆ = 5</text>
<text text-anchor="start" x="319.38" y="-786.77" font-family="Cascadia Code" font-size="8.00"># samples/branching2.lua 11,9:11,14</text>
<text text-anchor="start" x="319.38" y="-777.02" font-family="Cascadia Code" font-size="8.00">t₂₇ = add L_3_a₁, t₂₆</text>
<text text-anchor="start" x="319.38" y="-767.27" font-family="Cascadia Code" font-size="8.00"># samples/branching2.lua 11,5:11,14</text>
<text text-anchor="start" x="319.38" y="-757.52" font-family="Cascadia Code" font-size="8.00">L_3_a₁₂ = t₂₇</text>
<text text-anchor="start" x="319.38" y="-747.77" font-family="Cascadia Code" font-size="8.00">br BB17</text>
</g>
<!-- BB6&#45;&gt;BB7 -->
<g id="edge7" class="edge">
<title>BB6&#45;&gt;BB7</title>
<path fill="none" stroke="black" d="M494.95,-882.8C480.02,-867.46 463.98,-850.98 449.42,-836.02"/>
<polygon fill="black" stroke="black" points="452.05,-833.7 442.56,-828.97 447.03,-838.58 452.05,-833.7"/>
</g>
<!-- BB8 -->
<g id="node9" class="node">
<title>BB8</title>
<polygon fill="#efefef" stroke="black" points="685.38,-842.25 507.38,-842.25 507.38,-727 685.38,-727 685.38,-842.25"/>
<text text-anchor="middle" x="596.38" y="-830.65" font-family="Cascadia Code" font-size="8.00">BB8:</text>
<text text-anchor="start" x="515.38" y="-820.9" font-family="Cascadia Code" font-size="8.00"># samples/branching2.lua 12,12:12,13</text>
<text text-anchor="start" x="515.38" y="-811.15" font-family="Cascadia Code" font-size="8.00">t₂₈ = 6</text>
<text text-anchor="start" x="515.38" y="-801.4" font-family="Cascadia Code" font-size="8.00"># samples/branching2.lua 12,8:12,13</text>
<text text-anchor="start" x="515.38" y="-791.65" font-family="Cascadia Code" font-size="8.00">t₂₉ = mod L_3_a₁, t₂₈</text>
<text text-anchor="start" x="515.38" y="-781.9" font-family="Cascadia Code" font-size="8.00"># samples/branching2.lua 12,17:12,18</text>
<text text-anchor="start" x="515.38" y="-772.15" font-family="Cascadia Code" font-size="8.00">t₃₀ = 0</text>
<text text-anchor="start" x="515.38" y="-762.4" font-family="Cascadia Code" font-size="8.00"># samples/branching2.lua 12,8:12,18</text>
<text text-anchor="start" x="515.38" y="-752.65" font-family="Cascadia Code" font-size="8.00">t₃₁ = eq t₂₉, t₃₀</text>
<text text-anchor="start" x="515.38" y="-742.9" font-family="Cascadia Code" font-size="8.00"># samples/branching2.lua 12,8:12,18</text>
<text text-anchor="start" x="515.38" y="-733.15" font-family="Cascadia Code" font-size="8.00">br BB9 if t₃₁ else BB10</text>
</g>
<!-- BB6&#45;&gt;BB8 -->
<g id="edge8" class="edge">
<title>BB6&#45;&gt;BB8</title>
<path fill="none" stroke="black" d="M567.37,-882.8C570.22,-873.27 573.19,-863.29 576.11,-853.52"/>
<polygon fill="black" stroke="black" points="579.43,-854.63 578.94,-844.05 572.72,-852.63 579.43,-854.63"/>
</g>
<!-- BB7&#45;&gt;BB17 -->
<g id="edge20" class="edge">
<title>BB7&#45;&gt;BB17</title>
<path fill="none" stroke="black" d="M366.68,-741.16C356.49,-726.13 346.41,-708.58 340.38,-691 308.83,-599.18 321.38,-570.47 321.38,-473.38 321.38,-473.38 321.38,-473.38 321.38,-315.25 321.38,-216 321.8,-190.25 340.38,-92.75 341.91,-84.7 344.06,-76.21 346.38,-68.15"/>
<polygon fill="black" stroke="black" points="349.72,-69.18 349.26,-58.59 343.02,-67.16 349.72,-69.18"/>
</g>
<!-- BB9 -->
<g id="node10" class="node">
<title>BB9</title>
<polygon fill="#efefef" stroke="black" points="527.38,-691 349.38,-691 349.38,-566 527.38,-566 527.38,-691"/>
<text text-anchor="middle" x="438.38" y="-679.4" font-family="Cascadia Code" font-size="8.00">BB9:</text>
<text text-anchor="start" x="357.38" y="-669.65" font-family="Cascadia Code" font-size="8.00"># samples/branching2.lua 13,13:13,14</text>
<text text-anchor="start" x="357.38" y="-659.9" font-family="Cascadia Code" font-size="8.00">t₃₂ = 6</text>
<text text-anchor="start" x="357.38" y="-650.15" font-family="Cascadia Code" font-size="8.00"># samples/branching2.lua 13,9:13,14</text>
<text text-anchor="start" x="357.38" y="-640.4" font-family="Cascadia Code" font-size="8.00">t₃₃ = add L_3_a₁, t₃₂</text>
<text text-anchor="start" x="357.38" y="-630.65" font-family="Cascadia Code" font-size="8.00"># samples/branching2.lua 13,5:13,14</text>
<text text-anchor="start" x="357.38" y="-620.9" font-family="Cascadia Code" font-size="8.00">L_3_a₁₅ = t₃₃</text>
<text text-anchor="start" x="357.38" y="-611.15" font-family="Cascadia Code" font-size="8.00"># samples/branching2.lua 14,9:14,10</text>
<text text-anchor="start" x="357.38" y="-601.4" font-family="Cascadia Code" font-size="8.00">t₃₄ = 6</text>
<text text-anchor="start" x="357.38" y="-591.65" font-family="Cascadia Code" font-size="8.00"># samples/branching2.lua 14,5:14,10</text>
<text text-anchor="start" x="357.38" y="-581.9" font-family="Cascadia Code" font-size="8.00">L_3_b₁₀ = t₃₄</text>
<text text-anchor="start" x="357.38" y="-572.15" font-family="Cascadia Code" font-size="8.00">br BB17</text>
</g>
<!-- BB8&#45;&gt;BB9 -->
<g id="edge9" class="edge">
<title>BB8&#45;&gt;BB9</title>
<path fill="none" stroke="black" d="M537.99,-726.67C528.88,-717.79 519.38,-708.51 510.01,-699.38"/>
<polygon fill="black" stroke="black" points="512.52,-696.93 502.91,-692.46 507.63,-701.94 512.52,-696.93"/>
</g>
<!-- BB10 -->
<g id="node11" class="node">
<title>BB10</title>
<polygon fill="#efefef" stroke="black" points="723.38,-686.12 545.38,-686.12 545.38,-570.88 723.38,-570.88 723.38,-686.12"/>
<text text-anchor="middle" x="634.38" y="-674.52" font-family="Cascadia Code" font-size="8.00">BB10:</text>
<text text-anchor="start" x="553.38" y="-664.77" font-family="Cascadia Code" font-size="8.00"># samples/branching2.lua 15,12:15,13</text>
<text text-anchor="start" x="553.38" y="-655.02" font-family="Cascadia Code" font-size="8.00">t₃₅ = 7</text>
<text text-anchor="start" x="553.38" y="-645.27" font-family="Cascadia Code" font-size="8.00"># samples/branching2.lua 15,8:15,13</text>
<text text-anchor="start" x="553.38" y="-635.52" font-family="Cascadia Code" font-size="8.00">t₃₆ = mod L_3_a₁, t₃₅</text>
<text text-anchor="start" x="553.38" y="-625.77" font-family="Cascadia Code" font-size="8.00"># samples/branching2.lua 15,17:15,18</text>
<text text-anchor="start" x="553.38" y="-616.02" font-family="Cascadia Code" font-size="8.00">t₃₇ = 0</text>
<text text-anchor="start" x="553.38" y="-606.27" font-family="Cascadia Code" font-size="8.00"># samples/branching2.lua 15,8:15,18</text>
<text text-anchor="start" x="553.38" y="-596.52" font-family="Cascadia Code" font-size="8.00">t₃₈ = eq t₃₆, t₃₇</text>
<text text-anchor="start" x="553.38" y="-586.77" font-family="Cascadia Code" font-size="8.00"># samples/branching2.lua 15,8:15,18</text>
<text text-anchor="start" x="553.38" y="-577.02" font-family="Cascadia Code" font-size="8.00">br BB11 if t₃₈ else BB12</text>
</g>
<!-- BB8&#45;&gt;BB10 -->
<g id="edge10" class="edge">
<title>BB8&#45;&gt;BB10</title>
<path fill="none" stroke="black" d="M610.42,-726.67C612.77,-717.14 615.23,-707.17 617.64,-697.39"/>
<polygon fill="black" stroke="black" points="620.97,-698.49 619.97,-687.95 614.17,-696.82 620.97,-698.49"/>
</g>
<!-- BB9&#45;&gt;BB17 -->
<g id="edge21" class="edge">
<title>BB9&#45;&gt;BB17</title>
<path fill="none" stroke="black" d="M393.84,-565.51C387.58,-554.16 382.04,-542.08 378.38,-530 328.11,-364.47 344.48,-153.96 354.29,-68.28"/>
<polygon fill="black" stroke="black" points="357.74,-68.89 355.44,-58.54 350.79,-68.06 357.74,-68.89"/>
</g>
<!-- BB11 -->
<g id="node12" class="node">
<title>BB11</title>
<polygon fill="#efefef" stroke="black" points="565.38,-515.38 387.38,-515.38 387.38,-429.38 565.38,-429.38 565.38,-515.38"/>
<text text-anchor="middle" x="476.38" y="-503.77" font-family="Cascadia Code" font-size="8.00">BB11:</text>
<text text-anchor="start" x="395.38" y="-494.02" font-family="Cascadia Code" font-size="8.00"># samples/branching2.lua 16,13:16,14</text>
<text text-anchor="start" x="395.38" y="-484.27" font-family="Cascadia Code" font-size="8.00">t₃₉ = 7</text>
<text text-anchor="start" x="395.38" y="-474.52" font-family="Cascadia Code" font-size="8.00"># samples/branching2.lua 16,9:16,14</text>
<text text-anchor="start" x="395.38" y="-464.77" font-family="Cascadia Code" font-size="8.00">t₄₀ = add L_3_a₁, t₃₉</text>
<text text-anchor="start" x="395.38" y="-455.02" font-family="Cascadia Code" font-size="8.00"># samples/branching2.lua 16,5:16,14</text>
<text text-anchor="start" x="395.38" y="-445.27" font-family="Cascadia Code" font-size="8.00">L_3_a₁₈ = t₄₀</text>
<text text-anchor="start" x="395.38" y="-435.52" font-family="Cascadia Code" font-size="8.00">br BB17</text>
</g>
<!-- BB10&#45;&gt;BB11 -->
<g id="edge11" class="edge">
<title>BB10&#45;&gt;BB11</title>
<path fill="none" stroke="black" d="M575.99,-570.55C560.12,-555.07 543.06,-538.42 527.62,-523.36"/>
<polygon fill="black" stroke="black" points="530.39,-521.17 520.79,-516.7 525.5,-526.19 530.39,-521.17"/>
</g>
<!-- BB12 -->
<g id="node13" class="node">
<title>BB12</title>
<polygon fill="#efefef" stroke="black" points="761.38,-530 583.38,-530 583.38,-414.75 761.38,-414.75 761.38,-530"/>
<text text-anchor="middle" x="672.38" y="-518.4" font-family="Cascadia Code" font-size="8.00">BB12:</text>
<text text-anchor="start" x="591.38" y="-508.65" font-family="Cascadia Code" font-size="8.00"># samples/branching2.lua 17,12:17,13</text>
<text text-anchor="start" x="591.38" y="-498.9" font-family="Cascadia Code" font-size="8.00">t₄₁ = 8</text>
<text text-anchor="start" x="591.38" y="-489.15" font-family="Cascadia Code" font-size="8.00"># samples/branching2.lua 17,8:17,13</text>
<text text-anchor="start" x="591.38" y="-479.4" font-family="Cascadia Code" font-size="8.00">t₄₂ = mod L_3_a₁, t₄₁</text>
<text text-anchor="start" x="591.38" y="-469.65" font-family="Cascadia Code" font-size="8.00"># samples/branching2.lua 17,17:17,18</text>
<text text-anchor="start" x="591.38" y="-459.9" font-family="Cascadia Code" font-size="8.00">t₄₃ = 0</text>
<text text-anchor="start" x="591.38" y="-450.15" font-family="Cascadia Code" font-size="8.00"># samples/branching2.lua 17,8:17,18</text>
<text text-anchor="start" x="591.38" y="-440.4" font-family="Cascadia Code" font-size="8.00">t₄₄ = eq t₄₂, t₄₃</text>
<text text-anchor="start" x="591.38" y="-430.65" font-family="Cascadia Code" font-size="8.00"># samples/branching2.lua 17,8:17,18</text>
<text text-anchor="start" x="591.38" y="-420.9" font-family="Cascadia Code" font-size="8.00">br BB13 if t₄₄ else BB14</text>
</g>
<!-- BB10&#45;&gt;BB12 -->
<g id="edge12" class="edge">
<title>BB10&#45;&gt;BB12</title>
<path fill="none" stroke="black" d="M648.42,-570.55C650.77,-561.02 653.23,-551.04 655.64,-541.27"/>
<polygon fill="black" stroke="black" points="658.97,-542.37 657.97,-531.82 652.17,-540.69 658.97,-542.37"/>
</g>
<!-- BB11&#45;&gt;BB17 -->
<g id="edge22" class="edge">
<title>BB11&#45;&gt;BB17</title>
<path fill="none" stroke="black" d="M443.62,-429.15C433.38,-414 423.02,-396.31 416.38,-378.75 370.85,-258.54 396.81,-219.14 373.38,-92.75 371.9,-84.77 370.14,-76.26 368.38,-68.15"/>
<polygon fill="black" stroke="black" points="371.83,-67.54 366.25,-58.53 365,-69.05 371.83,-67.54"/>
</g>
<!-- BB13 -->
<g id="node14" class="node">
<title>BB13</title>
<polygon fill="#efefef" stroke="black" points="603.38,-378.75 425.38,-378.75 425.38,-253.75 603.38,-253.75 603.38,-378.75"/>
<text text-anchor="middle" x="514.38" y="-367.15" font-family="Cascadia Code" font-size="8.00">BB13:</text>
<text text-anchor="start" x="433.38" y="-357.4" font-family="Cascadia Code" font-size="8.00"># samples/branching2.lua 18,13:18,14</text>
<text text-anchor="start" x="433.38" y="-347.65" font-family="Cascadia Code" font-size="8.00">t₄₅ = 8</text>
<text text-anchor="start" x="433.38" y="-337.9" font-family="Cascadia Code" font-size="8.00"># samples/branching2.lua 18,9:18,14</text>
<text text-anchor="start" x="433.38" y="-328.15" font-family="Cascadia Code" font-size="8.00">t₄₆ = add L_3_a₁, t₄₅</text>
<text text-anchor="start" x="433.38" y="-318.4" font-family="Cascadia Code" font-size="8.00"># samples/branching2.lua 18,5:18,14</text>
<text text-anchor="start" x="433.38" y="-308.65" font-family="Cascadia Code" font-size="8.00">L_3_a₂₁ = t₄₆</text>
<text text-anchor="start" x="433.38" y="-298.9" font-family="Cascadia Code" font-size="8.00"># samples/branching2.lua 19,9:19,10</text>
<text text-anchor="start" x="433.38" y="-289.15" font-family="Cascadia Code" font-size="8.00">t₄₇ = 8</text>
<text text-anchor="start" x="433.38" y="-279.4" font-family="Cascadia Code" font-size="8.00"># samples/branching2.lua 19,5:19,10</text>
<text text-anchor="start" x="433.38" y="-269.65" font-family="Cascadia Code" font-size="8.00">L_3_b₁₄ = t₄₇</text>
<text text-anchor="start" x="433.38" y="-259.9" font-family="Cascadia Code" font-size="8.00">br BB17</text>
</g>
<!-- BB12&#45;&gt;BB13 -->
<g id="edge13" class="edge">
<title>BB12&#45;&gt;BB13</title>
<path fill="none" stroke="black" d="M613.99,-414.42C604.88,-405.54 595.38,-396.26 586.01,-387.13"/>
<polygon fill="black" stroke="black" points="588.52,-384.68 578.91,-380.21 583.63,-389.69 588.52,-384.68"/>
</g>
<!-- BB14 -->
<g id="node15" class="node">
<title>BB14</title>
<polygon fill="#efefef" stroke="black" points="799.38,-373.88 621.38,-373.88 621.38,-258.62 799.38,-258.62 799.38,-373.88"/>
<text text-anchor="middle" x="710.38" y="-362.27" font-family="Cascadia Code" font-size="8.00">BB14:</text>
<text text-anchor="start" x="629.38" y="-352.52" font-family="Cascadia Code" font-size="8.00"># samples/branching2.lua 20,12:20,13</text>
<text text-anchor="start" x="629.38" y="-342.77" font-family="Cascadia Code" font-size="8.00">t₄₈ = 9</text>
<text text-anchor="start" x="629.38" y="-333.02" font-family="Cascadia Code" font-size="8.00"># samples/branching2.lua 20,8:20,13</text>
<text text-anchor="start" x="629.38" y="-323.27" font-family="Cascadia Code" font-size="8.00">t₄₉ = mod L_3_a₁, t₄₈</text>
<text text-anchor="start" x="629.38" y="-313.52" font-family="Cascadia Code" font-size="8.00"># samples/branching2.lua 20,17:20,18</text>
<text text-anchor="start" x="629.38" y="-303.77" font-family="Cascadia Code" font-size="8.00">t₅₀ = 0</text>
<text text-anchor="start" x="629.38" y="-294.02" font-family="Cascadia Code" font-size="8.00"># samples/branching2.lua 20,8:20,18</text>
<text text-anchor="start" x="629.38" y="-284.27" font-family="Cascadia Code" font-size="8.00">t₅₁ = eq t₄₉, t₅₀</text>
<text text-anchor="start" x="629.38" y="-274.52" font-family="Cascadia Code" font-size="8.00"># samples/branching2.lua 20,8:20,18</text>
<text text-anchor="start" x="629.38" y="-264.77" font-family="Cascadia Code" font-size="8.00">br BB15 if t₅₁ else BB16</text>
</g>
<!-- BB12&#45;&gt;BB14 -->
<g id="edge14" class="edge">
<title>BB12&#45;&gt;BB14</title>
<path fill="none" stroke="black" d="M686.42,-414.42C688.77,-404.89 691.23,-394.92 693.64,-385.14"/>
<polygon fill="black" stroke="black" points="696.97,-386.24 695.97,-375.7 690.17,-384.57 696.97,-386.24"/>
</g>
<!-- BB13&#45;&gt;BB17 -->
<g id="edge23" class="edge">
<title>BB13&#45;&gt;BB17</title>
<path fill="none" stroke="black" d="M473.55,-253.45C466.68,-241.84 459.98,-229.61 454.38,-217.75 429.27,-164.63 440.02,-144.05 411.38,-92.75 406.23,-83.53 399.7,-74.34 393.02,-65.92"/>
<polygon fill="black" stroke="black" points="395.8,-63.79 386.74,-58.3 390.4,-68.25 395.8,-63.79"/>
</g>
<!-- BB15 -->
<g id="node16" class="node">
<title>BB15</title>
<polygon fill="#efefef" stroke="black" points="641.38,-198.25 463.38,-198.25 463.38,-112.25 641.38,-112.25 641.38,-198.25"/>
<text text-anchor="middle" x="552.38" y="-186.65" font-family="Cascadia Code" font-size="8.00">BB15:</text>
<text text-anchor="start" x="471.38" y="-176.9" font-family="Cascadia Code" font-size="8.00"># samples/branching2.lua 21,13:21,14</text>
<text text-anchor="start" x="471.38" y="-167.15" font-family="Cascadia Code" font-size="8.00">t₅₂ = 9</text>
<text text-anchor="start" x="471.38" y="-157.4" font-family="Cascadia Code" font-size="8.00"># samples/branching2.lua 21,9:21,14</text>
<text text-anchor="start" x="471.38" y="-147.65" font-family="Cascadia Code" font-size="8.00">t₅₃ = add L_3_a₁, t₅₂</text>
<text text-anchor="start" x="471.38" y="-137.9" font-family="Cascadia Code" font-size="8.00"># samples/branching2.lua 21,5:21,14</text>
<text text-anchor="start" x="471.38" y="-128.15" font-family="Cascadia Code" font-size="8.00">L_3_a₂₄ = t₅₃</text>
<text text-anchor="start" x="471.38" y="-118.4" font-family="Cascadia Code" font-size="8.00">br BB17</text>
</g>
<!-- BB14&#45;&gt;BB15 -->
<g id="edge15" class="edge">
<title>BB14&#45;&gt;BB15</title>
<path fill="none" stroke="black" d="M653.78,-258.3C636.89,-241.3 618.5,-222.8 602.09,-206.28"/>
<polygon fill="black" stroke="black" points="604.8,-204.04 595.27,-199.41 599.83,-208.97 604.8,-204.04"/>
</g>
<!-- BB16 -->
<g id="node17" class="node">
<title>BB16</title>
<polygon fill="#efefef" stroke="black" points="837.38,-217.75 659.38,-217.75 659.38,-92.75 837.38,-92.75 837.38,-217.75"/>
<text text-anchor="middle" x="748.38" y="-206.15" font-family="Cascadia Code" font-size="8.00">BB16:</text>
<text text-anchor="start" x="667.38" y="-196.4" font-family="Cascadia Code" font-size="8.00"># samples/branching2.lua 23,13:23,15</text>
<text text-anchor="start" x="667.38" y="-186.65" font-family="Cascadia Code" font-size="8.00">t₅₄ = 10</text>
<text text-anchor="start" x="667.38" y="-176.9" font-family="Cascadia Code" font-size="8.00"># samples/branching2.lua 23,9:23,15</text>
<text text-anchor="start" x="667.38" y="-167.15" font-family="Cascadia Code" font-size="8.00">t₅₅ = add L_3_a₁, t₅₄</text>
<text text-anchor="start" x="667.38" y="-157.4" font-family="Cascadia Code" font-size="8.00"># samples/branching2.lua 23,5:23,15</text>
<text text-anchor="start" x="667.38" y="-147.65" font-family="Cascadia Code" font-size="8.00">L_3_a₂₆ = t₅₅</text>
<text text-anchor="start" x="667.38" y="-137.9" font-family="Cascadia Code" font-size="8.00"># samples/branching2.lua 24,9:24,11</text>
<text text-anchor="start" x="667.38" y="-128.15" font-family="Cascadia Code" font-size="8.00">t₅₆ = 10</text>
<text text-anchor="start" x="667.38" y="-118.4" font-family="Cascadia Code" font-size="8.00"># samples/branching2.lua 24,5:24,11</text>
<text text-anchor="start" x="667.38" y="-108.65" font-family="Cascadia Code" font-size="8.00">L_3_b₁₇ = t₅₆</text>
<text text-anchor="start" x="667.38" y="-98.9" font-family="Cascadia Code" font-size="8.00">br BB17</text>
</g>
<!-- BB14&#45;&gt;BB16 -->
<g id="edge16" class="edge">
<title>BB14&#45;&gt;BB16</title>
<path fill="none" stroke="black" d="M723.99,-258.3C726.25,-248.84 728.62,-238.93 730.95,-229.15"/>
<polygon fill="black" stroke="black" points="734.3,-230.2 733.22,-219.66 727.49,-228.58 734.3,-230.2"/>
</g>
<!-- BB15&#45;&gt;BB17 -->
<g id="edge24" class="edge">
<title>BB15&#45;&gt;BB17</title>
<path fill="none" stroke="black" d="M486.76,-111.8C462.38,-96.02 435.06,-78.34 411.99,-63.42"/>
<polygon fill="black" stroke="black" points="413.95,-60.52 403.65,-58.02 410.15,-66.39 413.95,-60.52"/>
</g>
<!-- BB16&#45;&gt;BB17 -->
<g id="edge25" class="edge">
<title>BB16&#45;&gt;BB17</title>
<path fill="none" stroke="black" d="M659.04,-96.51C656.15,-95.19 653.26,-93.93 650.38,-92.75 617.29,-79.25 580.87,-68.42 545.32,-59.81"/>
<polygon fill="black" stroke="black" points="546.33,-56.45 535.79,-57.55 544.71,-63.26 546.33,-56.45"/>
</g>
</g>
</svg>
