<?xml version="1.0" encoding="UTF-8" standalone="no"?>
<!DOCTYPE svg PUBLIC "-//W3C//DTD SVG 1.1//EN"
 "http://www.w3.org/Graphics/SVG/1.1/DTD/svg11.dtd">
<!-- Generated by graphviz version 9.0.0 (0)
 -->
<!-- Pages: 1 -->
<svg width="274pt" height="343pt"
 viewBox="0.00 0.00 274.00 343.00" xmlns="http://www.w3.org/2000/svg" xmlns:xlink="http://www.w3.org/1999/xlink">
<g id="graph0" class="graph" transform="scale(1 1) rotate(0) translate(4 339)">
<polygon fill="white" stroke="none" points="-4,4 -4,-339 270,-339 270,4 -4,4"/>
<!-- BB0 -->
<g id="node1" class="node">
<title>BB0</title>
<polygon fill="#efefef" stroke="black" points="195,-335 35,-335 35,-258.75 195,-258.75 195,-335"/>
<text text-anchor="middle" x="115" y="-323.4" font-family="Cascadia Code" font-size="8.00">BB0:</text>
<text text-anchor="start" x="43" y="-313.65" font-family="Cascadia Code" font-size="8.00"># samples/branching.lua 3,4:3,9</text>
<text text-anchor="start" x="43" y="-303.9" font-family="Cascadia Code" font-size="8.00">t₂ = mod nil, 2</text>
<text text-anchor="start" x="43" y="-294.15" font-family="Cascadia Code" font-size="8.00"># samples/branching.lua 3,4:3,14</text>
<text text-anchor="start" x="43" y="-284.4" font-family="Cascadia Code" font-size="8.00">t₄ = eq t₂, 0</text>
<text text-anchor="start" x="43" y="-274.65" font-family="Cascadia Code" font-size="8.00"># samples/branching.lua 3,4:3,14</text>
<text text-anchor="start" x="43" y="-264.9" font-family="Cascadia Code" font-size="8.00">br BB1 if t₄ else BB2</text>
</g>
<!-- BB1 -->
<g id="node2" class="node">
<title>BB1</title>
<polygon fill="#efefef" stroke="black" points="88,-203.25 0,-203.25 0,-166 88,-166 88,-203.25"/>
<text text-anchor="middle" x="44" y="-191.65" font-family="Cascadia Code" font-size="8.00">BB1:</text>
<text text-anchor="start" x="8" y="-181.9" font-family="Cascadia Code" font-size="8.00">L_1DE93AF_a₆ = 3</text>
<text text-anchor="start" x="8" y="-172.15" font-family="Cascadia Code" font-size="8.00">br BB5</text>
</g>
<!-- BB0&#45;&gt;BB1 -->
<g id="edge1" class="edge">
<title>BB0&#45;&gt;BB1</title>
<path fill="none" stroke="black" d="M90.96,-258.55C81.38,-243.67 70.55,-226.85 61.71,-213.12"/>
<polygon fill="black" stroke="black" points="64.84,-211.52 56.48,-205.01 58.96,-215.31 64.84,-211.52"/>
</g>
<!-- BB2 -->
<g id="node3" class="node">
<title>BB2</title>
<polygon fill="#efefef" stroke="black" points="266,-222.75 106,-222.75 106,-146.5 266,-146.5 266,-222.75"/>
<text text-anchor="middle" x="186" y="-211.15" font-family="Cascadia Code" font-size="8.00">BB2:</text>
<text text-anchor="start" x="114" y="-201.4" font-family="Cascadia Code" font-size="8.00"># samples/branching.lua 5,8:5,13</text>
<text text-anchor="start" x="114" y="-191.65" font-family="Cascadia Code" font-size="8.00">t₇ = mod nil, 3</text>
<text text-anchor="start" x="114" y="-181.9" font-family="Cascadia Code" font-size="8.00"># samples/branching.lua 5,8:5,18</text>
<text text-anchor="start" x="114" y="-172.15" font-family="Cascadia Code" font-size="8.00">t₉ = eq t₇, 0</text>
<text text-anchor="start" x="114" y="-162.4" font-family="Cascadia Code" font-size="8.00"># samples/branching.lua 5,8:5,18</text>
<text text-anchor="start" x="114" y="-152.65" font-family="Cascadia Code" font-size="8.00">br BB3 if t₉ else BB4</text>
</g>
<!-- BB0&#45;&gt;BB2 -->
<g id="edge2" class="edge">
<title>BB0&#45;&gt;BB2</title>
<path fill="none" stroke="black" d="M139.04,-258.55C144.42,-250.2 150.19,-241.24 155.78,-232.55"/>
<polygon fill="black" stroke="black" points="158.7,-234.49 161.17,-224.18 152.81,-230.7 158.7,-234.49"/>
</g>
<!-- BB5 -->
<g id="node6" class="node">
<title>BB5</title>
<polygon fill="#efefef" stroke="black" points="198.25,-37.25 33.75,-37.25 33.75,0 198.25,0 198.25,-37.25"/>
<text text-anchor="middle" x="116" y="-25.65" font-family="Cascadia Code" font-size="8.00">BB5:</text>
<text text-anchor="start" x="41.75" y="-15.9" font-family="Cascadia Code" font-size="8.00"># samples/branching.lua 11,1:11,9</text>
<text text-anchor="start" x="41.75" y="-6.15" font-family="Cascadia Code" font-size="8.00">t₁₂ = $print(L_1DE93AF_a₆)</text>
</g>
<!-- BB1&#45;&gt;BB5 -->
<g id="edge5" class="edge">
<title>BB1&#45;&gt;BB5</title>
<path fill="none" stroke="black" d="M43.85,-165.77C44.35,-143.05 47.62,-103.16 63,-73.25 68.24,-63.06 76.1,-53.56 84.17,-45.48"/>
<polygon fill="black" stroke="black" points="86.56,-48.03 91.46,-38.64 81.77,-42.93 86.56,-48.03"/>
</g>
<!-- BB3 -->
<g id="node4" class="node">
<title>BB3</title>
<polygon fill="#efefef" stroke="black" points="160,-110.5 72,-110.5 72,-73.25 160,-73.25 160,-110.5"/>
<text text-anchor="middle" x="116" y="-98.9" font-family="Cascadia Code" font-size="8.00">BB3:</text>
<text text-anchor="start" x="80" y="-89.15" font-family="Cascadia Code" font-size="8.00">L_1DE93AF_a₆ = 5</text>
<text text-anchor="start" x="80" y="-79.4" font-family="Cascadia Code" font-size="8.00">br BB5</text>
</g>
<!-- BB2&#45;&gt;BB3 -->
<g id="edge3" class="edge">
<title>BB2&#45;&gt;BB3</title>
<path fill="none" stroke="black" d="M157.12,-146.19C150.23,-137.25 143.01,-127.89 136.57,-119.54"/>
<polygon fill="black" stroke="black" points="139.51,-117.62 130.63,-111.84 133.96,-121.89 139.51,-117.62"/>
</g>
<!-- BB4 -->
<g id="node5" class="node">
<title>BB4</title>
<polygon fill="#efefef" stroke="black" points="266,-110.5 178,-110.5 178,-73.25 266,-73.25 266,-110.5"/>
<text text-anchor="middle" x="222" y="-98.9" font-family="Cascadia Code" font-size="8.00">BB4:</text>
<text text-anchor="start" x="186" y="-89.15" font-family="Cascadia Code" font-size="8.00">L_1DE93AF_a₆ = 7</text>
<text text-anchor="start" x="186" y="-79.4" font-family="Cascadia Code" font-size="8.00">br BB5</text>
</g>
<!-- BB2&#45;&gt;BB4 -->
<g id="edge4" class="edge">
<title>BB2&#45;&gt;BB4</title>
<path fill="none" stroke="black" d="M200.85,-146.19C204.17,-137.83 207.63,-129.09 210.77,-121.17"/>
<polygon fill="black" stroke="black" points="213.96,-122.63 214.4,-112.05 207.45,-120.05 213.96,-122.63"/>
</g>
<!-- BB3&#45;&gt;BB5 -->
<g id="edge6" class="edge">
<title>BB3&#45;&gt;BB5</title>
<path fill="none" stroke="black" d="M116,-72.9C116,-65.58 116,-56.94 116,-48.77"/>
<polygon fill="black" stroke="black" points="119.5,-48.87 116,-38.87 112.5,-48.87 119.5,-48.87"/>
</g>
<!-- BB4&#45;&gt;BB5 -->
<g id="edge7" class="edge">
<title>BB4&#45;&gt;BB5</title>
<path fill="none" stroke="black" d="M195.25,-72.9C182.2,-64.12 166.3,-53.43 152.18,-43.94"/>
<polygon fill="black" stroke="black" points="154.25,-41.12 144,-38.44 150.34,-46.93 154.25,-41.12"/>
</g>
</g>
</svg>
