<?xml version="1.0" encoding="UTF-8" standalone="no"?>
<!DOCTYPE svg PUBLIC "-//W3C//DTD SVG 1.1//EN"
 "http://www.w3.org/Graphics/SVG/1.1/DTD/svg11.dtd">
<!-- Generated by graphviz version 9.0.0 (0)
 -->
<!-- Pages: 1 -->
<svg width="1690pt" height="763pt"
 viewBox="0.00 0.00 1689.50 763.00" xmlns="http://www.w3.org/2000/svg" xmlns:xlink="http://www.w3.org/1999/xlink">
<g id="graph0" class="graph" transform="scale(1 1) rotate(0) translate(4 759)">
<polygon fill="white" stroke="none" points="-4,4 -4,-759 1685.5,-759 1685.5,4 -4,4"/>
<!-- BB0 -->
<g id="node1" class="node">
<title>BB0</title>
<polygon fill="#efefef" stroke="black" points="169,-755 4.5,-755 4.5,-708 169,-708 169,-755"/>
<text text-anchor="middle" x="86.75" y="-743.4" font-family="Cascadia Code" font-size="8.00">BB0:</text>
<text text-anchor="start" x="12.5" y="-733.65" font-family="Cascadia Code" font-size="8.00">L_1DE93AF_b₁ = nil</text>
<text text-anchor="start" x="12.5" y="-723.9" font-family="Cascadia Code" font-size="8.00"># samples/branching2.lua 2,4:2,14</text>
<text text-anchor="start" x="12.5" y="-714.15" font-family="Cascadia Code" font-size="8.00">br BB2</text>
</g>
<!-- BB2 -->
<g id="node3" class="node">
<title>BB2</title>
<polygon fill="#efefef" stroke="black" points="169,-672 4.5,-672 4.5,-634.75 169,-634.75 169,-672"/>
<text text-anchor="middle" x="86.75" y="-660.4" font-family="Cascadia Code" font-size="8.00">BB2:</text>
<text text-anchor="start" x="12.5" y="-650.65" font-family="Cascadia Code" font-size="8.00"># samples/branching2.lua 5,8:5,18</text>
<text text-anchor="start" x="12.5" y="-640.9" font-family="Cascadia Code" font-size="8.00">br BB4</text>
</g>
<!-- BB0&#45;&gt;BB2 -->
<g id="edge1" class="edge">
<title>BB0&#45;&gt;BB2</title>
<path fill="none" stroke="black" d="M86.75,-707.66C86.75,-700.1 86.75,-691.58 86.75,-683.6"/>
<polygon fill="black" stroke="black" points="90.25,-683.63 86.75,-673.63 83.25,-683.63 90.25,-683.63"/>
</g>
<!-- BB1 -->
<g id="node2" class="node">
<title>BB1</title>
<polygon fill="#efefef" stroke="black" points="356,-159.25 191.5,-159.25 191.5,-92.75 356,-92.75 356,-159.25"/>
<text text-anchor="middle" x="273.75" y="-147.65" font-family="Cascadia Code" font-size="8.00">BB1:</text>
<text text-anchor="start" x="199.5" y="-137.9" font-family="Cascadia Code" font-size="8.00"># samples/branching2.lua 3,5:3,14</text>
<text text-anchor="start" x="199.5" y="-128.15" font-family="Cascadia Code" font-size="8.00">L_1DE93AF_a₃ = 3</text>
<text text-anchor="start" x="199.5" y="-118.4" font-family="Cascadia Code" font-size="8.00"># samples/branching2.lua 4,5:4,10</text>
<text text-anchor="start" x="199.5" y="-108.65" font-family="Cascadia Code" font-size="8.00">L_1DE93AF_b₂ = 2</text>
<text text-anchor="start" x="199.5" y="-98.9" font-family="Cascadia Code" font-size="8.00">br BB17</text>
</g>
<!-- BB17 -->
<g id="node18" class="node">
<title>BB17</title>
<polygon fill="#efefef" stroke="black" points="1321.12,-56.75 332.38,-56.75 332.38,0 1321.12,0 1321.12,-56.75"/>
<text text-anchor="middle" x="826.75" y="-45.15" font-family="Cascadia Code" font-size="8.00">BB17:</text>
<text text-anchor="start" x="340.38" y="-35.4" font-family="Cascadia Code" font-size="8.00">L_1DE93AF_a₂₇ = ϕ([BB1: L_1DE93AF_a₃], [BB3: L_1DE93AF_a₆], [BB5: L_1DE93AF_a₉], [BB7: L_1DE93AF_a₁₂], [BB9: L_1DE93AF_a₁₅], [BB11: L_1DE93AF_a₁₈], [BB13: L_1DE93AF_a₂₁], [BB15: L_1DE93AF_a₂₄], [BB16: L_1DE93AF_a₂₆])</text>
<text text-anchor="start" x="340.38" y="-25.65" font-family="Cascadia Code" font-size="8.00">L_1DE93AF_b₁₈ = ϕ([BB1: L_1DE93AF_b₂], [BB3: L_1DE93AF_b₁], [BB5: L_1DE93AF_b₆], [BB7: L_1DE93AF_b₁], [BB9: L_1DE93AF_b₁₀], [BB11: L_1DE93AF_b₁], [BB13: L_1DE93AF_b₁₄], [BB15: L_1DE93AF_b₁], [BB16: L_1DE93AF_b₁₇])</text>
<text text-anchor="start" x="340.38" y="-15.9" font-family="Cascadia Code" font-size="8.00"># samples/branching2.lua 26,1:26,12</text>
<text text-anchor="start" x="340.38" y="-6.15" font-family="Cascadia Code" font-size="8.00">t₅₇ = $print(L_1DE93AF_a₂₇, L_1DE93AF_b₁₈)</text>
</g>
<!-- BB1&#45;&gt;BB17 -->
<g id="edge9" class="edge">
<title>BB1&#45;&gt;BB17</title>
<path fill="none" stroke="black" d="M356.27,-95.2C359.46,-94.32 362.62,-93.5 365.75,-92.75 423.42,-78.83 485.93,-67.68 545.76,-58.86"/>
<polygon fill="black" stroke="black" points="546.01,-62.36 555.41,-57.45 545.01,-55.43 546.01,-62.36"/>
</g>
<!-- BB4 -->
<g id="node5" class="node">
<title>BB4</title>
<polygon fill="#efefef" stroke="black" points="169,-598.75 4.5,-598.75 4.5,-561.5 169,-561.5 169,-598.75"/>
<text text-anchor="middle" x="86.75" y="-587.15" font-family="Cascadia Code" font-size="8.00">BB4:</text>
<text text-anchor="start" x="12.5" y="-577.4" font-family="Cascadia Code" font-size="8.00"># samples/branching2.lua 7,8:7,18</text>
<text text-anchor="start" x="12.5" y="-567.65" font-family="Cascadia Code" font-size="8.00">br BB6</text>
</g>
<!-- BB2&#45;&gt;BB4 -->
<g id="edge2" class="edge">
<title>BB2&#45;&gt;BB4</title>
<path fill="none" stroke="black" d="M86.75,-634.4C86.75,-627.08 86.75,-618.44 86.75,-610.27"/>
<polygon fill="black" stroke="black" points="90.25,-610.37 86.75,-600.37 83.25,-610.37 90.25,-610.37"/>
</g>
<!-- BB3 -->
<g id="node4" class="node">
<title>BB3</title>
<polygon fill="#efefef" stroke="black" points="539,-149.5 374.5,-149.5 374.5,-102.5 539,-102.5 539,-149.5"/>
<text text-anchor="middle" x="456.75" y="-137.9" font-family="Cascadia Code" font-size="8.00">BB3:</text>
<text text-anchor="start" x="382.5" y="-128.15" font-family="Cascadia Code" font-size="8.00"># samples/branching2.lua 6,5:6,14</text>
<text text-anchor="start" x="382.5" y="-118.4" font-family="Cascadia Code" font-size="8.00">L_1DE93AF_a₆ = 4</text>
<text text-anchor="start" x="382.5" y="-108.65" font-family="Cascadia Code" font-size="8.00">br BB17</text>
</g>
<!-- BB3&#45;&gt;BB17 -->
<g id="edge10" class="edge">
<title>BB3&#45;&gt;BB17</title>
<path fill="none" stroke="black" d="M519.3,-102.01C529.1,-98.72 539.15,-95.52 548.75,-92.75 590.87,-80.61 637.1,-69.29 679.58,-59.67"/>
<polygon fill="black" stroke="black" points="680.11,-63.13 689.1,-57.53 678.57,-56.3 680.11,-63.13"/>
</g>
<!-- BB6 -->
<g id="node7" class="node">
<title>BB6</title>
<polygon fill="#efefef" stroke="black" points="173.5,-525.5 0,-525.5 0,-488.25 173.5,-488.25 173.5,-525.5"/>
<text text-anchor="middle" x="86.75" y="-513.9" font-family="Cascadia Code" font-size="8.00">BB6:</text>
<text text-anchor="start" x="8" y="-504.15" font-family="Cascadia Code" font-size="8.00"># samples/branching2.lua 10,8:10,18</text>
<text text-anchor="start" x="8" y="-494.4" font-family="Cascadia Code" font-size="8.00">br BB8</text>
</g>
<!-- BB4&#45;&gt;BB6 -->
<g id="edge3" class="edge">
<title>BB4&#45;&gt;BB6</title>
<path fill="none" stroke="black" d="M86.75,-561.15C86.75,-553.83 86.75,-545.19 86.75,-537.02"/>
<polygon fill="black" stroke="black" points="90.25,-537.12 86.75,-527.12 83.25,-537.12 90.25,-537.12"/>
</g>
<!-- BB5 -->
<g id="node6" class="node">
<title>BB5</title>
<polygon fill="#efefef" stroke="black" points="722,-159.25 557.5,-159.25 557.5,-92.75 722,-92.75 722,-159.25"/>
<text text-anchor="middle" x="639.75" y="-147.65" font-family="Cascadia Code" font-size="8.00">BB5:</text>
<text text-anchor="start" x="565.5" y="-137.9" font-family="Cascadia Code" font-size="8.00"># samples/branching2.lua 8,5:8,14</text>
<text text-anchor="start" x="565.5" y="-128.15" font-family="Cascadia Code" font-size="8.00">L_1DE93AF_a₉ = 5</text>
<text text-anchor="start" x="565.5" y="-118.4" font-family="Cascadia Code" font-size="8.00"># samples/branching2.lua 9,5:9,10</text>
<text text-anchor="start" x="565.5" y="-108.65" font-family="Cascadia Code" font-size="8.00">L_1DE93AF_b₆ = 4</text>
<text text-anchor="start" x="565.5" y="-98.9" font-family="Cascadia Code" font-size="8.00">br BB17</text>
</g>
<!-- BB5&#45;&gt;BB17 -->
<g id="edge11" class="edge">
<title>BB5&#45;&gt;BB17</title>
<path fill="none" stroke="black" d="M703.58,-92.36C722.51,-82.68 743.24,-72.08 762.21,-62.38"/>
<polygon fill="black" stroke="black" points="763.59,-65.61 770.9,-57.94 760.4,-59.37 763.59,-65.61"/>
</g>
<!-- BB8 -->
<g id="node9" class="node">
<title>BB8</title>
<polygon fill="#efefef" stroke="black" points="173.5,-452.25 0,-452.25 0,-415 173.5,-415 173.5,-452.25"/>
<text text-anchor="middle" x="86.75" y="-440.65" font-family="Cascadia Code" font-size="8.00">BB8:</text>
<text text-anchor="start" x="8" y="-430.9" font-family="Cascadia Code" font-size="8.00"># samples/branching2.lua 12,8:12,18</text>
<text text-anchor="start" x="8" y="-421.15" font-family="Cascadia Code" font-size="8.00">br BB10</text>
</g>
<!-- BB6&#45;&gt;BB8 -->
<g id="edge4" class="edge">
<title>BB6&#45;&gt;BB8</title>
<path fill="none" stroke="black" d="M86.75,-487.9C86.75,-480.58 86.75,-471.94 86.75,-463.77"/>
<polygon fill="black" stroke="black" points="90.25,-463.87 86.75,-453.87 83.25,-463.87 90.25,-463.87"/>
</g>
<!-- BB7 -->
<g id="node8" class="node">
<title>BB7</title>
<polygon fill="#efefef" stroke="black" points="913.5,-149.5 740,-149.5 740,-102.5 913.5,-102.5 913.5,-149.5"/>
<text text-anchor="middle" x="826.75" y="-137.9" font-family="Cascadia Code" font-size="8.00">BB7:</text>
<text text-anchor="start" x="748" y="-128.15" font-family="Cascadia Code" font-size="8.00"># samples/branching2.lua 11,5:11,14</text>
<text text-anchor="start" x="748" y="-118.4" font-family="Cascadia Code" font-size="8.00">L_1DE93AF_a₁₂ = 6</text>
<text text-anchor="start" x="748" y="-108.65" font-family="Cascadia Code" font-size="8.00">br BB17</text>
</g>
<!-- BB7&#45;&gt;BB17 -->
<g id="edge12" class="edge">
<title>BB7&#45;&gt;BB17</title>
<path fill="none" stroke="black" d="M826.75,-102.34C826.75,-92.15 826.75,-79.83 826.75,-68.24"/>
<polygon fill="black" stroke="black" points="830.25,-68.51 826.75,-58.51 823.25,-68.51 830.25,-68.51"/>
</g>
<!-- BB10 -->
<g id="node11" class="node">
<title>BB10</title>
<polygon fill="#efefef" stroke="black" points="173.5,-379 0,-379 0,-341.75 173.5,-341.75 173.5,-379"/>
<text text-anchor="middle" x="86.75" y="-367.4" font-family="Cascadia Code" font-size="8.00">BB10:</text>
<text text-anchor="start" x="8" y="-357.65" font-family="Cascadia Code" font-size="8.00"># samples/branching2.lua 15,8:15,18</text>
<text text-anchor="start" x="8" y="-347.9" font-family="Cascadia Code" font-size="8.00">br BB12</text>
</g>
<!-- BB8&#45;&gt;BB10 -->
<g id="edge5" class="edge">
<title>BB8&#45;&gt;BB10</title>
<path fill="none" stroke="black" d="M86.75,-414.65C86.75,-407.33 86.75,-398.69 86.75,-390.52"/>
<polygon fill="black" stroke="black" points="90.25,-390.62 86.75,-380.62 83.25,-390.62 90.25,-390.62"/>
</g>
<!-- BB9 -->
<g id="node10" class="node">
<title>BB9</title>
<polygon fill="#efefef" stroke="black" points="1105.5,-159.25 932,-159.25 932,-92.75 1105.5,-92.75 1105.5,-159.25"/>
<text text-anchor="middle" x="1018.75" y="-147.65" font-family="Cascadia Code" font-size="8.00">BB9:</text>
<text text-anchor="start" x="940" y="-137.9" font-family="Cascadia Code" font-size="8.00"># samples/branching2.lua 13,5:13,14</text>
<text text-anchor="start" x="940" y="-128.15" font-family="Cascadia Code" font-size="8.00">L_1DE93AF_a₁₅ = 7</text>
<text text-anchor="start" x="940" y="-118.4" font-family="Cascadia Code" font-size="8.00"># samples/branching2.lua 14,5:14,10</text>
<text text-anchor="start" x="940" y="-108.65" font-family="Cascadia Code" font-size="8.00">L_1DE93AF_b₁₀ = 6</text>
<text text-anchor="start" x="940" y="-98.9" font-family="Cascadia Code" font-size="8.00">br BB17</text>
</g>
<!-- BB9&#45;&gt;BB17 -->
<g id="edge13" class="edge">
<title>BB9&#45;&gt;BB17</title>
<path fill="none" stroke="black" d="M953.21,-92.36C933.78,-82.68 912.49,-72.08 893.02,-62.38"/>
<polygon fill="black" stroke="black" points="894.58,-59.25 884.07,-57.92 891.46,-65.51 894.58,-59.25"/>
</g>
<!-- BB12 -->
<g id="node13" class="node">
<title>BB12</title>
<polygon fill="#efefef" stroke="black" points="173.5,-305.75 0,-305.75 0,-268.5 173.5,-268.5 173.5,-305.75"/>
<text text-anchor="middle" x="86.75" y="-294.15" font-family="Cascadia Code" font-size="8.00">BB12:</text>
<text text-anchor="start" x="8" y="-284.4" font-family="Cascadia Code" font-size="8.00"># samples/branching2.lua 17,8:17,18</text>
<text text-anchor="start" x="8" y="-274.65" font-family="Cascadia Code" font-size="8.00">br BB14</text>
</g>
<!-- BB10&#45;&gt;BB12 -->
<g id="edge6" class="edge">
<title>BB10&#45;&gt;BB12</title>
<path fill="none" stroke="black" d="M86.75,-341.4C86.75,-334.08 86.75,-325.44 86.75,-317.27"/>
<polygon fill="black" stroke="black" points="90.25,-317.37 86.75,-307.37 83.25,-317.37 90.25,-317.37"/>
</g>
<!-- BB11 -->
<g id="node12" class="node">
<title>BB11</title>
<polygon fill="#efefef" stroke="black" points="1297.5,-149.5 1124,-149.5 1124,-102.5 1297.5,-102.5 1297.5,-149.5"/>
<text text-anchor="middle" x="1210.75" y="-137.9" font-family="Cascadia Code" font-size="8.00">BB11:</text>
<text text-anchor="start" x="1132" y="-128.15" font-family="Cascadia Code" font-size="8.00"># samples/branching2.lua 16,5:16,14</text>
<text text-anchor="start" x="1132" y="-118.4" font-family="Cascadia Code" font-size="8.00">L_1DE93AF_a₁₈ = 8</text>
<text text-anchor="start" x="1132" y="-108.65" font-family="Cascadia Code" font-size="8.00">br BB17</text>
</g>
<!-- BB11&#45;&gt;BB17 -->
<g id="edge14" class="edge">
<title>BB11&#45;&gt;BB17</title>
<path fill="none" stroke="black" d="M1145.46,-102.02C1135.23,-98.73 1124.75,-95.52 1114.75,-92.75 1070.97,-80.62 1022.94,-69.28 978.87,-59.65"/>
<polygon fill="black" stroke="black" points="979.75,-56.26 969.23,-57.56 978.26,-63.1 979.75,-56.26"/>
</g>
<!-- BB14 -->
<g id="node15" class="node">
<title>BB14</title>
<polygon fill="#efefef" stroke="black" points="173.5,-232.5 0,-232.5 0,-195.25 173.5,-195.25 173.5,-232.5"/>
<text text-anchor="middle" x="86.75" y="-220.9" font-family="Cascadia Code" font-size="8.00">BB14:</text>
<text text-anchor="start" x="8" y="-211.15" font-family="Cascadia Code" font-size="8.00"># samples/branching2.lua 20,8:20,18</text>
<text text-anchor="start" x="8" y="-201.4" font-family="Cascadia Code" font-size="8.00">br BB16</text>
</g>
<!-- BB12&#45;&gt;BB14 -->
<g id="edge7" class="edge">
<title>BB12&#45;&gt;BB14</title>
<path fill="none" stroke="black" d="M86.75,-268.15C86.75,-260.83 86.75,-252.19 86.75,-244.02"/>
<polygon fill="black" stroke="black" points="90.25,-244.12 86.75,-234.12 83.25,-244.12 90.25,-244.12"/>
</g>
<!-- BB13 -->
<g id="node14" class="node">
<title>BB13</title>
<polygon fill="#efefef" stroke="black" points="1489.5,-159.25 1316,-159.25 1316,-92.75 1489.5,-92.75 1489.5,-159.25"/>
<text text-anchor="middle" x="1402.75" y="-147.65" font-family="Cascadia Code" font-size="8.00">BB13:</text>
<text text-anchor="start" x="1324" y="-137.9" font-family="Cascadia Code" font-size="8.00"># samples/branching2.lua 18,5:18,14</text>
<text text-anchor="start" x="1324" y="-128.15" font-family="Cascadia Code" font-size="8.00">L_1DE93AF_a₂₁ = 9</text>
<text text-anchor="start" x="1324" y="-118.4" font-family="Cascadia Code" font-size="8.00"># samples/branching2.lua 19,5:19,10</text>
<text text-anchor="start" x="1324" y="-108.65" font-family="Cascadia Code" font-size="8.00">L_1DE93AF_b₁₄ = 8</text>
<text text-anchor="start" x="1324" y="-98.9" font-family="Cascadia Code" font-size="8.00">br BB17</text>
</g>
<!-- BB13&#45;&gt;BB17 -->
<g id="edge15" class="edge">
<title>BB13&#45;&gt;BB17</title>
<path fill="none" stroke="black" d="M1315.58,-94.92C1312.61,-94.15 1309.66,-93.42 1306.75,-92.75 1246.5,-78.79 1181.22,-67.62 1118.8,-58.79"/>
<polygon fill="black" stroke="black" points="1119.47,-55.35 1109.08,-57.43 1118.5,-62.28 1119.47,-55.35"/>
</g>
<!-- BB16 -->
<g id="node17" class="node">
<title>BB16</title>
<polygon fill="#efefef" stroke="black" points="173.5,-159.25 0,-159.25 0,-92.75 173.5,-92.75 173.5,-159.25"/>
<text text-anchor="middle" x="86.75" y="-147.65" font-family="Cascadia Code" font-size="8.00">BB16:</text>
<text text-anchor="start" x="8" y="-137.9" font-family="Cascadia Code" font-size="8.00"># samples/branching2.lua 23,5:23,15</text>
<text text-anchor="start" x="8" y="-128.15" font-family="Cascadia Code" font-size="8.00">L_1DE93AF_a₂₆ = 11</text>
<text text-anchor="start" x="8" y="-118.4" font-family="Cascadia Code" font-size="8.00"># samples/branching2.lua 24,5:24,11</text>
<text text-anchor="start" x="8" y="-108.65" font-family="Cascadia Code" font-size="8.00">L_1DE93AF_b₁₇ = 10</text>
<text text-anchor="start" x="8" y="-98.9" font-family="Cascadia Code" font-size="8.00">br BB17</text>
</g>
<!-- BB14&#45;&gt;BB16 -->
<g id="edge8" class="edge">
<title>BB14&#45;&gt;BB16</title>
<path fill="none" stroke="black" d="M86.75,-195.08C86.75,-188.06 86.75,-179.64 86.75,-171.17"/>
<polygon fill="black" stroke="black" points="90.25,-171.21 86.75,-161.21 83.25,-171.21 90.25,-171.21"/>
</g>
<!-- BB15 -->
<g id="node16" class="node">
<title>BB15</title>
<polygon fill="#efefef" stroke="black" points="1681.5,-149.5 1508,-149.5 1508,-102.5 1681.5,-102.5 1681.5,-149.5"/>
<text text-anchor="middle" x="1594.75" y="-137.9" font-family="Cascadia Code" font-size="8.00">BB15:</text>
<text text-anchor="start" x="1516" y="-128.15" font-family="Cascadia Code" font-size="8.00"># samples/branching2.lua 21,5:21,14</text>
<text text-anchor="start" x="1516" y="-118.4" font-family="Cascadia Code" font-size="8.00">L_1DE93AF_a₂₄ = 10</text>
<text text-anchor="start" x="1516" y="-108.65" font-family="Cascadia Code" font-size="8.00">br BB17</text>
</g>
<!-- BB15&#45;&gt;BB17 -->
<g id="edge16" class="edge">
<title>BB15&#45;&gt;BB17</title>
<path fill="none" stroke="black" d="M1533.36,-102.06C1521.98,-98.47 1510.1,-95.16 1498.75,-92.75 1430.6,-78.29 1357.87,-67.13 1286.35,-58.52"/>
<polygon fill="black" stroke="black" points="1287.19,-55.09 1276.85,-57.39 1286.37,-62.04 1287.19,-55.09"/>
</g>
<!-- BB16&#45;&gt;BB17 -->
<g id="edge17" class="edge">
<title>BB16&#45;&gt;BB17</title>
<path fill="none" stroke="black" d="M173.89,-94.8C176.87,-94.06 179.83,-93.38 182.75,-92.75 250.01,-78.34 321.93,-67.19 392.44,-58.58"/>
<polygon fill="black" stroke="black" points="392.73,-62.07 402.24,-57.4 391.89,-55.12 392.73,-62.07"/>
</g>
</g>
</svg>
